%TF.GenerationSoftware,KiCad,Pcbnew,(5.1.8)-1*%
%TF.CreationDate,2022-01-24T15:12:58-08:00*%
%TF.ProjectId,BLE-33_baseboard,424c452d-3333-45f6-9261-7365626f6172,rev?*%
%TF.SameCoordinates,Original*%
%TF.FileFunction,Paste,Top*%
%TF.FilePolarity,Positive*%
%FSLAX46Y46*%
G04 Gerber Fmt 4.6, Leading zero omitted, Abs format (unit mm)*
G04 Created by KiCad (PCBNEW (5.1.8)-1) date 2022-01-24 15:12:58*
%MOMM*%
%LPD*%
G01*
G04 APERTURE LIST*
G04 APERTURE END LIST*
%TO.C,F7*%
G36*
G01*
X102945250Y-90863000D02*
X102032750Y-90863000D01*
G75*
G02*
X101789000Y-90619250I0J243750D01*
G01*
X101789000Y-90131750D01*
G75*
G02*
X102032750Y-89888000I243750J0D01*
G01*
X102945250Y-89888000D01*
G75*
G02*
X103189000Y-90131750I0J-243750D01*
G01*
X103189000Y-90619250D01*
G75*
G02*
X102945250Y-90863000I-243750J0D01*
G01*
G37*
G36*
G01*
X102945250Y-92738000D02*
X102032750Y-92738000D01*
G75*
G02*
X101789000Y-92494250I0J243750D01*
G01*
X101789000Y-92006750D01*
G75*
G02*
X102032750Y-91763000I243750J0D01*
G01*
X102945250Y-91763000D01*
G75*
G02*
X103189000Y-92006750I0J-243750D01*
G01*
X103189000Y-92494250D01*
G75*
G02*
X102945250Y-92738000I-243750J0D01*
G01*
G37*
%TD*%
%TO.C,F6*%
G36*
G01*
X105993250Y-90863000D02*
X105080750Y-90863000D01*
G75*
G02*
X104837000Y-90619250I0J243750D01*
G01*
X104837000Y-90131750D01*
G75*
G02*
X105080750Y-89888000I243750J0D01*
G01*
X105993250Y-89888000D01*
G75*
G02*
X106237000Y-90131750I0J-243750D01*
G01*
X106237000Y-90619250D01*
G75*
G02*
X105993250Y-90863000I-243750J0D01*
G01*
G37*
G36*
G01*
X105993250Y-92738000D02*
X105080750Y-92738000D01*
G75*
G02*
X104837000Y-92494250I0J243750D01*
G01*
X104837000Y-92006750D01*
G75*
G02*
X105080750Y-91763000I243750J0D01*
G01*
X105993250Y-91763000D01*
G75*
G02*
X106237000Y-92006750I0J-243750D01*
G01*
X106237000Y-92494250D01*
G75*
G02*
X105993250Y-92738000I-243750J0D01*
G01*
G37*
%TD*%
%TO.C,F5*%
G36*
G01*
X168090000Y-116280250D02*
X168090000Y-115367750D01*
G75*
G02*
X168333750Y-115124000I243750J0D01*
G01*
X168821250Y-115124000D01*
G75*
G02*
X169065000Y-115367750I0J-243750D01*
G01*
X169065000Y-116280250D01*
G75*
G02*
X168821250Y-116524000I-243750J0D01*
G01*
X168333750Y-116524000D01*
G75*
G02*
X168090000Y-116280250I0J243750D01*
G01*
G37*
G36*
G01*
X166215000Y-116280250D02*
X166215000Y-115367750D01*
G75*
G02*
X166458750Y-115124000I243750J0D01*
G01*
X166946250Y-115124000D01*
G75*
G02*
X167190000Y-115367750I0J-243750D01*
G01*
X167190000Y-116280250D01*
G75*
G02*
X166946250Y-116524000I-243750J0D01*
G01*
X166458750Y-116524000D01*
G75*
G02*
X166215000Y-116280250I0J243750D01*
G01*
G37*
%TD*%
%TO.C,F4*%
G36*
G01*
X167691750Y-103828000D02*
X168604250Y-103828000D01*
G75*
G02*
X168848000Y-104071750I0J-243750D01*
G01*
X168848000Y-104559250D01*
G75*
G02*
X168604250Y-104803000I-243750J0D01*
G01*
X167691750Y-104803000D01*
G75*
G02*
X167448000Y-104559250I0J243750D01*
G01*
X167448000Y-104071750D01*
G75*
G02*
X167691750Y-103828000I243750J0D01*
G01*
G37*
G36*
G01*
X167691750Y-101953000D02*
X168604250Y-101953000D01*
G75*
G02*
X168848000Y-102196750I0J-243750D01*
G01*
X168848000Y-102684250D01*
G75*
G02*
X168604250Y-102928000I-243750J0D01*
G01*
X167691750Y-102928000D01*
G75*
G02*
X167448000Y-102684250I0J243750D01*
G01*
X167448000Y-102196750D01*
G75*
G02*
X167691750Y-101953000I243750J0D01*
G01*
G37*
%TD*%
%TO.C,F3*%
G36*
G01*
X168199750Y-87318000D02*
X169112250Y-87318000D01*
G75*
G02*
X169356000Y-87561750I0J-243750D01*
G01*
X169356000Y-88049250D01*
G75*
G02*
X169112250Y-88293000I-243750J0D01*
G01*
X168199750Y-88293000D01*
G75*
G02*
X167956000Y-88049250I0J243750D01*
G01*
X167956000Y-87561750D01*
G75*
G02*
X168199750Y-87318000I243750J0D01*
G01*
G37*
G36*
G01*
X168199750Y-85443000D02*
X169112250Y-85443000D01*
G75*
G02*
X169356000Y-85686750I0J-243750D01*
G01*
X169356000Y-86174250D01*
G75*
G02*
X169112250Y-86418000I-243750J0D01*
G01*
X168199750Y-86418000D01*
G75*
G02*
X167956000Y-86174250I0J243750D01*
G01*
X167956000Y-85686750D01*
G75*
G02*
X168199750Y-85443000I243750J0D01*
G01*
G37*
%TD*%
%TO.C,F2*%
G36*
G01*
X168604250Y-72194000D02*
X167691750Y-72194000D01*
G75*
G02*
X167448000Y-71950250I0J243750D01*
G01*
X167448000Y-71462750D01*
G75*
G02*
X167691750Y-71219000I243750J0D01*
G01*
X168604250Y-71219000D01*
G75*
G02*
X168848000Y-71462750I0J-243750D01*
G01*
X168848000Y-71950250D01*
G75*
G02*
X168604250Y-72194000I-243750J0D01*
G01*
G37*
G36*
G01*
X168604250Y-74069000D02*
X167691750Y-74069000D01*
G75*
G02*
X167448000Y-73825250I0J243750D01*
G01*
X167448000Y-73337750D01*
G75*
G02*
X167691750Y-73094000I243750J0D01*
G01*
X168604250Y-73094000D01*
G75*
G02*
X168848000Y-73337750I0J-243750D01*
G01*
X168848000Y-73825250D01*
G75*
G02*
X168604250Y-74069000I-243750J0D01*
G01*
G37*
%TD*%
%TO.C,F1*%
G36*
G01*
X140833000Y-58407000D02*
X139583000Y-58407000D01*
G75*
G02*
X139333000Y-58157000I0J250000D01*
G01*
X139333000Y-57407000D01*
G75*
G02*
X139583000Y-57157000I250000J0D01*
G01*
X140833000Y-57157000D01*
G75*
G02*
X141083000Y-57407000I0J-250000D01*
G01*
X141083000Y-58157000D01*
G75*
G02*
X140833000Y-58407000I-250000J0D01*
G01*
G37*
G36*
G01*
X140833000Y-61207000D02*
X139583000Y-61207000D01*
G75*
G02*
X139333000Y-60957000I0J250000D01*
G01*
X139333000Y-60207000D01*
G75*
G02*
X139583000Y-59957000I250000J0D01*
G01*
X140833000Y-59957000D01*
G75*
G02*
X141083000Y-60207000I0J-250000D01*
G01*
X141083000Y-60957000D01*
G75*
G02*
X140833000Y-61207000I-250000J0D01*
G01*
G37*
%TD*%
M02*
