M48
; DRILL file {KiCad (5.1.8)-1} date 01/24/22 15:13:54
; FORMAT={-:-/ absolute / inch / decimal}
; #@! TF.CreationDate,2022-01-24T15:13:54-08:00
; #@! TF.GenerationSoftware,Kicad,Pcbnew,(5.1.8)-1
; #@! TF.FileFunction,Plated,1,4,PTH
FMAT,2
INCH
T1C0.0157
T2C0.0197
T3C0.0236
T4C0.0374
T5C0.0394
T6C0.0423
T7C0.0531
T8C0.0787
T9C0.0906
T10C0.0984
T11C0.1181
%
G90
G05
T1
X3.895Y-3.735
X4.23Y-3.53
X4.245Y-4.3
X4.375Y-3.525
X4.43Y-2.67
X4.46Y-2.1
X4.46Y-2.13
X4.5941Y-4.6659
X4.6Y-3.76
X4.6Y-4.3
X4.6Y-4.49
X4.605Y-4.1475
X4.61Y-3.91
X4.61Y-4.07
X4.7Y-2.6
X4.72Y-2.62
X4.84Y-3.81
X4.87Y-3.71
X4.94Y-3.85
X4.95Y-4.16
X5.05Y-4.515
X5.08Y-4.66
X5.085Y-4.89
X5.24Y-2.76
X5.31Y-4.885
X5.33Y-3.11
X5.41Y-2.49
X5.41Y-2.65
X5.43Y-2.47
X5.44Y-2.58
X5.47Y-3.11
X5.5812Y-2.9712
X5.64Y-2.91
X5.68Y-4.83
X5.69Y-3.15
X5.7Y-2.72
X5.7856Y-4.2144
X5.7872Y-3.8272
X5.7898Y-3.7302
X5.79Y-4.14
X5.81Y-2.94
X5.8115Y-3.0315
X5.8198Y-2.8598
X5.84Y-3.97
X5.84Y-4.25
X5.85Y-2.79
X5.85Y-4.5
X5.865Y-4.76
X5.88Y-4.01
X5.88Y-4.19
X5.92Y-4.37
X5.92Y-4.42
X5.9204Y-3.9296
X5.9232Y-4.3168
X5.9316Y-4.8084
X5.94Y-3.64
X5.95Y-2.42
X5.97Y-2.45
X5.99Y-4.44
X6.03Y-3.14
X6.1Y-3.28
X6.21Y-4.54
X6.21Y-4.81
X6.22Y-4.04
X6.27Y-3.44
X6.28Y-3.22
X6.31Y-2.82
X6.33Y-3.92
X6.36Y-2.64
X6.43Y-2.33
X6.43Y-2.47
X6.46Y-3.2
X6.49Y-2.9
X6.51Y-3.96
X6.52Y-4.65
X6.54Y-4.49
X6.56Y-3.34
X6.62Y-2.99
X6.72Y-3.93
T2
X6.145Y-2.23
X4.49Y-3.41
X5.5031Y-4.91
X5.5524Y-4.91
X5.6016Y-4.91
X5.6508Y-4.91
X5.7Y-4.91
X5.22Y-4.455
X4.645Y-2.8
X3.98Y-3.41
X4.36Y-4.95
X4.4092Y-4.95
X4.4584Y-4.95
X4.5076Y-4.95
X4.77Y-2.86
X3.925Y-3.58
X5.15Y-3.11
X4.49Y-3.21
T3
X6.82Y-2.1516
X6.82Y-2.2008
X6.82Y-2.25
X5.6Y-4.4016
X5.6Y-4.4508
X5.6Y-4.5
X5.6Y-3.6016
X5.6Y-3.6508
X5.6Y-3.7
X5.6Y-3.8608
X5.6Y-3.91
X5.6Y-3.9592
X6.83Y-2.4616
X6.83Y-2.5108
X6.83Y-2.56
X5.6Y-4.1316
X5.6Y-4.1808
X5.6Y-4.23
X5.6Y-4.6808
X5.6Y-4.73
T4
X6.41Y-4.74
X6.5084Y-4.74
X6.6069Y-4.74
X6.7053Y-4.74
X6.8037Y-4.74
X6.79Y-2.8213
X6.79Y-2.9197
X6.79Y-3.0181
X6.79Y-3.1166
X6.79Y-3.215
X6.79Y-3.4563
X6.79Y-3.5547
X6.79Y-3.6531
X6.79Y-3.7516
X6.79Y-3.85
X6.79Y-4.1013
X6.79Y-4.1997
X6.79Y-4.2981
X6.79Y-4.3966
X6.79Y-4.495
T5
X4.08Y-3.8
X4.08Y-3.9
X4.08Y-4.0
X4.08Y-4.1
X4.08Y-4.2
X4.18Y-3.8
X4.18Y-3.9
X4.18Y-4.0
X4.18Y-4.1
X4.18Y-4.2
X4.08Y-4.41
X4.08Y-4.51
X4.08Y-4.61
X4.08Y-4.71
X4.73Y-3.36
X4.73Y-3.46
X4.73Y-3.56
X4.73Y-3.66
X4.73Y-3.76
X4.73Y-3.86
X4.73Y-3.96
X4.73Y-4.06
X4.73Y-4.16
X4.73Y-4.26
X4.73Y-4.36
X4.73Y-4.46
X4.73Y-4.56
X4.73Y-4.66
X4.73Y-4.76
X5.33Y-3.36
X5.33Y-3.46
X5.33Y-3.56
X5.33Y-3.66
X5.33Y-3.76
X5.33Y-3.86
X5.33Y-3.96
X5.33Y-4.06
X5.33Y-4.16
X5.33Y-4.26
X5.33Y-4.36
X5.33Y-4.46
X5.33Y-4.56
X5.33Y-4.66
X5.33Y-4.76
T6
X3.95Y-2.6
X4.05Y-2.6
X4.15Y-2.6
X4.25Y-2.6
X5.67Y-2.12
X5.77Y-2.12
X5.87Y-2.12
X5.97Y-2.12
T7
X4.2206Y-2.2306
X4.2206Y-2.37
X4.2903Y-2.3003
X4.36Y-2.2306
X4.36Y-2.37
T8
X4.81Y-2.17
T9
X5.16Y-2.1538
T10
X4.9828Y-2.1144
X5.3372Y-2.1144
T11
X5.16Y-2.39
T0
M30
