%TF.GenerationSoftware,KiCad,Pcbnew,(5.1.8)-1*%
%TF.CreationDate,2022-01-24T15:12:58-08:00*%
%TF.ProjectId,BLE-33_baseboard,424c452d-3333-45f6-9261-7365626f6172,rev?*%
%TF.SameCoordinates,Original*%
%TF.FileFunction,Soldermask,Bot*%
%TF.FilePolarity,Negative*%
%FSLAX46Y46*%
G04 Gerber Fmt 4.6, Leading zero omitted, Abs format (unit mm)*
G04 Created by KiCad (PCBNEW (5.1.8)-1) date 2022-01-24 15:12:58*
%MOMM*%
%LPD*%
G01*
G04 APERTURE LIST*
%ADD10C,2.025000*%
%ADD11R,0.540000X0.940000*%
%ADD12R,0.940000X0.540000*%
%ADD13R,0.450000X0.600000*%
%ADD14C,1.000000*%
%ADD15C,1.200000*%
%ADD16O,1.700000X1.950000*%
%ADD17O,1.950000X1.700000*%
%ADD18O,1.700000X1.700000*%
%ADD19R,1.700000X1.700000*%
%ADD20R,0.700000X0.450000*%
%ADD21R,0.450000X0.700000*%
%ADD22C,3.000000*%
%ADD23C,2.200000*%
%ADD24O,1.400000X0.900000*%
%ADD25R,1.750000X2.250000*%
%ADD26O,1.750000X2.250000*%
%ADD27R,1.000000X0.400000*%
%ADD28R,1.200000X0.400000*%
%ADD29O,0.800000X1.300000*%
%ADD30C,1.600000*%
%ADD31C,3.500000*%
%ADD32C,3.300000*%
%ADD33R,4.000000X4.000000*%
%ADD34R,2.100000X1.400000*%
%ADD35R,1.400000X2.100000*%
%ADD36O,1.600000X1.600000*%
%ADD37R,1.600000X1.600000*%
G04 APERTURE END LIST*
D10*
%TO.C,J19*%
X108974000Y-58428000D03*
X110744000Y-56658000D03*
X107204000Y-56658000D03*
X107204000Y-60198000D03*
X110744000Y-60198000D03*
%TD*%
D11*
%TO.C,C15*%
X163614000Y-99314000D03*
X162014000Y-99314000D03*
%TD*%
%TO.C,C14*%
X165900000Y-78232000D03*
X164300000Y-78232000D03*
%TD*%
%TO.C,C13*%
X147028000Y-103378000D03*
X148628000Y-103378000D03*
%TD*%
%TO.C,C12*%
X132372000Y-120396000D03*
X130772000Y-120396000D03*
%TD*%
D12*
%TO.C,C11*%
X149098000Y-75400000D03*
X149098000Y-77000000D03*
%TD*%
D11*
%TO.C,C10*%
X148044000Y-92964000D03*
X149644000Y-92964000D03*
%TD*%
%TO.C,C7*%
X148628000Y-57150000D03*
X147028000Y-57150000D03*
%TD*%
D12*
%TO.C,C6*%
X130810000Y-86322000D03*
X130810000Y-87922000D03*
%TD*%
D11*
%TO.C,C5*%
X108547000Y-89535000D03*
X110147000Y-89535000D03*
%TD*%
D13*
%TO.C,D3*%
X167513000Y-65117000D03*
X167513000Y-67217000D03*
%TD*%
%TO.C,R24*%
G36*
G01*
X113527000Y-104657999D02*
X113527000Y-105908001D01*
G75*
G02*
X113277001Y-106158000I-249999J0D01*
G01*
X112651999Y-106158000D01*
G75*
G02*
X112402000Y-105908001I0J249999D01*
G01*
X112402000Y-104657999D01*
G75*
G02*
X112651999Y-104408000I249999J0D01*
G01*
X113277001Y-104408000D01*
G75*
G02*
X113527000Y-104657999I0J-249999D01*
G01*
G37*
G36*
G01*
X116452000Y-104657999D02*
X116452000Y-105908001D01*
G75*
G02*
X116202001Y-106158000I-249999J0D01*
G01*
X115576999Y-106158000D01*
G75*
G02*
X115327000Y-105908001I0J249999D01*
G01*
X115327000Y-104657999D01*
G75*
G02*
X115576999Y-104408000I249999J0D01*
G01*
X116202001Y-104408000D01*
G75*
G02*
X116452000Y-104657999I0J-249999D01*
G01*
G37*
%TD*%
%TO.C,R26*%
G36*
G01*
X112033000Y-121227001D02*
X112033000Y-120326999D01*
G75*
G02*
X112282999Y-120077000I249999J0D01*
G01*
X112808001Y-120077000D01*
G75*
G02*
X113058000Y-120326999I0J-249999D01*
G01*
X113058000Y-121227001D01*
G75*
G02*
X112808001Y-121477000I-249999J0D01*
G01*
X112282999Y-121477000D01*
G75*
G02*
X112033000Y-121227001I0J249999D01*
G01*
G37*
G36*
G01*
X110208000Y-121227001D02*
X110208000Y-120326999D01*
G75*
G02*
X110457999Y-120077000I249999J0D01*
G01*
X110983001Y-120077000D01*
G75*
G02*
X111233000Y-120326999I0J-249999D01*
G01*
X111233000Y-121227001D01*
G75*
G02*
X110983001Y-121477000I-249999J0D01*
G01*
X110457999Y-121477000D01*
G75*
G02*
X110208000Y-121227001I0J249999D01*
G01*
G37*
%TD*%
%TO.C,R22*%
G36*
G01*
X138626001Y-99930000D02*
X137725999Y-99930000D01*
G75*
G02*
X137476000Y-99680001I0J249999D01*
G01*
X137476000Y-99154999D01*
G75*
G02*
X137725999Y-98905000I249999J0D01*
G01*
X138626001Y-98905000D01*
G75*
G02*
X138876000Y-99154999I0J-249999D01*
G01*
X138876000Y-99680001D01*
G75*
G02*
X138626001Y-99930000I-249999J0D01*
G01*
G37*
G36*
G01*
X138626001Y-101755000D02*
X137725999Y-101755000D01*
G75*
G02*
X137476000Y-101505001I0J249999D01*
G01*
X137476000Y-100979999D01*
G75*
G02*
X137725999Y-100730000I249999J0D01*
G01*
X138626001Y-100730000D01*
G75*
G02*
X138876000Y-100979999I0J-249999D01*
G01*
X138876000Y-101505001D01*
G75*
G02*
X138626001Y-101755000I-249999J0D01*
G01*
G37*
%TD*%
D14*
%TO.C,TP9*%
X117983000Y-71120000D03*
%TD*%
%TO.C,TP3*%
X156083000Y-56642000D03*
%TD*%
%TO.C,R29*%
G36*
G01*
X132226000Y-124910001D02*
X132226000Y-124009999D01*
G75*
G02*
X132475999Y-123760000I249999J0D01*
G01*
X133001001Y-123760000D01*
G75*
G02*
X133251000Y-124009999I0J-249999D01*
G01*
X133251000Y-124910001D01*
G75*
G02*
X133001001Y-125160000I-249999J0D01*
G01*
X132475999Y-125160000D01*
G75*
G02*
X132226000Y-124910001I0J249999D01*
G01*
G37*
G36*
G01*
X130401000Y-124910001D02*
X130401000Y-124009999D01*
G75*
G02*
X130650999Y-123760000I249999J0D01*
G01*
X131176001Y-123760000D01*
G75*
G02*
X131426000Y-124009999I0J-249999D01*
G01*
X131426000Y-124910001D01*
G75*
G02*
X131176001Y-125160000I-249999J0D01*
G01*
X130650999Y-125160000D01*
G75*
G02*
X130401000Y-124910001I0J249999D01*
G01*
G37*
%TD*%
%TO.C,R28*%
G36*
G01*
X148786001Y-123679000D02*
X147885999Y-123679000D01*
G75*
G02*
X147636000Y-123429001I0J249999D01*
G01*
X147636000Y-122903999D01*
G75*
G02*
X147885999Y-122654000I249999J0D01*
G01*
X148786001Y-122654000D01*
G75*
G02*
X149036000Y-122903999I0J-249999D01*
G01*
X149036000Y-123429001D01*
G75*
G02*
X148786001Y-123679000I-249999J0D01*
G01*
G37*
G36*
G01*
X148786001Y-125504000D02*
X147885999Y-125504000D01*
G75*
G02*
X147636000Y-125254001I0J249999D01*
G01*
X147636000Y-124728999D01*
G75*
G02*
X147885999Y-124479000I249999J0D01*
G01*
X148786001Y-124479000D01*
G75*
G02*
X149036000Y-124728999I0J-249999D01*
G01*
X149036000Y-125254001D01*
G75*
G02*
X148786001Y-125504000I-249999J0D01*
G01*
G37*
%TD*%
%TO.C,R27*%
G36*
G01*
X145650000Y-120834999D02*
X145650000Y-121735001D01*
G75*
G02*
X145400001Y-121985000I-249999J0D01*
G01*
X144874999Y-121985000D01*
G75*
G02*
X144625000Y-121735001I0J249999D01*
G01*
X144625000Y-120834999D01*
G75*
G02*
X144874999Y-120585000I249999J0D01*
G01*
X145400001Y-120585000D01*
G75*
G02*
X145650000Y-120834999I0J-249999D01*
G01*
G37*
G36*
G01*
X147475000Y-120834999D02*
X147475000Y-121735001D01*
G75*
G02*
X147225001Y-121985000I-249999J0D01*
G01*
X146699999Y-121985000D01*
G75*
G02*
X146450000Y-121735001I0J249999D01*
G01*
X146450000Y-120834999D01*
G75*
G02*
X146699999Y-120585000I249999J0D01*
G01*
X147225001Y-120585000D01*
G75*
G02*
X147475000Y-120834999I0J-249999D01*
G01*
G37*
%TD*%
%TO.C,R25*%
G36*
G01*
X124949000Y-116516999D02*
X124949000Y-117417001D01*
G75*
G02*
X124699001Y-117667000I-249999J0D01*
G01*
X124173999Y-117667000D01*
G75*
G02*
X123924000Y-117417001I0J249999D01*
G01*
X123924000Y-116516999D01*
G75*
G02*
X124173999Y-116267000I249999J0D01*
G01*
X124699001Y-116267000D01*
G75*
G02*
X124949000Y-116516999I0J-249999D01*
G01*
G37*
G36*
G01*
X126774000Y-116516999D02*
X126774000Y-117417001D01*
G75*
G02*
X126524001Y-117667000I-249999J0D01*
G01*
X125998999Y-117667000D01*
G75*
G02*
X125749000Y-117417001I0J249999D01*
G01*
X125749000Y-116516999D01*
G75*
G02*
X125998999Y-116267000I249999J0D01*
G01*
X126524001Y-116267000D01*
G75*
G02*
X126774000Y-116516999I0J-249999D01*
G01*
G37*
%TD*%
%TO.C,R23*%
G36*
G01*
X138626001Y-94342000D02*
X137725999Y-94342000D01*
G75*
G02*
X137476000Y-94092001I0J249999D01*
G01*
X137476000Y-93566999D01*
G75*
G02*
X137725999Y-93317000I249999J0D01*
G01*
X138626001Y-93317000D01*
G75*
G02*
X138876000Y-93566999I0J-249999D01*
G01*
X138876000Y-94092001D01*
G75*
G02*
X138626001Y-94342000I-249999J0D01*
G01*
G37*
G36*
G01*
X138626001Y-96167000D02*
X137725999Y-96167000D01*
G75*
G02*
X137476000Y-95917001I0J249999D01*
G01*
X137476000Y-95391999D01*
G75*
G02*
X137725999Y-95142000I249999J0D01*
G01*
X138626001Y-95142000D01*
G75*
G02*
X138876000Y-95391999I0J-249999D01*
G01*
X138876000Y-95917001D01*
G75*
G02*
X138626001Y-96167000I-249999J0D01*
G01*
G37*
%TD*%
%TO.C,R21*%
G36*
G01*
X138626001Y-107296000D02*
X137725999Y-107296000D01*
G75*
G02*
X137476000Y-107046001I0J249999D01*
G01*
X137476000Y-106520999D01*
G75*
G02*
X137725999Y-106271000I249999J0D01*
G01*
X138626001Y-106271000D01*
G75*
G02*
X138876000Y-106520999I0J-249999D01*
G01*
X138876000Y-107046001D01*
G75*
G02*
X138626001Y-107296000I-249999J0D01*
G01*
G37*
G36*
G01*
X138626001Y-109121000D02*
X137725999Y-109121000D01*
G75*
G02*
X137476000Y-108871001I0J249999D01*
G01*
X137476000Y-108345999D01*
G75*
G02*
X137725999Y-108096000I249999J0D01*
G01*
X138626001Y-108096000D01*
G75*
G02*
X138876000Y-108345999I0J-249999D01*
G01*
X138876000Y-108871001D01*
G75*
G02*
X138626001Y-109121000I-249999J0D01*
G01*
G37*
%TD*%
%TO.C,R20*%
G36*
G01*
X138626001Y-113392000D02*
X137725999Y-113392000D01*
G75*
G02*
X137476000Y-113142001I0J249999D01*
G01*
X137476000Y-112616999D01*
G75*
G02*
X137725999Y-112367000I249999J0D01*
G01*
X138626001Y-112367000D01*
G75*
G02*
X138876000Y-112616999I0J-249999D01*
G01*
X138876000Y-113142001D01*
G75*
G02*
X138626001Y-113392000I-249999J0D01*
G01*
G37*
G36*
G01*
X138626001Y-115217000D02*
X137725999Y-115217000D01*
G75*
G02*
X137476000Y-114967001I0J249999D01*
G01*
X137476000Y-114441999D01*
G75*
G02*
X137725999Y-114192000I249999J0D01*
G01*
X138626001Y-114192000D01*
G75*
G02*
X138876000Y-114441999I0J-249999D01*
G01*
X138876000Y-114967001D01*
G75*
G02*
X138626001Y-115217000I-249999J0D01*
G01*
G37*
%TD*%
%TO.C,R19*%
G36*
G01*
X147085000Y-112845001D02*
X147085000Y-111944999D01*
G75*
G02*
X147334999Y-111695000I249999J0D01*
G01*
X147860001Y-111695000D01*
G75*
G02*
X148110000Y-111944999I0J-249999D01*
G01*
X148110000Y-112845001D01*
G75*
G02*
X147860001Y-113095000I-249999J0D01*
G01*
X147334999Y-113095000D01*
G75*
G02*
X147085000Y-112845001I0J249999D01*
G01*
G37*
G36*
G01*
X145260000Y-112845001D02*
X145260000Y-111944999D01*
G75*
G02*
X145509999Y-111695000I249999J0D01*
G01*
X146035001Y-111695000D01*
G75*
G02*
X146285000Y-111944999I0J-249999D01*
G01*
X146285000Y-112845001D01*
G75*
G02*
X146035001Y-113095000I-249999J0D01*
G01*
X145509999Y-113095000D01*
G75*
G02*
X145260000Y-112845001I0J249999D01*
G01*
G37*
%TD*%
%TO.C,TP2*%
X132588000Y-113157000D03*
%TD*%
D15*
%TO.C,J8*%
X161214000Y-122396000D03*
D16*
X172814000Y-120396000D03*
X170314000Y-120396000D03*
X167814000Y-120396000D03*
X165314000Y-120396000D03*
G36*
G01*
X161964000Y-121121000D02*
X161964000Y-119671000D01*
G75*
G02*
X162214000Y-119421000I250000J0D01*
G01*
X163414000Y-119421000D01*
G75*
G02*
X163664000Y-119671000I0J-250000D01*
G01*
X163664000Y-121121000D01*
G75*
G02*
X163414000Y-121371000I-250000J0D01*
G01*
X162214000Y-121371000D01*
G75*
G02*
X161964000Y-121121000I0J250000D01*
G01*
G37*
%TD*%
D15*
%TO.C,J7*%
X174466000Y-115773000D03*
D17*
X172466000Y-104173000D03*
X172466000Y-106673000D03*
X172466000Y-109173000D03*
X172466000Y-111673000D03*
G36*
G01*
X173191000Y-115023000D02*
X171741000Y-115023000D01*
G75*
G02*
X171491000Y-114773000I0J250000D01*
G01*
X171491000Y-113573000D01*
G75*
G02*
X171741000Y-113323000I250000J0D01*
G01*
X173191000Y-113323000D01*
G75*
G02*
X173441000Y-113573000I0J-250000D01*
G01*
X173441000Y-114773000D01*
G75*
G02*
X173191000Y-115023000I-250000J0D01*
G01*
G37*
%TD*%
D15*
%TO.C,J6*%
X174466000Y-99390000D03*
D17*
X172466000Y-87790000D03*
X172466000Y-90290000D03*
X172466000Y-92790000D03*
X172466000Y-95290000D03*
G36*
G01*
X173191000Y-98640000D02*
X171741000Y-98640000D01*
G75*
G02*
X171491000Y-98390000I0J250000D01*
G01*
X171491000Y-97190000D01*
G75*
G02*
X171741000Y-96940000I250000J0D01*
G01*
X173191000Y-96940000D01*
G75*
G02*
X173441000Y-97190000I0J-250000D01*
G01*
X173441000Y-98390000D01*
G75*
G02*
X173191000Y-98640000I-250000J0D01*
G01*
G37*
%TD*%
D15*
%TO.C,J5*%
X174466000Y-83261000D03*
D17*
X172466000Y-71661000D03*
X172466000Y-74161000D03*
X172466000Y-76661000D03*
X172466000Y-79161000D03*
G36*
G01*
X173191000Y-82511000D02*
X171741000Y-82511000D01*
G75*
G02*
X171491000Y-82261000I0J250000D01*
G01*
X171491000Y-81061000D01*
G75*
G02*
X171741000Y-80811000I250000J0D01*
G01*
X173191000Y-80811000D01*
G75*
G02*
X173441000Y-81061000I0J-250000D01*
G01*
X173441000Y-82261000D01*
G75*
G02*
X173191000Y-82511000I-250000J0D01*
G01*
G37*
%TD*%
D18*
%TO.C,J4*%
X103632000Y-112014000D03*
X103632000Y-114554000D03*
X103632000Y-117094000D03*
D19*
X103632000Y-119634000D03*
%TD*%
D20*
%TO.C,Q3*%
X110506000Y-93726000D03*
X112506000Y-94376000D03*
X112506000Y-93076000D03*
%TD*%
D21*
%TO.C,Q11*%
X128016000Y-103902000D03*
X127366000Y-105902000D03*
X128666000Y-105902000D03*
%TD*%
%TO.C,Q10*%
X127762000Y-95012000D03*
X127112000Y-97012000D03*
X128412000Y-97012000D03*
%TD*%
D20*
%TO.C,Q9*%
X145812000Y-118872000D03*
X147812000Y-119522000D03*
X147812000Y-118222000D03*
%TD*%
%TO.C,Q8*%
X110506000Y-108966000D03*
X112506000Y-109616000D03*
X112506000Y-108316000D03*
%TD*%
%TO.C,Q7*%
X110760000Y-117348000D03*
X112760000Y-117998000D03*
X112760000Y-116698000D03*
%TD*%
%TO.C,Q6*%
X110506000Y-113284000D03*
X112506000Y-113934000D03*
X112506000Y-112634000D03*
%TD*%
%TO.C,Q5*%
X110506000Y-102108000D03*
X112506000Y-102758000D03*
X112506000Y-101458000D03*
%TD*%
%TO.C,Q4*%
X110252000Y-98044000D03*
X112252000Y-98694000D03*
X112252000Y-97394000D03*
%TD*%
D22*
%TO.C,REF\u002A\u002A*%
X122174000Y-55118000D03*
%TD*%
D14*
%TO.C,TP8*%
X121158000Y-72644000D03*
%TD*%
%TO.C,TP7*%
X114046000Y-86614000D03*
%TD*%
%TO.C,TP6*%
X114046000Y-81534000D03*
%TD*%
%TO.C,TP5*%
X99695000Y-90932000D03*
%TD*%
%TO.C,TP4*%
X101092000Y-86614000D03*
%TD*%
D23*
%TO.C,REF\u002A\u002A*%
X160782000Y-126746000D03*
%TD*%
%TO.C,REF\u002A\u002A*%
X113030000Y-72898000D03*
%TD*%
%TO.C,REF\u002A\u002A*%
X128778000Y-72898000D03*
%TD*%
%TO.C,REF\u002A\u002A*%
X102362000Y-126746000D03*
%TD*%
%TO.C,REF\u002A\u002A*%
X160528000Y-55118000D03*
%TD*%
%TO.C,R18*%
G36*
G01*
X127616000Y-100895998D02*
X127616000Y-101796002D01*
G75*
G02*
X127366002Y-102046000I-249998J0D01*
G01*
X126840998Y-102046000D01*
G75*
G02*
X126591000Y-101796002I0J249998D01*
G01*
X126591000Y-100895998D01*
G75*
G02*
X126840998Y-100646000I249998J0D01*
G01*
X127366002Y-100646000D01*
G75*
G02*
X127616000Y-100895998I0J-249998D01*
G01*
G37*
G36*
G01*
X129441000Y-100895998D02*
X129441000Y-101796002D01*
G75*
G02*
X129191002Y-102046000I-249998J0D01*
G01*
X128665998Y-102046000D01*
G75*
G02*
X128416000Y-101796002I0J249998D01*
G01*
X128416000Y-100895998D01*
G75*
G02*
X128665998Y-100646000I249998J0D01*
G01*
X129191002Y-100646000D01*
G75*
G02*
X129441000Y-100895998I0J-249998D01*
G01*
G37*
%TD*%
%TO.C,R17*%
G36*
G01*
X127362000Y-92259998D02*
X127362000Y-93160002D01*
G75*
G02*
X127112002Y-93410000I-249998J0D01*
G01*
X126586998Y-93410000D01*
G75*
G02*
X126337000Y-93160002I0J249998D01*
G01*
X126337000Y-92259998D01*
G75*
G02*
X126586998Y-92010000I249998J0D01*
G01*
X127112002Y-92010000D01*
G75*
G02*
X127362000Y-92259998I0J-249998D01*
G01*
G37*
G36*
G01*
X129187000Y-92259998D02*
X129187000Y-93160002D01*
G75*
G02*
X128937002Y-93410000I-249998J0D01*
G01*
X128411998Y-93410000D01*
G75*
G02*
X128162000Y-93160002I0J249998D01*
G01*
X128162000Y-92259998D01*
G75*
G02*
X128411998Y-92010000I249998J0D01*
G01*
X128937002Y-92010000D01*
G75*
G02*
X129187000Y-92259998I0J-249998D01*
G01*
G37*
%TD*%
D18*
%TO.C,J3*%
X103632000Y-96520000D03*
X106172000Y-96520000D03*
X103632000Y-99060000D03*
X106172000Y-99060000D03*
X103632000Y-101600000D03*
X106172000Y-101600000D03*
X103632000Y-104140000D03*
X106172000Y-104140000D03*
X103632000Y-106680000D03*
D19*
X106172000Y-106680000D03*
%TD*%
%TO.C,R3*%
G36*
G01*
X114611998Y-102508000D02*
X115512002Y-102508000D01*
G75*
G02*
X115762000Y-102757998I0J-249998D01*
G01*
X115762000Y-103283002D01*
G75*
G02*
X115512002Y-103533000I-249998J0D01*
G01*
X114611998Y-103533000D01*
G75*
G02*
X114362000Y-103283002I0J249998D01*
G01*
X114362000Y-102757998D01*
G75*
G02*
X114611998Y-102508000I249998J0D01*
G01*
G37*
G36*
G01*
X114611998Y-100683000D02*
X115512002Y-100683000D01*
G75*
G02*
X115762000Y-100932998I0J-249998D01*
G01*
X115762000Y-101458002D01*
G75*
G02*
X115512002Y-101708000I-249998J0D01*
G01*
X114611998Y-101708000D01*
G75*
G02*
X114362000Y-101458002I0J249998D01*
G01*
X114362000Y-100932998D01*
G75*
G02*
X114611998Y-100683000I249998J0D01*
G01*
G37*
%TD*%
%TO.C,R16*%
G36*
G01*
X147061500Y-116782002D02*
X147061500Y-115881998D01*
G75*
G02*
X147311498Y-115632000I249998J0D01*
G01*
X147836502Y-115632000D01*
G75*
G02*
X148086500Y-115881998I0J-249998D01*
G01*
X148086500Y-116782002D01*
G75*
G02*
X147836502Y-117032000I-249998J0D01*
G01*
X147311498Y-117032000D01*
G75*
G02*
X147061500Y-116782002I0J249998D01*
G01*
G37*
G36*
G01*
X145236500Y-116782002D02*
X145236500Y-115881998D01*
G75*
G02*
X145486498Y-115632000I249998J0D01*
G01*
X146011502Y-115632000D01*
G75*
G02*
X146261500Y-115881998I0J-249998D01*
G01*
X146261500Y-116782002D01*
G75*
G02*
X146011502Y-117032000I-249998J0D01*
G01*
X145486498Y-117032000D01*
G75*
G02*
X145236500Y-116782002I0J249998D01*
G01*
G37*
%TD*%
%TO.C,R15*%
G36*
G01*
X106661000Y-69907998D02*
X106661000Y-70808002D01*
G75*
G02*
X106411002Y-71058000I-249998J0D01*
G01*
X105885998Y-71058000D01*
G75*
G02*
X105636000Y-70808002I0J249998D01*
G01*
X105636000Y-69907998D01*
G75*
G02*
X105885998Y-69658000I249998J0D01*
G01*
X106411002Y-69658000D01*
G75*
G02*
X106661000Y-69907998I0J-249998D01*
G01*
G37*
G36*
G01*
X108486000Y-69907998D02*
X108486000Y-70808002D01*
G75*
G02*
X108236002Y-71058000I-249998J0D01*
G01*
X107710998Y-71058000D01*
G75*
G02*
X107461000Y-70808002I0J249998D01*
G01*
X107461000Y-69907998D01*
G75*
G02*
X107710998Y-69658000I249998J0D01*
G01*
X108236002Y-69658000D01*
G75*
G02*
X108486000Y-69907998I0J-249998D01*
G01*
G37*
%TD*%
%TO.C,R14*%
G36*
G01*
X151238000Y-57207998D02*
X151238000Y-58108002D01*
G75*
G02*
X150988002Y-58358000I-249998J0D01*
G01*
X150462998Y-58358000D01*
G75*
G02*
X150213000Y-58108002I0J249998D01*
G01*
X150213000Y-57207998D01*
G75*
G02*
X150462998Y-56958000I249998J0D01*
G01*
X150988002Y-56958000D01*
G75*
G02*
X151238000Y-57207998I0J-249998D01*
G01*
G37*
G36*
G01*
X153063000Y-57207998D02*
X153063000Y-58108002D01*
G75*
G02*
X152813002Y-58358000I-249998J0D01*
G01*
X152287998Y-58358000D01*
G75*
G02*
X152038000Y-58108002I0J249998D01*
G01*
X152038000Y-57207998D01*
G75*
G02*
X152287998Y-56958000I249998J0D01*
G01*
X152813002Y-56958000D01*
G75*
G02*
X153063000Y-57207998I0J-249998D01*
G01*
G37*
%TD*%
%TO.C,R13*%
G36*
G01*
X158184002Y-82404000D02*
X157283998Y-82404000D01*
G75*
G02*
X157034000Y-82154002I0J249998D01*
G01*
X157034000Y-81628998D01*
G75*
G02*
X157283998Y-81379000I249998J0D01*
G01*
X158184002Y-81379000D01*
G75*
G02*
X158434000Y-81628998I0J-249998D01*
G01*
X158434000Y-82154002D01*
G75*
G02*
X158184002Y-82404000I-249998J0D01*
G01*
G37*
G36*
G01*
X158184002Y-84229000D02*
X157283998Y-84229000D01*
G75*
G02*
X157034000Y-83979002I0J249998D01*
G01*
X157034000Y-83453998D01*
G75*
G02*
X157283998Y-83204000I249998J0D01*
G01*
X158184002Y-83204000D01*
G75*
G02*
X158434000Y-83453998I0J-249998D01*
G01*
X158434000Y-83979002D01*
G75*
G02*
X158184002Y-84229000I-249998J0D01*
G01*
G37*
%TD*%
%TO.C,R12*%
G36*
G01*
X114865998Y-109112000D02*
X115766002Y-109112000D01*
G75*
G02*
X116016000Y-109361998I0J-249998D01*
G01*
X116016000Y-109887002D01*
G75*
G02*
X115766002Y-110137000I-249998J0D01*
G01*
X114865998Y-110137000D01*
G75*
G02*
X114616000Y-109887002I0J249998D01*
G01*
X114616000Y-109361998D01*
G75*
G02*
X114865998Y-109112000I249998J0D01*
G01*
G37*
G36*
G01*
X114865998Y-107287000D02*
X115766002Y-107287000D01*
G75*
G02*
X116016000Y-107536998I0J-249998D01*
G01*
X116016000Y-108062002D01*
G75*
G02*
X115766002Y-108312000I-249998J0D01*
G01*
X114865998Y-108312000D01*
G75*
G02*
X114616000Y-108062002I0J249998D01*
G01*
X114616000Y-107536998D01*
G75*
G02*
X114865998Y-107287000I249998J0D01*
G01*
G37*
%TD*%
%TO.C,R11*%
G36*
G01*
X114865998Y-118002000D02*
X115766002Y-118002000D01*
G75*
G02*
X116016000Y-118251998I0J-249998D01*
G01*
X116016000Y-118777002D01*
G75*
G02*
X115766002Y-119027000I-249998J0D01*
G01*
X114865998Y-119027000D01*
G75*
G02*
X114616000Y-118777002I0J249998D01*
G01*
X114616000Y-118251998D01*
G75*
G02*
X114865998Y-118002000I249998J0D01*
G01*
G37*
G36*
G01*
X114865998Y-116177000D02*
X115766002Y-116177000D01*
G75*
G02*
X116016000Y-116426998I0J-249998D01*
G01*
X116016000Y-116952002D01*
G75*
G02*
X115766002Y-117202000I-249998J0D01*
G01*
X114865998Y-117202000D01*
G75*
G02*
X114616000Y-116952002I0J249998D01*
G01*
X114616000Y-116426998D01*
G75*
G02*
X114865998Y-116177000I249998J0D01*
G01*
G37*
%TD*%
%TO.C,R10*%
G36*
G01*
X114865998Y-113684000D02*
X115766002Y-113684000D01*
G75*
G02*
X116016000Y-113933998I0J-249998D01*
G01*
X116016000Y-114459002D01*
G75*
G02*
X115766002Y-114709000I-249998J0D01*
G01*
X114865998Y-114709000D01*
G75*
G02*
X114616000Y-114459002I0J249998D01*
G01*
X114616000Y-113933998D01*
G75*
G02*
X114865998Y-113684000I249998J0D01*
G01*
G37*
G36*
G01*
X114865998Y-111859000D02*
X115766002Y-111859000D01*
G75*
G02*
X116016000Y-112108998I0J-249998D01*
G01*
X116016000Y-112634002D01*
G75*
G02*
X115766002Y-112884000I-249998J0D01*
G01*
X114865998Y-112884000D01*
G75*
G02*
X114616000Y-112634002I0J249998D01*
G01*
X114616000Y-112108998D01*
G75*
G02*
X114865998Y-111859000I249998J0D01*
G01*
G37*
%TD*%
%TO.C,R8*%
G36*
G01*
X155048000Y-118421998D02*
X155048000Y-119322002D01*
G75*
G02*
X154798002Y-119572000I-249998J0D01*
G01*
X154272998Y-119572000D01*
G75*
G02*
X154023000Y-119322002I0J249998D01*
G01*
X154023000Y-118421998D01*
G75*
G02*
X154272998Y-118172000I249998J0D01*
G01*
X154798002Y-118172000D01*
G75*
G02*
X155048000Y-118421998I0J-249998D01*
G01*
G37*
G36*
G01*
X156873000Y-118421998D02*
X156873000Y-119322002D01*
G75*
G02*
X156623002Y-119572000I-249998J0D01*
G01*
X156097998Y-119572000D01*
G75*
G02*
X155848000Y-119322002I0J249998D01*
G01*
X155848000Y-118421998D01*
G75*
G02*
X156097998Y-118172000I249998J0D01*
G01*
X156623002Y-118172000D01*
G75*
G02*
X156873000Y-118421998I0J-249998D01*
G01*
G37*
%TD*%
%TO.C,R6*%
G36*
G01*
X155048000Y-114865998D02*
X155048000Y-115766002D01*
G75*
G02*
X154798002Y-116016000I-249998J0D01*
G01*
X154272998Y-116016000D01*
G75*
G02*
X154023000Y-115766002I0J249998D01*
G01*
X154023000Y-114865998D01*
G75*
G02*
X154272998Y-114616000I249998J0D01*
G01*
X154798002Y-114616000D01*
G75*
G02*
X155048000Y-114865998I0J-249998D01*
G01*
G37*
G36*
G01*
X156873000Y-114865998D02*
X156873000Y-115766002D01*
G75*
G02*
X156623002Y-116016000I-249998J0D01*
G01*
X156097998Y-116016000D01*
G75*
G02*
X155848000Y-115766002I0J249998D01*
G01*
X155848000Y-114865998D01*
G75*
G02*
X156097998Y-114616000I249998J0D01*
G01*
X156623002Y-114616000D01*
G75*
G02*
X156873000Y-114865998I0J-249998D01*
G01*
G37*
%TD*%
%TO.C,R4*%
G36*
G01*
X155048000Y-120961998D02*
X155048000Y-121862002D01*
G75*
G02*
X154798002Y-122112000I-249998J0D01*
G01*
X154272998Y-122112000D01*
G75*
G02*
X154023000Y-121862002I0J249998D01*
G01*
X154023000Y-120961998D01*
G75*
G02*
X154272998Y-120712000I249998J0D01*
G01*
X154798002Y-120712000D01*
G75*
G02*
X155048000Y-120961998I0J-249998D01*
G01*
G37*
G36*
G01*
X156873000Y-120961998D02*
X156873000Y-121862002D01*
G75*
G02*
X156623002Y-122112000I-249998J0D01*
G01*
X156097998Y-122112000D01*
G75*
G02*
X155848000Y-121862002I0J249998D01*
G01*
X155848000Y-120961998D01*
G75*
G02*
X156097998Y-120712000I249998J0D01*
G01*
X156623002Y-120712000D01*
G75*
G02*
X156873000Y-120961998I0J-249998D01*
G01*
G37*
%TD*%
%TO.C,R2*%
G36*
G01*
X114611998Y-98698000D02*
X115512002Y-98698000D01*
G75*
G02*
X115762000Y-98947998I0J-249998D01*
G01*
X115762000Y-99473002D01*
G75*
G02*
X115512002Y-99723000I-249998J0D01*
G01*
X114611998Y-99723000D01*
G75*
G02*
X114362000Y-99473002I0J249998D01*
G01*
X114362000Y-98947998D01*
G75*
G02*
X114611998Y-98698000I249998J0D01*
G01*
G37*
G36*
G01*
X114611998Y-96873000D02*
X115512002Y-96873000D01*
G75*
G02*
X115762000Y-97122998I0J-249998D01*
G01*
X115762000Y-97648002D01*
G75*
G02*
X115512002Y-97898000I-249998J0D01*
G01*
X114611998Y-97898000D01*
G75*
G02*
X114362000Y-97648002I0J249998D01*
G01*
X114362000Y-97122998D01*
G75*
G02*
X114611998Y-96873000I249998J0D01*
G01*
G37*
%TD*%
%TO.C,R1*%
G36*
G01*
X114611998Y-94380000D02*
X115512002Y-94380000D01*
G75*
G02*
X115762000Y-94629998I0J-249998D01*
G01*
X115762000Y-95155002D01*
G75*
G02*
X115512002Y-95405000I-249998J0D01*
G01*
X114611998Y-95405000D01*
G75*
G02*
X114362000Y-95155002I0J249998D01*
G01*
X114362000Y-94629998D01*
G75*
G02*
X114611998Y-94380000I249998J0D01*
G01*
G37*
G36*
G01*
X114611998Y-92555000D02*
X115512002Y-92555000D01*
G75*
G02*
X115762000Y-92804998I0J-249998D01*
G01*
X115762000Y-93330002D01*
G75*
G02*
X115512002Y-93580000I-249998J0D01*
G01*
X114611998Y-93580000D01*
G75*
G02*
X114362000Y-93330002I0J249998D01*
G01*
X114362000Y-92804998D01*
G75*
G02*
X114611998Y-92555000I249998J0D01*
G01*
G37*
%TD*%
%TO.C,C20*%
G36*
G01*
X165158000Y-82329000D02*
X165158000Y-83279000D01*
G75*
G02*
X164908000Y-83529000I-250000J0D01*
G01*
X164408000Y-83529000D01*
G75*
G02*
X164158000Y-83279000I0J250000D01*
G01*
X164158000Y-82329000D01*
G75*
G02*
X164408000Y-82079000I250000J0D01*
G01*
X164908000Y-82079000D01*
G75*
G02*
X165158000Y-82329000I0J-250000D01*
G01*
G37*
G36*
G01*
X167058000Y-82329000D02*
X167058000Y-83279000D01*
G75*
G02*
X166808000Y-83529000I-250000J0D01*
G01*
X166308000Y-83529000D01*
G75*
G02*
X166058000Y-83279000I0J250000D01*
G01*
X166058000Y-82329000D01*
G75*
G02*
X166308000Y-82079000I250000J0D01*
G01*
X166808000Y-82079000D01*
G75*
G02*
X167058000Y-82329000I0J-250000D01*
G01*
G37*
%TD*%
%TO.C,C19*%
G36*
G01*
X165067000Y-115120000D02*
X164117000Y-115120000D01*
G75*
G02*
X163867000Y-114870000I0J250000D01*
G01*
X163867000Y-114370000D01*
G75*
G02*
X164117000Y-114120000I250000J0D01*
G01*
X165067000Y-114120000D01*
G75*
G02*
X165317000Y-114370000I0J-250000D01*
G01*
X165317000Y-114870000D01*
G75*
G02*
X165067000Y-115120000I-250000J0D01*
G01*
G37*
G36*
G01*
X165067000Y-117020000D02*
X164117000Y-117020000D01*
G75*
G02*
X163867000Y-116770000I0J250000D01*
G01*
X163867000Y-116270000D01*
G75*
G02*
X164117000Y-116020000I250000J0D01*
G01*
X165067000Y-116020000D01*
G75*
G02*
X165317000Y-116270000I0J-250000D01*
G01*
X165317000Y-116770000D01*
G75*
G02*
X165067000Y-117020000I-250000J0D01*
G01*
G37*
%TD*%
%TO.C,C18*%
G36*
G01*
X168344000Y-99789000D02*
X168344000Y-98839000D01*
G75*
G02*
X168594000Y-98589000I250000J0D01*
G01*
X169094000Y-98589000D01*
G75*
G02*
X169344000Y-98839000I0J-250000D01*
G01*
X169344000Y-99789000D01*
G75*
G02*
X169094000Y-100039000I-250000J0D01*
G01*
X168594000Y-100039000D01*
G75*
G02*
X168344000Y-99789000I0J250000D01*
G01*
G37*
G36*
G01*
X166444000Y-99789000D02*
X166444000Y-98839000D01*
G75*
G02*
X166694000Y-98589000I250000J0D01*
G01*
X167194000Y-98589000D01*
G75*
G02*
X167444000Y-98839000I0J-250000D01*
G01*
X167444000Y-99789000D01*
G75*
G02*
X167194000Y-100039000I-250000J0D01*
G01*
X166694000Y-100039000D01*
G75*
G02*
X166444000Y-99789000I0J250000D01*
G01*
G37*
%TD*%
%TO.C,C17*%
G36*
G01*
X164650000Y-75217000D02*
X164650000Y-76167000D01*
G75*
G02*
X164400000Y-76417000I-250000J0D01*
G01*
X163900000Y-76417000D01*
G75*
G02*
X163650000Y-76167000I0J250000D01*
G01*
X163650000Y-75217000D01*
G75*
G02*
X163900000Y-74967000I250000J0D01*
G01*
X164400000Y-74967000D01*
G75*
G02*
X164650000Y-75217000I0J-250000D01*
G01*
G37*
G36*
G01*
X166550000Y-75217000D02*
X166550000Y-76167000D01*
G75*
G02*
X166300000Y-76417000I-250000J0D01*
G01*
X165800000Y-76417000D01*
G75*
G02*
X165550000Y-76167000I0J250000D01*
G01*
X165550000Y-75217000D01*
G75*
G02*
X165800000Y-74967000I250000J0D01*
G01*
X166300000Y-74967000D01*
G75*
G02*
X166550000Y-75217000I0J-250000D01*
G01*
G37*
%TD*%
%TO.C,C16*%
G36*
G01*
X131122000Y-117889000D02*
X131122000Y-118839000D01*
G75*
G02*
X130872000Y-119089000I-250000J0D01*
G01*
X130372000Y-119089000D01*
G75*
G02*
X130122000Y-118839000I0J250000D01*
G01*
X130122000Y-117889000D01*
G75*
G02*
X130372000Y-117639000I250000J0D01*
G01*
X130872000Y-117639000D01*
G75*
G02*
X131122000Y-117889000I0J-250000D01*
G01*
G37*
G36*
G01*
X133022000Y-117889000D02*
X133022000Y-118839000D01*
G75*
G02*
X132772000Y-119089000I-250000J0D01*
G01*
X132272000Y-119089000D01*
G75*
G02*
X132022000Y-118839000I0J250000D01*
G01*
X132022000Y-117889000D01*
G75*
G02*
X132272000Y-117639000I250000J0D01*
G01*
X132772000Y-117639000D01*
G75*
G02*
X133022000Y-117889000I0J-250000D01*
G01*
G37*
%TD*%
%TO.C,C9*%
G36*
G01*
X132367000Y-87318000D02*
X133317000Y-87318000D01*
G75*
G02*
X133567000Y-87568000I0J-250000D01*
G01*
X133567000Y-88068000D01*
G75*
G02*
X133317000Y-88318000I-250000J0D01*
G01*
X132367000Y-88318000D01*
G75*
G02*
X132117000Y-88068000I0J250000D01*
G01*
X132117000Y-87568000D01*
G75*
G02*
X132367000Y-87318000I250000J0D01*
G01*
G37*
G36*
G01*
X132367000Y-85418000D02*
X133317000Y-85418000D01*
G75*
G02*
X133567000Y-85668000I0J-250000D01*
G01*
X133567000Y-86168000D01*
G75*
G02*
X133317000Y-86418000I-250000J0D01*
G01*
X132367000Y-86418000D01*
G75*
G02*
X132117000Y-86168000I0J250000D01*
G01*
X132117000Y-85668000D01*
G75*
G02*
X132367000Y-85418000I250000J0D01*
G01*
G37*
%TD*%
%TO.C,C8*%
G36*
G01*
X147378000Y-59215000D02*
X147378000Y-60165000D01*
G75*
G02*
X147128000Y-60415000I-250000J0D01*
G01*
X146628000Y-60415000D01*
G75*
G02*
X146378000Y-60165000I0J250000D01*
G01*
X146378000Y-59215000D01*
G75*
G02*
X146628000Y-58965000I250000J0D01*
G01*
X147128000Y-58965000D01*
G75*
G02*
X147378000Y-59215000I0J-250000D01*
G01*
G37*
G36*
G01*
X149278000Y-59215000D02*
X149278000Y-60165000D01*
G75*
G02*
X149028000Y-60415000I-250000J0D01*
G01*
X148528000Y-60415000D01*
G75*
G02*
X148278000Y-60165000I0J250000D01*
G01*
X148278000Y-59215000D01*
G75*
G02*
X148528000Y-58965000I250000J0D01*
G01*
X149028000Y-58965000D01*
G75*
G02*
X149278000Y-59215000I0J-250000D01*
G01*
G37*
%TD*%
%TO.C,C4*%
G36*
G01*
X141790000Y-67597000D02*
X141790000Y-68547000D01*
G75*
G02*
X141540000Y-68797000I-250000J0D01*
G01*
X141040000Y-68797000D01*
G75*
G02*
X140790000Y-68547000I0J250000D01*
G01*
X140790000Y-67597000D01*
G75*
G02*
X141040000Y-67347000I250000J0D01*
G01*
X141540000Y-67347000D01*
G75*
G02*
X141790000Y-67597000I0J-250000D01*
G01*
G37*
G36*
G01*
X143690000Y-67597000D02*
X143690000Y-68547000D01*
G75*
G02*
X143440000Y-68797000I-250000J0D01*
G01*
X142940000Y-68797000D01*
G75*
G02*
X142690000Y-68547000I0J250000D01*
G01*
X142690000Y-67597000D01*
G75*
G02*
X142940000Y-67347000I250000J0D01*
G01*
X143440000Y-67347000D01*
G75*
G02*
X143690000Y-67597000I0J-250000D01*
G01*
G37*
%TD*%
%TO.C,C3*%
G36*
G01*
X142436000Y-78961000D02*
X142436000Y-78011000D01*
G75*
G02*
X142686000Y-77761000I250000J0D01*
G01*
X143186000Y-77761000D01*
G75*
G02*
X143436000Y-78011000I0J-250000D01*
G01*
X143436000Y-78961000D01*
G75*
G02*
X143186000Y-79211000I-250000J0D01*
G01*
X142686000Y-79211000D01*
G75*
G02*
X142436000Y-78961000I0J250000D01*
G01*
G37*
G36*
G01*
X140536000Y-78961000D02*
X140536000Y-78011000D01*
G75*
G02*
X140786000Y-77761000I250000J0D01*
G01*
X141286000Y-77761000D01*
G75*
G02*
X141536000Y-78011000I0J-250000D01*
G01*
X141536000Y-78961000D01*
G75*
G02*
X141286000Y-79211000I-250000J0D01*
G01*
X140786000Y-79211000D01*
G75*
G02*
X140536000Y-78961000I0J250000D01*
G01*
G37*
%TD*%
%TO.C,C2*%
G36*
G01*
X136619000Y-70924000D02*
X135669000Y-70924000D01*
G75*
G02*
X135419000Y-70674000I0J250000D01*
G01*
X135419000Y-70174000D01*
G75*
G02*
X135669000Y-69924000I250000J0D01*
G01*
X136619000Y-69924000D01*
G75*
G02*
X136869000Y-70174000I0J-250000D01*
G01*
X136869000Y-70674000D01*
G75*
G02*
X136619000Y-70924000I-250000J0D01*
G01*
G37*
G36*
G01*
X136619000Y-72824000D02*
X135669000Y-72824000D01*
G75*
G02*
X135419000Y-72574000I0J250000D01*
G01*
X135419000Y-72074000D01*
G75*
G02*
X135669000Y-71824000I250000J0D01*
G01*
X136619000Y-71824000D01*
G75*
G02*
X136869000Y-72074000I0J-250000D01*
G01*
X136869000Y-72574000D01*
G75*
G02*
X136619000Y-72824000I-250000J0D01*
G01*
G37*
%TD*%
D24*
%TO.C,J1*%
X142240000Y-118892000D03*
G36*
G01*
X142715000Y-120592000D02*
X141765000Y-120592000D01*
G75*
G02*
X141540000Y-120367000I0J225000D01*
G01*
X141540000Y-119917000D01*
G75*
G02*
X141765000Y-119692000I225000J0D01*
G01*
X142715000Y-119692000D01*
G75*
G02*
X142940000Y-119917000I0J-225000D01*
G01*
X142940000Y-120367000D01*
G75*
G02*
X142715000Y-120592000I-225000J0D01*
G01*
G37*
%TD*%
D14*
%TO.C,TP1*%
X130810000Y-78994000D03*
%TD*%
D25*
%TO.C,PS1*%
X151638000Y-53848000D03*
D26*
X149098000Y-53848000D03*
X146558000Y-53848000D03*
X144018000Y-53848000D03*
%TD*%
D25*
%TO.C,PS2*%
X107950000Y-66040000D03*
D26*
X105410000Y-66040000D03*
X102870000Y-66040000D03*
X100330000Y-66040000D03*
%TD*%
%TO.C,C1*%
G36*
G01*
X136619000Y-74734000D02*
X135669000Y-74734000D01*
G75*
G02*
X135419000Y-74484000I0J250000D01*
G01*
X135419000Y-73984000D01*
G75*
G02*
X135669000Y-73734000I250000J0D01*
G01*
X136619000Y-73734000D01*
G75*
G02*
X136869000Y-73984000I0J-250000D01*
G01*
X136869000Y-74484000D01*
G75*
G02*
X136619000Y-74734000I-250000J0D01*
G01*
G37*
G36*
G01*
X136619000Y-76634000D02*
X135669000Y-76634000D01*
G75*
G02*
X135419000Y-76384000I0J250000D01*
G01*
X135419000Y-75884000D01*
G75*
G02*
X135669000Y-75634000I250000J0D01*
G01*
X136619000Y-75634000D01*
G75*
G02*
X136869000Y-75884000I0J-250000D01*
G01*
X136869000Y-76384000D01*
G75*
G02*
X136619000Y-76634000I-250000J0D01*
G01*
G37*
%TD*%
D27*
%TO.C,U6*%
X145796000Y-105096000D03*
X145796000Y-105746000D03*
X145796000Y-106396000D03*
X145796000Y-107046000D03*
X145796000Y-107696000D03*
X145796000Y-108346000D03*
X145796000Y-108996000D03*
X145796000Y-109646000D03*
X151596000Y-109646000D03*
X151596000Y-108996000D03*
X151596000Y-108346000D03*
X151596000Y-107696000D03*
X151596000Y-107046000D03*
X151596000Y-106396000D03*
X151596000Y-105746000D03*
X151596000Y-105096000D03*
%TD*%
%TO.C,U5*%
X145690000Y-95261000D03*
X145690000Y-95911000D03*
X145690000Y-96561000D03*
X145690000Y-97211000D03*
X145690000Y-97861000D03*
X145690000Y-98511000D03*
X145690000Y-99161000D03*
X145690000Y-99811000D03*
X151490000Y-99811000D03*
X151490000Y-99161000D03*
X151490000Y-98511000D03*
X151490000Y-97861000D03*
X151490000Y-97211000D03*
X151490000Y-96561000D03*
X151490000Y-95911000D03*
X151490000Y-95261000D03*
%TD*%
%TO.C,U4*%
G36*
G01*
X152713000Y-115223000D02*
X152513000Y-115223000D01*
G75*
G02*
X152413000Y-115123000I0J100000D01*
G01*
X152413000Y-113848000D01*
G75*
G02*
X152513000Y-113748000I100000J0D01*
G01*
X152713000Y-113748000D01*
G75*
G02*
X152813000Y-113848000I0J-100000D01*
G01*
X152813000Y-115123000D01*
G75*
G02*
X152713000Y-115223000I-100000J0D01*
G01*
G37*
G36*
G01*
X152063000Y-115223000D02*
X151863000Y-115223000D01*
G75*
G02*
X151763000Y-115123000I0J100000D01*
G01*
X151763000Y-113848000D01*
G75*
G02*
X151863000Y-113748000I100000J0D01*
G01*
X152063000Y-113748000D01*
G75*
G02*
X152163000Y-113848000I0J-100000D01*
G01*
X152163000Y-115123000D01*
G75*
G02*
X152063000Y-115223000I-100000J0D01*
G01*
G37*
G36*
G01*
X151413000Y-115223000D02*
X151213000Y-115223000D01*
G75*
G02*
X151113000Y-115123000I0J100000D01*
G01*
X151113000Y-113848000D01*
G75*
G02*
X151213000Y-113748000I100000J0D01*
G01*
X151413000Y-113748000D01*
G75*
G02*
X151513000Y-113848000I0J-100000D01*
G01*
X151513000Y-115123000D01*
G75*
G02*
X151413000Y-115223000I-100000J0D01*
G01*
G37*
G36*
G01*
X150763000Y-115223000D02*
X150563000Y-115223000D01*
G75*
G02*
X150463000Y-115123000I0J100000D01*
G01*
X150463000Y-113848000D01*
G75*
G02*
X150563000Y-113748000I100000J0D01*
G01*
X150763000Y-113748000D01*
G75*
G02*
X150863000Y-113848000I0J-100000D01*
G01*
X150863000Y-115123000D01*
G75*
G02*
X150763000Y-115223000I-100000J0D01*
G01*
G37*
G36*
G01*
X150763000Y-120948000D02*
X150563000Y-120948000D01*
G75*
G02*
X150463000Y-120848000I0J100000D01*
G01*
X150463000Y-119573000D01*
G75*
G02*
X150563000Y-119473000I100000J0D01*
G01*
X150763000Y-119473000D01*
G75*
G02*
X150863000Y-119573000I0J-100000D01*
G01*
X150863000Y-120848000D01*
G75*
G02*
X150763000Y-120948000I-100000J0D01*
G01*
G37*
G36*
G01*
X151413000Y-120948000D02*
X151213000Y-120948000D01*
G75*
G02*
X151113000Y-120848000I0J100000D01*
G01*
X151113000Y-119573000D01*
G75*
G02*
X151213000Y-119473000I100000J0D01*
G01*
X151413000Y-119473000D01*
G75*
G02*
X151513000Y-119573000I0J-100000D01*
G01*
X151513000Y-120848000D01*
G75*
G02*
X151413000Y-120948000I-100000J0D01*
G01*
G37*
G36*
G01*
X152063000Y-120948000D02*
X151863000Y-120948000D01*
G75*
G02*
X151763000Y-120848000I0J100000D01*
G01*
X151763000Y-119573000D01*
G75*
G02*
X151863000Y-119473000I100000J0D01*
G01*
X152063000Y-119473000D01*
G75*
G02*
X152163000Y-119573000I0J-100000D01*
G01*
X152163000Y-120848000D01*
G75*
G02*
X152063000Y-120948000I-100000J0D01*
G01*
G37*
G36*
G01*
X152713000Y-120948000D02*
X152513000Y-120948000D01*
G75*
G02*
X152413000Y-120848000I0J100000D01*
G01*
X152413000Y-119573000D01*
G75*
G02*
X152513000Y-119473000I100000J0D01*
G01*
X152713000Y-119473000D01*
G75*
G02*
X152813000Y-119573000I0J-100000D01*
G01*
X152813000Y-120848000D01*
G75*
G02*
X152713000Y-120948000I-100000J0D01*
G01*
G37*
%TD*%
D28*
%TO.C,U3*%
X145690000Y-75427000D03*
X145690000Y-74777000D03*
X145690000Y-74127000D03*
X145690000Y-73477000D03*
X145690000Y-72827000D03*
X145690000Y-72177000D03*
X145690000Y-71527000D03*
X145690000Y-70877000D03*
X138790000Y-70877000D03*
X138790000Y-71527000D03*
X138790000Y-72177000D03*
X138790000Y-72827000D03*
X138790000Y-73477000D03*
X138790000Y-74127000D03*
X138790000Y-74777000D03*
X138790000Y-75427000D03*
%TD*%
%TO.C,Q2*%
G36*
G01*
X166228000Y-112892000D02*
X164228000Y-112892000D01*
G75*
G02*
X164158000Y-112822000I0J70000D01*
G01*
X164158000Y-112222000D01*
G75*
G02*
X164228000Y-112152000I70000J0D01*
G01*
X166228000Y-112152000D01*
G75*
G02*
X166298000Y-112222000I0J-70000D01*
G01*
X166298000Y-112822000D01*
G75*
G02*
X166228000Y-112892000I-70000J0D01*
G01*
G37*
G36*
G01*
X166228000Y-111622000D02*
X164228000Y-111622000D01*
G75*
G02*
X164158000Y-111552000I0J70000D01*
G01*
X164158000Y-110952000D01*
G75*
G02*
X164228000Y-110882000I70000J0D01*
G01*
X166228000Y-110882000D01*
G75*
G02*
X166298000Y-110952000I0J-70000D01*
G01*
X166298000Y-111552000D01*
G75*
G02*
X166228000Y-111622000I-70000J0D01*
G01*
G37*
G36*
G01*
X166228000Y-110352000D02*
X164228000Y-110352000D01*
G75*
G02*
X164158000Y-110282000I0J70000D01*
G01*
X164158000Y-109682000D01*
G75*
G02*
X164228000Y-109612000I70000J0D01*
G01*
X166228000Y-109612000D01*
G75*
G02*
X166298000Y-109682000I0J-70000D01*
G01*
X166298000Y-110282000D01*
G75*
G02*
X166228000Y-110352000I-70000J0D01*
G01*
G37*
G36*
G01*
X166228000Y-109082000D02*
X164228000Y-109082000D01*
G75*
G02*
X164158000Y-109012000I0J70000D01*
G01*
X164158000Y-108412000D01*
G75*
G02*
X164228000Y-108342000I70000J0D01*
G01*
X166228000Y-108342000D01*
G75*
G02*
X166298000Y-108412000I0J-70000D01*
G01*
X166298000Y-109012000D01*
G75*
G02*
X166228000Y-109082000I-70000J0D01*
G01*
G37*
G36*
G01*
X166228000Y-107812000D02*
X164228000Y-107812000D01*
G75*
G02*
X164158000Y-107742000I0J70000D01*
G01*
X164158000Y-107142000D01*
G75*
G02*
X164228000Y-107072000I70000J0D01*
G01*
X166228000Y-107072000D01*
G75*
G02*
X166298000Y-107142000I0J-70000D01*
G01*
X166298000Y-107742000D01*
G75*
G02*
X166228000Y-107812000I-70000J0D01*
G01*
G37*
G36*
G01*
X166228000Y-106542000D02*
X164228000Y-106542000D01*
G75*
G02*
X164158000Y-106472000I0J70000D01*
G01*
X164158000Y-105872000D01*
G75*
G02*
X164228000Y-105802000I70000J0D01*
G01*
X166228000Y-105802000D01*
G75*
G02*
X166298000Y-105872000I0J-70000D01*
G01*
X166298000Y-106472000D01*
G75*
G02*
X166228000Y-106542000I-70000J0D01*
G01*
G37*
G36*
G01*
X166228000Y-105272000D02*
X164228000Y-105272000D01*
G75*
G02*
X164158000Y-105202000I0J70000D01*
G01*
X164158000Y-104602000D01*
G75*
G02*
X164228000Y-104532000I70000J0D01*
G01*
X166228000Y-104532000D01*
G75*
G02*
X166298000Y-104602000I0J-70000D01*
G01*
X166298000Y-105202000D01*
G75*
G02*
X166228000Y-105272000I-70000J0D01*
G01*
G37*
G36*
G01*
X166228000Y-104002000D02*
X164228000Y-104002000D01*
G75*
G02*
X164158000Y-103932000I0J70000D01*
G01*
X164158000Y-103332000D01*
G75*
G02*
X164228000Y-103262000I70000J0D01*
G01*
X166228000Y-103262000D01*
G75*
G02*
X166298000Y-103332000I0J-70000D01*
G01*
X166298000Y-103932000D01*
G75*
G02*
X166228000Y-104002000I-70000J0D01*
G01*
G37*
G36*
G01*
X166228000Y-102732000D02*
X164228000Y-102732000D01*
G75*
G02*
X164158000Y-102662000I0J70000D01*
G01*
X164158000Y-102062000D01*
G75*
G02*
X164228000Y-101992000I70000J0D01*
G01*
X166228000Y-101992000D01*
G75*
G02*
X166298000Y-102062000I0J-70000D01*
G01*
X166298000Y-102662000D01*
G75*
G02*
X166228000Y-102732000I-70000J0D01*
G01*
G37*
G36*
G01*
X156828000Y-102732000D02*
X154828000Y-102732000D01*
G75*
G02*
X154758000Y-102662000I0J70000D01*
G01*
X154758000Y-102062000D01*
G75*
G02*
X154828000Y-101992000I70000J0D01*
G01*
X156828000Y-101992000D01*
G75*
G02*
X156898000Y-102062000I0J-70000D01*
G01*
X156898000Y-102662000D01*
G75*
G02*
X156828000Y-102732000I-70000J0D01*
G01*
G37*
G36*
G01*
X156828000Y-104002000D02*
X154828000Y-104002000D01*
G75*
G02*
X154758000Y-103932000I0J70000D01*
G01*
X154758000Y-103332000D01*
G75*
G02*
X154828000Y-103262000I70000J0D01*
G01*
X156828000Y-103262000D01*
G75*
G02*
X156898000Y-103332000I0J-70000D01*
G01*
X156898000Y-103932000D01*
G75*
G02*
X156828000Y-104002000I-70000J0D01*
G01*
G37*
G36*
G01*
X156828000Y-105272000D02*
X154828000Y-105272000D01*
G75*
G02*
X154758000Y-105202000I0J70000D01*
G01*
X154758000Y-104602000D01*
G75*
G02*
X154828000Y-104532000I70000J0D01*
G01*
X156828000Y-104532000D01*
G75*
G02*
X156898000Y-104602000I0J-70000D01*
G01*
X156898000Y-105202000D01*
G75*
G02*
X156828000Y-105272000I-70000J0D01*
G01*
G37*
G36*
G01*
X156828000Y-106542000D02*
X154828000Y-106542000D01*
G75*
G02*
X154758000Y-106472000I0J70000D01*
G01*
X154758000Y-105872000D01*
G75*
G02*
X154828000Y-105802000I70000J0D01*
G01*
X156828000Y-105802000D01*
G75*
G02*
X156898000Y-105872000I0J-70000D01*
G01*
X156898000Y-106472000D01*
G75*
G02*
X156828000Y-106542000I-70000J0D01*
G01*
G37*
G36*
G01*
X156828000Y-107812000D02*
X154828000Y-107812000D01*
G75*
G02*
X154758000Y-107742000I0J70000D01*
G01*
X154758000Y-107142000D01*
G75*
G02*
X154828000Y-107072000I70000J0D01*
G01*
X156828000Y-107072000D01*
G75*
G02*
X156898000Y-107142000I0J-70000D01*
G01*
X156898000Y-107742000D01*
G75*
G02*
X156828000Y-107812000I-70000J0D01*
G01*
G37*
G36*
G01*
X156828000Y-109082000D02*
X154828000Y-109082000D01*
G75*
G02*
X154758000Y-109012000I0J70000D01*
G01*
X154758000Y-108412000D01*
G75*
G02*
X154828000Y-108342000I70000J0D01*
G01*
X156828000Y-108342000D01*
G75*
G02*
X156898000Y-108412000I0J-70000D01*
G01*
X156898000Y-109012000D01*
G75*
G02*
X156828000Y-109082000I-70000J0D01*
G01*
G37*
G36*
G01*
X156828000Y-110352000D02*
X154828000Y-110352000D01*
G75*
G02*
X154758000Y-110282000I0J70000D01*
G01*
X154758000Y-109682000D01*
G75*
G02*
X154828000Y-109612000I70000J0D01*
G01*
X156828000Y-109612000D01*
G75*
G02*
X156898000Y-109682000I0J-70000D01*
G01*
X156898000Y-110282000D01*
G75*
G02*
X156828000Y-110352000I-70000J0D01*
G01*
G37*
G36*
G01*
X156828000Y-111622000D02*
X154828000Y-111622000D01*
G75*
G02*
X154758000Y-111552000I0J70000D01*
G01*
X154758000Y-110952000D01*
G75*
G02*
X154828000Y-110882000I70000J0D01*
G01*
X156828000Y-110882000D01*
G75*
G02*
X156898000Y-110952000I0J-70000D01*
G01*
X156898000Y-111552000D01*
G75*
G02*
X156828000Y-111622000I-70000J0D01*
G01*
G37*
G36*
G01*
X156828000Y-112892000D02*
X154828000Y-112892000D01*
G75*
G02*
X154758000Y-112822000I0J70000D01*
G01*
X154758000Y-112222000D01*
G75*
G02*
X154828000Y-112152000I70000J0D01*
G01*
X156828000Y-112152000D01*
G75*
G02*
X156898000Y-112222000I0J-70000D01*
G01*
X156898000Y-112822000D01*
G75*
G02*
X156828000Y-112892000I-70000J0D01*
G01*
G37*
%TD*%
%TO.C,Q1*%
G36*
G01*
X167372000Y-96890000D02*
X165372000Y-96890000D01*
G75*
G02*
X165302000Y-96820000I0J70000D01*
G01*
X165302000Y-96220000D01*
G75*
G02*
X165372000Y-96150000I70000J0D01*
G01*
X167372000Y-96150000D01*
G75*
G02*
X167442000Y-96220000I0J-70000D01*
G01*
X167442000Y-96820000D01*
G75*
G02*
X167372000Y-96890000I-70000J0D01*
G01*
G37*
G36*
G01*
X167372000Y-95620000D02*
X165372000Y-95620000D01*
G75*
G02*
X165302000Y-95550000I0J70000D01*
G01*
X165302000Y-94950000D01*
G75*
G02*
X165372000Y-94880000I70000J0D01*
G01*
X167372000Y-94880000D01*
G75*
G02*
X167442000Y-94950000I0J-70000D01*
G01*
X167442000Y-95550000D01*
G75*
G02*
X167372000Y-95620000I-70000J0D01*
G01*
G37*
G36*
G01*
X167372000Y-94350000D02*
X165372000Y-94350000D01*
G75*
G02*
X165302000Y-94280000I0J70000D01*
G01*
X165302000Y-93680000D01*
G75*
G02*
X165372000Y-93610000I70000J0D01*
G01*
X167372000Y-93610000D01*
G75*
G02*
X167442000Y-93680000I0J-70000D01*
G01*
X167442000Y-94280000D01*
G75*
G02*
X167372000Y-94350000I-70000J0D01*
G01*
G37*
G36*
G01*
X167372000Y-93080000D02*
X165372000Y-93080000D01*
G75*
G02*
X165302000Y-93010000I0J70000D01*
G01*
X165302000Y-92410000D01*
G75*
G02*
X165372000Y-92340000I70000J0D01*
G01*
X167372000Y-92340000D01*
G75*
G02*
X167442000Y-92410000I0J-70000D01*
G01*
X167442000Y-93010000D01*
G75*
G02*
X167372000Y-93080000I-70000J0D01*
G01*
G37*
G36*
G01*
X167372000Y-91810000D02*
X165372000Y-91810000D01*
G75*
G02*
X165302000Y-91740000I0J70000D01*
G01*
X165302000Y-91140000D01*
G75*
G02*
X165372000Y-91070000I70000J0D01*
G01*
X167372000Y-91070000D01*
G75*
G02*
X167442000Y-91140000I0J-70000D01*
G01*
X167442000Y-91740000D01*
G75*
G02*
X167372000Y-91810000I-70000J0D01*
G01*
G37*
G36*
G01*
X167372000Y-90540000D02*
X165372000Y-90540000D01*
G75*
G02*
X165302000Y-90470000I0J70000D01*
G01*
X165302000Y-89870000D01*
G75*
G02*
X165372000Y-89800000I70000J0D01*
G01*
X167372000Y-89800000D01*
G75*
G02*
X167442000Y-89870000I0J-70000D01*
G01*
X167442000Y-90470000D01*
G75*
G02*
X167372000Y-90540000I-70000J0D01*
G01*
G37*
G36*
G01*
X167372000Y-89270000D02*
X165372000Y-89270000D01*
G75*
G02*
X165302000Y-89200000I0J70000D01*
G01*
X165302000Y-88600000D01*
G75*
G02*
X165372000Y-88530000I70000J0D01*
G01*
X167372000Y-88530000D01*
G75*
G02*
X167442000Y-88600000I0J-70000D01*
G01*
X167442000Y-89200000D01*
G75*
G02*
X167372000Y-89270000I-70000J0D01*
G01*
G37*
G36*
G01*
X167372000Y-88000000D02*
X165372000Y-88000000D01*
G75*
G02*
X165302000Y-87930000I0J70000D01*
G01*
X165302000Y-87330000D01*
G75*
G02*
X165372000Y-87260000I70000J0D01*
G01*
X167372000Y-87260000D01*
G75*
G02*
X167442000Y-87330000I0J-70000D01*
G01*
X167442000Y-87930000D01*
G75*
G02*
X167372000Y-88000000I-70000J0D01*
G01*
G37*
G36*
G01*
X167372000Y-86730000D02*
X165372000Y-86730000D01*
G75*
G02*
X165302000Y-86660000I0J70000D01*
G01*
X165302000Y-86060000D01*
G75*
G02*
X165372000Y-85990000I70000J0D01*
G01*
X167372000Y-85990000D01*
G75*
G02*
X167442000Y-86060000I0J-70000D01*
G01*
X167442000Y-86660000D01*
G75*
G02*
X167372000Y-86730000I-70000J0D01*
G01*
G37*
G36*
G01*
X157972000Y-86730000D02*
X155972000Y-86730000D01*
G75*
G02*
X155902000Y-86660000I0J70000D01*
G01*
X155902000Y-86060000D01*
G75*
G02*
X155972000Y-85990000I70000J0D01*
G01*
X157972000Y-85990000D01*
G75*
G02*
X158042000Y-86060000I0J-70000D01*
G01*
X158042000Y-86660000D01*
G75*
G02*
X157972000Y-86730000I-70000J0D01*
G01*
G37*
G36*
G01*
X157972000Y-88000000D02*
X155972000Y-88000000D01*
G75*
G02*
X155902000Y-87930000I0J70000D01*
G01*
X155902000Y-87330000D01*
G75*
G02*
X155972000Y-87260000I70000J0D01*
G01*
X157972000Y-87260000D01*
G75*
G02*
X158042000Y-87330000I0J-70000D01*
G01*
X158042000Y-87930000D01*
G75*
G02*
X157972000Y-88000000I-70000J0D01*
G01*
G37*
G36*
G01*
X157972000Y-89270000D02*
X155972000Y-89270000D01*
G75*
G02*
X155902000Y-89200000I0J70000D01*
G01*
X155902000Y-88600000D01*
G75*
G02*
X155972000Y-88530000I70000J0D01*
G01*
X157972000Y-88530000D01*
G75*
G02*
X158042000Y-88600000I0J-70000D01*
G01*
X158042000Y-89200000D01*
G75*
G02*
X157972000Y-89270000I-70000J0D01*
G01*
G37*
G36*
G01*
X157972000Y-90540000D02*
X155972000Y-90540000D01*
G75*
G02*
X155902000Y-90470000I0J70000D01*
G01*
X155902000Y-89870000D01*
G75*
G02*
X155972000Y-89800000I70000J0D01*
G01*
X157972000Y-89800000D01*
G75*
G02*
X158042000Y-89870000I0J-70000D01*
G01*
X158042000Y-90470000D01*
G75*
G02*
X157972000Y-90540000I-70000J0D01*
G01*
G37*
G36*
G01*
X157972000Y-91810000D02*
X155972000Y-91810000D01*
G75*
G02*
X155902000Y-91740000I0J70000D01*
G01*
X155902000Y-91140000D01*
G75*
G02*
X155972000Y-91070000I70000J0D01*
G01*
X157972000Y-91070000D01*
G75*
G02*
X158042000Y-91140000I0J-70000D01*
G01*
X158042000Y-91740000D01*
G75*
G02*
X157972000Y-91810000I-70000J0D01*
G01*
G37*
G36*
G01*
X157972000Y-93080000D02*
X155972000Y-93080000D01*
G75*
G02*
X155902000Y-93010000I0J70000D01*
G01*
X155902000Y-92410000D01*
G75*
G02*
X155972000Y-92340000I70000J0D01*
G01*
X157972000Y-92340000D01*
G75*
G02*
X158042000Y-92410000I0J-70000D01*
G01*
X158042000Y-93010000D01*
G75*
G02*
X157972000Y-93080000I-70000J0D01*
G01*
G37*
G36*
G01*
X157972000Y-94350000D02*
X155972000Y-94350000D01*
G75*
G02*
X155902000Y-94280000I0J70000D01*
G01*
X155902000Y-93680000D01*
G75*
G02*
X155972000Y-93610000I70000J0D01*
G01*
X157972000Y-93610000D01*
G75*
G02*
X158042000Y-93680000I0J-70000D01*
G01*
X158042000Y-94280000D01*
G75*
G02*
X157972000Y-94350000I-70000J0D01*
G01*
G37*
G36*
G01*
X157972000Y-95620000D02*
X155972000Y-95620000D01*
G75*
G02*
X155902000Y-95550000I0J70000D01*
G01*
X155902000Y-94950000D01*
G75*
G02*
X155972000Y-94880000I70000J0D01*
G01*
X157972000Y-94880000D01*
G75*
G02*
X158042000Y-94950000I0J-70000D01*
G01*
X158042000Y-95550000D01*
G75*
G02*
X157972000Y-95620000I-70000J0D01*
G01*
G37*
G36*
G01*
X157972000Y-96890000D02*
X155972000Y-96890000D01*
G75*
G02*
X155902000Y-96820000I0J70000D01*
G01*
X155902000Y-96220000D01*
G75*
G02*
X155972000Y-96150000I70000J0D01*
G01*
X157972000Y-96150000D01*
G75*
G02*
X158042000Y-96220000I0J-70000D01*
G01*
X158042000Y-96820000D01*
G75*
G02*
X157972000Y-96890000I-70000J0D01*
G01*
G37*
%TD*%
D24*
%TO.C,J18*%
X173482000Y-62524000D03*
X173482000Y-63774000D03*
G36*
G01*
X173957000Y-65474000D02*
X173007000Y-65474000D01*
G75*
G02*
X172782000Y-65249000I0J225000D01*
G01*
X172782000Y-64799000D01*
G75*
G02*
X173007000Y-64574000I225000J0D01*
G01*
X173957000Y-64574000D01*
G75*
G02*
X174182000Y-64799000I0J-225000D01*
G01*
X174182000Y-65249000D01*
G75*
G02*
X173957000Y-65474000I-225000J0D01*
G01*
G37*
%TD*%
%TO.C,J17*%
X173228000Y-54650000D03*
X173228000Y-55900000D03*
G36*
G01*
X173703000Y-57600000D02*
X172753000Y-57600000D01*
G75*
G02*
X172528000Y-57375000I0J225000D01*
G01*
X172528000Y-56925000D01*
G75*
G02*
X172753000Y-56700000I225000J0D01*
G01*
X173703000Y-56700000D01*
G75*
G02*
X173928000Y-56925000I0J-225000D01*
G01*
X173928000Y-57375000D01*
G75*
G02*
X173703000Y-57600000I-225000J0D01*
G01*
G37*
%TD*%
D29*
%TO.C,J15*%
X139780000Y-124714000D03*
X141030000Y-124714000D03*
X142280000Y-124714000D03*
X143530000Y-124714000D03*
G36*
G01*
X145180000Y-124264000D02*
X145180000Y-125164000D01*
G75*
G02*
X144980000Y-125364000I-200000J0D01*
G01*
X144580000Y-125364000D01*
G75*
G02*
X144380000Y-125164000I0J200000D01*
G01*
X144380000Y-124264000D01*
G75*
G02*
X144580000Y-124064000I200000J0D01*
G01*
X144980000Y-124064000D01*
G75*
G02*
X145180000Y-124264000I0J-200000D01*
G01*
G37*
%TD*%
D24*
%TO.C,J13*%
X142240000Y-91480000D03*
X142240000Y-92730000D03*
G36*
G01*
X142715000Y-94430000D02*
X141765000Y-94430000D01*
G75*
G02*
X141540000Y-94205000I0J225000D01*
G01*
X141540000Y-93755000D01*
G75*
G02*
X141765000Y-93530000I225000J0D01*
G01*
X142715000Y-93530000D01*
G75*
G02*
X142940000Y-93755000I0J-225000D01*
G01*
X142940000Y-94205000D01*
G75*
G02*
X142715000Y-94430000I-225000J0D01*
G01*
G37*
%TD*%
%TO.C,J12*%
X142240000Y-98064000D03*
X142240000Y-99314000D03*
G36*
G01*
X142715000Y-101014000D02*
X141765000Y-101014000D01*
G75*
G02*
X141540000Y-100789000I0J225000D01*
G01*
X141540000Y-100339000D01*
G75*
G02*
X141765000Y-100114000I225000J0D01*
G01*
X142715000Y-100114000D01*
G75*
G02*
X142940000Y-100339000I0J-225000D01*
G01*
X142940000Y-100789000D01*
G75*
G02*
X142715000Y-101014000I-225000J0D01*
G01*
G37*
%TD*%
D29*
%TO.C,J11*%
X114494000Y-125730000D03*
X113244000Y-125730000D03*
X111994000Y-125730000D03*
G36*
G01*
X110344000Y-126180000D02*
X110344000Y-125280000D01*
G75*
G02*
X110544000Y-125080000I200000J0D01*
G01*
X110944000Y-125080000D01*
G75*
G02*
X111144000Y-125280000I0J-200000D01*
G01*
X111144000Y-126180000D01*
G75*
G02*
X110944000Y-126380000I-200000J0D01*
G01*
X110544000Y-126380000D01*
G75*
G02*
X110344000Y-126180000I0J200000D01*
G01*
G37*
%TD*%
D30*
%TO.C,J10*%
X131064000Y-51706000D03*
D31*
X126564000Y-53706000D03*
X135564000Y-53706000D03*
D32*
X131064000Y-54706000D03*
D33*
X131064000Y-60706000D03*
%TD*%
D24*
%TO.C,J9*%
X142240000Y-104942000D03*
X142240000Y-106192000D03*
G36*
G01*
X142715000Y-107892000D02*
X141765000Y-107892000D01*
G75*
G02*
X141540000Y-107667000I0J225000D01*
G01*
X141540000Y-107217000D01*
G75*
G02*
X141765000Y-106992000I225000J0D01*
G01*
X142715000Y-106992000D01*
G75*
G02*
X142940000Y-107217000I0J-225000D01*
G01*
X142940000Y-107667000D01*
G75*
G02*
X142715000Y-107892000I-225000J0D01*
G01*
G37*
%TD*%
%TO.C,J2*%
X142240000Y-111800000D03*
X142240000Y-113050000D03*
G36*
G01*
X142715000Y-114750000D02*
X141765000Y-114750000D01*
G75*
G02*
X141540000Y-114525000I0J225000D01*
G01*
X141540000Y-114075000D01*
G75*
G02*
X141765000Y-113850000I225000J0D01*
G01*
X142715000Y-113850000D01*
G75*
G02*
X142940000Y-114075000I0J-225000D01*
G01*
X142940000Y-114525000D01*
G75*
G02*
X142715000Y-114750000I-225000J0D01*
G01*
G37*
%TD*%
D34*
%TO.C,D6*%
X101092000Y-71206000D03*
X101092000Y-75606000D03*
%TD*%
D35*
%TO.C,D5*%
X123022000Y-65786000D03*
X127422000Y-65786000D03*
%TD*%
%TO.C,D4*%
X107020000Y-53340000D03*
X111420000Y-53340000D03*
%TD*%
%TO.C,D2*%
X144104000Y-63246000D03*
X148504000Y-63246000D03*
%TD*%
%TO.C,D1*%
X135042000Y-65786000D03*
X130642000Y-65786000D03*
%TD*%
D36*
%TO.C,A1*%
X135382000Y-120904000D03*
X120142000Y-120904000D03*
X135382000Y-85344000D03*
X120142000Y-118364000D03*
X135382000Y-87884000D03*
X120142000Y-115824000D03*
X135382000Y-90424000D03*
X120142000Y-113284000D03*
X135382000Y-92964000D03*
X120142000Y-110744000D03*
X135382000Y-95504000D03*
X120142000Y-108204000D03*
X135382000Y-98044000D03*
X120142000Y-105664000D03*
X135382000Y-100584000D03*
X120142000Y-103124000D03*
X135382000Y-103124000D03*
X120142000Y-100584000D03*
X135382000Y-105664000D03*
X120142000Y-98044000D03*
X135382000Y-108204000D03*
X120142000Y-95504000D03*
X135382000Y-110744000D03*
X120142000Y-92964000D03*
X135382000Y-113284000D03*
X120142000Y-90424000D03*
X135382000Y-115824000D03*
X120142000Y-87884000D03*
X135382000Y-118364000D03*
D37*
X120142000Y-85344000D03*
%TD*%
M02*
