%TF.GenerationSoftware,KiCad,Pcbnew,(5.1.8)-1*%
%TF.CreationDate,2022-01-24T15:12:58-08:00*%
%TF.ProjectId,BLE-33_baseboard,424c452d-3333-45f6-9261-7365626f6172,rev?*%
%TF.SameCoordinates,Original*%
%TF.FileFunction,Copper,L4,Bot*%
%TF.FilePolarity,Positive*%
%FSLAX46Y46*%
G04 Gerber Fmt 4.6, Leading zero omitted, Abs format (unit mm)*
G04 Created by KiCad (PCBNEW (5.1.8)-1) date 2022-01-24 15:12:58*
%MOMM*%
%LPD*%
G01*
G04 APERTURE LIST*
%TA.AperFunction,ComponentPad*%
%ADD10C,2.025000*%
%TD*%
%TA.AperFunction,SMDPad,CuDef*%
%ADD11R,0.540000X0.940000*%
%TD*%
%TA.AperFunction,SMDPad,CuDef*%
%ADD12R,0.940000X0.540000*%
%TD*%
%TA.AperFunction,SMDPad,CuDef*%
%ADD13R,0.450000X0.600000*%
%TD*%
%TA.AperFunction,ComponentPad*%
%ADD14C,1.000000*%
%TD*%
%TA.AperFunction,ComponentPad*%
%ADD15O,1.700000X1.950000*%
%TD*%
%TA.AperFunction,ComponentPad*%
%ADD16O,1.950000X1.700000*%
%TD*%
%TA.AperFunction,ComponentPad*%
%ADD17O,1.700000X1.700000*%
%TD*%
%TA.AperFunction,ComponentPad*%
%ADD18R,1.700000X1.700000*%
%TD*%
%TA.AperFunction,SMDPad,CuDef*%
%ADD19R,0.700000X0.450000*%
%TD*%
%TA.AperFunction,SMDPad,CuDef*%
%ADD20R,0.450000X0.700000*%
%TD*%
%TA.AperFunction,ComponentPad*%
%ADD21C,3.000000*%
%TD*%
%TA.AperFunction,ComponentPad*%
%ADD22O,1.400000X0.900000*%
%TD*%
%TA.AperFunction,ComponentPad*%
%ADD23R,1.750000X2.250000*%
%TD*%
%TA.AperFunction,ComponentPad*%
%ADD24O,1.750000X2.250000*%
%TD*%
%TA.AperFunction,SMDPad,CuDef*%
%ADD25R,1.000000X0.400000*%
%TD*%
%TA.AperFunction,SMDPad,CuDef*%
%ADD26R,1.200000X0.400000*%
%TD*%
%TA.AperFunction,SMDPad,CuDef*%
%ADD27R,2.000000X0.600000*%
%TD*%
%TA.AperFunction,ComponentPad*%
%ADD28O,0.800000X1.300000*%
%TD*%
%TA.AperFunction,ComponentPad*%
%ADD29C,3.500000*%
%TD*%
%TA.AperFunction,ComponentPad*%
%ADD30C,3.300000*%
%TD*%
%TA.AperFunction,ComponentPad*%
%ADD31R,4.000000X4.000000*%
%TD*%
%TA.AperFunction,SMDPad,CuDef*%
%ADD32R,2.100000X1.400000*%
%TD*%
%TA.AperFunction,SMDPad,CuDef*%
%ADD33R,1.400000X2.100000*%
%TD*%
%TA.AperFunction,ComponentPad*%
%ADD34O,1.600000X1.600000*%
%TD*%
%TA.AperFunction,ComponentPad*%
%ADD35R,1.600000X1.600000*%
%TD*%
%TA.AperFunction,ViaPad*%
%ADD36C,0.800000*%
%TD*%
%TA.AperFunction,Conductor*%
%ADD37C,1.000000*%
%TD*%
%TA.AperFunction,Conductor*%
%ADD38C,0.500000*%
%TD*%
%TA.AperFunction,Conductor*%
%ADD39C,0.350000*%
%TD*%
%TA.AperFunction,Conductor*%
%ADD40C,0.250000*%
%TD*%
%TA.AperFunction,Conductor*%
%ADD41C,0.750000*%
%TD*%
G04 APERTURE END LIST*
D10*
%TO.P,J19,5*%
%TO.N,GND*%
X108974000Y-58428000D03*
%TO.P,J19,4*%
%TO.N,Net-(D4-Pad2)*%
X110744000Y-56658000D03*
%TO.P,J19,3*%
%TO.N,Net-(J19-Pad3)*%
X107204000Y-56658000D03*
%TO.P,J19,2*%
%TO.N,Net-(J19-Pad2)*%
X107204000Y-60198000D03*
%TO.P,J19,1*%
%TO.N,Net-(D5-Pad2)*%
X110744000Y-60198000D03*
%TD*%
D11*
%TO.P,C15,2*%
%TO.N,/Motors*%
X163614000Y-99314000D03*
%TO.P,C15,1*%
%TO.N,GND*%
X162014000Y-99314000D03*
%TD*%
%TO.P,C14,2*%
%TO.N,/Motors*%
X165900000Y-78232000D03*
%TO.P,C14,1*%
%TO.N,GND*%
X164300000Y-78232000D03*
%TD*%
%TO.P,C13,2*%
%TO.N,+3V3*%
X147028000Y-103378000D03*
%TO.P,C13,1*%
%TO.N,GND*%
X148628000Y-103378000D03*
%TD*%
%TO.P,C12,2*%
%TO.N,+3V3*%
X132372000Y-120396000D03*
%TO.P,C12,1*%
%TO.N,GND*%
X130772000Y-120396000D03*
%TD*%
D12*
%TO.P,C11,2*%
%TO.N,+3V3*%
X149098000Y-75400000D03*
%TO.P,C11,1*%
%TO.N,GND*%
X149098000Y-77000000D03*
%TD*%
D11*
%TO.P,C10,2*%
%TO.N,+3V3*%
X148044000Y-92964000D03*
%TO.P,C10,1*%
%TO.N,GND*%
X149644000Y-92964000D03*
%TD*%
%TO.P,C7,2*%
%TO.N,+5V*%
X148628000Y-57150000D03*
%TO.P,C7,1*%
%TO.N,GND*%
X147028000Y-57150000D03*
%TD*%
D12*
%TO.P,C6,2*%
%TO.N,+5V*%
X130810000Y-86322000D03*
%TO.P,C6,1*%
%TO.N,GND*%
X130810000Y-87922000D03*
%TD*%
D11*
%TO.P,C5,2*%
%TO.N,+5V*%
X108547000Y-89535000D03*
%TO.P,C5,1*%
%TO.N,GND*%
X110147000Y-89535000D03*
%TD*%
D13*
%TO.P,D3,2*%
%TO.N,Net-(D3-Pad2)*%
X167513000Y-65117000D03*
%TO.P,D3,1*%
%TO.N,Net-(D3-Pad1)*%
X167513000Y-67217000D03*
%TD*%
%TO.P,R24,2*%
%TO.N,+5V*%
%TA.AperFunction,SMDPad,CuDef*%
G36*
G01*
X113527000Y-104657999D02*
X113527000Y-105908001D01*
G75*
G02*
X113277001Y-106158000I-249999J0D01*
G01*
X112651999Y-106158000D01*
G75*
G02*
X112402000Y-105908001I0J249999D01*
G01*
X112402000Y-104657999D01*
G75*
G02*
X112651999Y-104408000I249999J0D01*
G01*
X113277001Y-104408000D01*
G75*
G02*
X113527000Y-104657999I0J-249999D01*
G01*
G37*
%TD.AperFunction*%
%TO.P,R24,1*%
%TO.N,Net-(J1-Pad1)*%
%TA.AperFunction,SMDPad,CuDef*%
G36*
G01*
X116452000Y-104657999D02*
X116452000Y-105908001D01*
G75*
G02*
X116202001Y-106158000I-249999J0D01*
G01*
X115576999Y-106158000D01*
G75*
G02*
X115327000Y-105908001I0J249999D01*
G01*
X115327000Y-104657999D01*
G75*
G02*
X115576999Y-104408000I249999J0D01*
G01*
X116202001Y-104408000D01*
G75*
G02*
X116452000Y-104657999I0J-249999D01*
G01*
G37*
%TD.AperFunction*%
%TD*%
%TO.P,R26,2*%
%TO.N,/SCL*%
%TA.AperFunction,SMDPad,CuDef*%
G36*
G01*
X112033000Y-121227001D02*
X112033000Y-120326999D01*
G75*
G02*
X112282999Y-120077000I249999J0D01*
G01*
X112808001Y-120077000D01*
G75*
G02*
X113058000Y-120326999I0J-249999D01*
G01*
X113058000Y-121227001D01*
G75*
G02*
X112808001Y-121477000I-249999J0D01*
G01*
X112282999Y-121477000D01*
G75*
G02*
X112033000Y-121227001I0J249999D01*
G01*
G37*
%TD.AperFunction*%
%TO.P,R26,1*%
%TO.N,+3V3*%
%TA.AperFunction,SMDPad,CuDef*%
G36*
G01*
X110208000Y-121227001D02*
X110208000Y-120326999D01*
G75*
G02*
X110457999Y-120077000I249999J0D01*
G01*
X110983001Y-120077000D01*
G75*
G02*
X111233000Y-120326999I0J-249999D01*
G01*
X111233000Y-121227001D01*
G75*
G02*
X110983001Y-121477000I-249999J0D01*
G01*
X110457999Y-121477000D01*
G75*
G02*
X110208000Y-121227001I0J249999D01*
G01*
G37*
%TD.AperFunction*%
%TD*%
%TO.P,R22,2*%
%TO.N,/A3*%
%TA.AperFunction,SMDPad,CuDef*%
G36*
G01*
X138626001Y-99930000D02*
X137725999Y-99930000D01*
G75*
G02*
X137476000Y-99680001I0J249999D01*
G01*
X137476000Y-99154999D01*
G75*
G02*
X137725999Y-98905000I249999J0D01*
G01*
X138626001Y-98905000D01*
G75*
G02*
X138876000Y-99154999I0J-249999D01*
G01*
X138876000Y-99680001D01*
G75*
G02*
X138626001Y-99930000I-249999J0D01*
G01*
G37*
%TD.AperFunction*%
%TO.P,R22,1*%
%TO.N,+3V3*%
%TA.AperFunction,SMDPad,CuDef*%
G36*
G01*
X138626001Y-101755000D02*
X137725999Y-101755000D01*
G75*
G02*
X137476000Y-101505001I0J249999D01*
G01*
X137476000Y-100979999D01*
G75*
G02*
X137725999Y-100730000I249999J0D01*
G01*
X138626001Y-100730000D01*
G75*
G02*
X138876000Y-100979999I0J-249999D01*
G01*
X138876000Y-101505001D01*
G75*
G02*
X138626001Y-101755000I-249999J0D01*
G01*
G37*
%TD.AperFunction*%
%TD*%
D14*
%TO.P,TP9,1*%
%TO.N,Net-(PS2-Pad1)*%
X117983000Y-71120000D03*
%TD*%
%TO.P,TP3,1*%
%TO.N,Net-(PS1-Pad1)*%
X156083000Y-56642000D03*
%TD*%
%TO.P,R29,2*%
%TO.N,/SCK*%
%TA.AperFunction,SMDPad,CuDef*%
G36*
G01*
X132226000Y-124910001D02*
X132226000Y-124009999D01*
G75*
G02*
X132475999Y-123760000I249999J0D01*
G01*
X133001001Y-123760000D01*
G75*
G02*
X133251000Y-124009999I0J-249999D01*
G01*
X133251000Y-124910001D01*
G75*
G02*
X133001001Y-125160000I-249999J0D01*
G01*
X132475999Y-125160000D01*
G75*
G02*
X132226000Y-124910001I0J249999D01*
G01*
G37*
%TD.AperFunction*%
%TO.P,R29,1*%
%TO.N,+3V3*%
%TA.AperFunction,SMDPad,CuDef*%
G36*
G01*
X130401000Y-124910001D02*
X130401000Y-124009999D01*
G75*
G02*
X130650999Y-123760000I249999J0D01*
G01*
X131176001Y-123760000D01*
G75*
G02*
X131426000Y-124009999I0J-249999D01*
G01*
X131426000Y-124910001D01*
G75*
G02*
X131176001Y-125160000I-249999J0D01*
G01*
X130650999Y-125160000D01*
G75*
G02*
X130401000Y-124910001I0J249999D01*
G01*
G37*
%TD.AperFunction*%
%TD*%
%TO.P,R28,2*%
%TO.N,/SDA*%
%TA.AperFunction,SMDPad,CuDef*%
G36*
G01*
X148786001Y-123679000D02*
X147885999Y-123679000D01*
G75*
G02*
X147636000Y-123429001I0J249999D01*
G01*
X147636000Y-122903999D01*
G75*
G02*
X147885999Y-122654000I249999J0D01*
G01*
X148786001Y-122654000D01*
G75*
G02*
X149036000Y-122903999I0J-249999D01*
G01*
X149036000Y-123429001D01*
G75*
G02*
X148786001Y-123679000I-249999J0D01*
G01*
G37*
%TD.AperFunction*%
%TO.P,R28,1*%
%TO.N,+3V3*%
%TA.AperFunction,SMDPad,CuDef*%
G36*
G01*
X148786001Y-125504000D02*
X147885999Y-125504000D01*
G75*
G02*
X147636000Y-125254001I0J249999D01*
G01*
X147636000Y-124728999D01*
G75*
G02*
X147885999Y-124479000I249999J0D01*
G01*
X148786001Y-124479000D01*
G75*
G02*
X149036000Y-124728999I0J-249999D01*
G01*
X149036000Y-125254001D01*
G75*
G02*
X148786001Y-125504000I-249999J0D01*
G01*
G37*
%TD.AperFunction*%
%TD*%
%TO.P,R27,2*%
%TO.N,/MISO*%
%TA.AperFunction,SMDPad,CuDef*%
G36*
G01*
X145650000Y-120834999D02*
X145650000Y-121735001D01*
G75*
G02*
X145400001Y-121985000I-249999J0D01*
G01*
X144874999Y-121985000D01*
G75*
G02*
X144625000Y-121735001I0J249999D01*
G01*
X144625000Y-120834999D01*
G75*
G02*
X144874999Y-120585000I249999J0D01*
G01*
X145400001Y-120585000D01*
G75*
G02*
X145650000Y-120834999I0J-249999D01*
G01*
G37*
%TD.AperFunction*%
%TO.P,R27,1*%
%TO.N,+3V3*%
%TA.AperFunction,SMDPad,CuDef*%
G36*
G01*
X147475000Y-120834999D02*
X147475000Y-121735001D01*
G75*
G02*
X147225001Y-121985000I-249999J0D01*
G01*
X146699999Y-121985000D01*
G75*
G02*
X146450000Y-121735001I0J249999D01*
G01*
X146450000Y-120834999D01*
G75*
G02*
X146699999Y-120585000I249999J0D01*
G01*
X147225001Y-120585000D01*
G75*
G02*
X147475000Y-120834999I0J-249999D01*
G01*
G37*
%TD.AperFunction*%
%TD*%
%TO.P,R25,2*%
%TO.N,/MOSI*%
%TA.AperFunction,SMDPad,CuDef*%
G36*
G01*
X124949000Y-116516999D02*
X124949000Y-117417001D01*
G75*
G02*
X124699001Y-117667000I-249999J0D01*
G01*
X124173999Y-117667000D01*
G75*
G02*
X123924000Y-117417001I0J249999D01*
G01*
X123924000Y-116516999D01*
G75*
G02*
X124173999Y-116267000I249999J0D01*
G01*
X124699001Y-116267000D01*
G75*
G02*
X124949000Y-116516999I0J-249999D01*
G01*
G37*
%TD.AperFunction*%
%TO.P,R25,1*%
%TO.N,+3V3*%
%TA.AperFunction,SMDPad,CuDef*%
G36*
G01*
X126774000Y-116516999D02*
X126774000Y-117417001D01*
G75*
G02*
X126524001Y-117667000I-249999J0D01*
G01*
X125998999Y-117667000D01*
G75*
G02*
X125749000Y-117417001I0J249999D01*
G01*
X125749000Y-116516999D01*
G75*
G02*
X125998999Y-116267000I249999J0D01*
G01*
X126524001Y-116267000D01*
G75*
G02*
X126774000Y-116516999I0J-249999D01*
G01*
G37*
%TD.AperFunction*%
%TD*%
%TO.P,R23,2*%
%TO.N,/A6*%
%TA.AperFunction,SMDPad,CuDef*%
G36*
G01*
X138626001Y-94342000D02*
X137725999Y-94342000D01*
G75*
G02*
X137476000Y-94092001I0J249999D01*
G01*
X137476000Y-93566999D01*
G75*
G02*
X137725999Y-93317000I249999J0D01*
G01*
X138626001Y-93317000D01*
G75*
G02*
X138876000Y-93566999I0J-249999D01*
G01*
X138876000Y-94092001D01*
G75*
G02*
X138626001Y-94342000I-249999J0D01*
G01*
G37*
%TD.AperFunction*%
%TO.P,R23,1*%
%TO.N,+3V3*%
%TA.AperFunction,SMDPad,CuDef*%
G36*
G01*
X138626001Y-96167000D02*
X137725999Y-96167000D01*
G75*
G02*
X137476000Y-95917001I0J249999D01*
G01*
X137476000Y-95391999D01*
G75*
G02*
X137725999Y-95142000I249999J0D01*
G01*
X138626001Y-95142000D01*
G75*
G02*
X138876000Y-95391999I0J-249999D01*
G01*
X138876000Y-95917001D01*
G75*
G02*
X138626001Y-96167000I-249999J0D01*
G01*
G37*
%TD.AperFunction*%
%TD*%
%TO.P,R21,2*%
%TO.N,/A2*%
%TA.AperFunction,SMDPad,CuDef*%
G36*
G01*
X138626001Y-107296000D02*
X137725999Y-107296000D01*
G75*
G02*
X137476000Y-107046001I0J249999D01*
G01*
X137476000Y-106520999D01*
G75*
G02*
X137725999Y-106271000I249999J0D01*
G01*
X138626001Y-106271000D01*
G75*
G02*
X138876000Y-106520999I0J-249999D01*
G01*
X138876000Y-107046001D01*
G75*
G02*
X138626001Y-107296000I-249999J0D01*
G01*
G37*
%TD.AperFunction*%
%TO.P,R21,1*%
%TO.N,+3V3*%
%TA.AperFunction,SMDPad,CuDef*%
G36*
G01*
X138626001Y-109121000D02*
X137725999Y-109121000D01*
G75*
G02*
X137476000Y-108871001I0J249999D01*
G01*
X137476000Y-108345999D01*
G75*
G02*
X137725999Y-108096000I249999J0D01*
G01*
X138626001Y-108096000D01*
G75*
G02*
X138876000Y-108345999I0J-249999D01*
G01*
X138876000Y-108871001D01*
G75*
G02*
X138626001Y-109121000I-249999J0D01*
G01*
G37*
%TD.AperFunction*%
%TD*%
%TO.P,R20,2*%
%TO.N,/A1*%
%TA.AperFunction,SMDPad,CuDef*%
G36*
G01*
X138626001Y-113392000D02*
X137725999Y-113392000D01*
G75*
G02*
X137476000Y-113142001I0J249999D01*
G01*
X137476000Y-112616999D01*
G75*
G02*
X137725999Y-112367000I249999J0D01*
G01*
X138626001Y-112367000D01*
G75*
G02*
X138876000Y-112616999I0J-249999D01*
G01*
X138876000Y-113142001D01*
G75*
G02*
X138626001Y-113392000I-249999J0D01*
G01*
G37*
%TD.AperFunction*%
%TO.P,R20,1*%
%TO.N,+3V3*%
%TA.AperFunction,SMDPad,CuDef*%
G36*
G01*
X138626001Y-115217000D02*
X137725999Y-115217000D01*
G75*
G02*
X137476000Y-114967001I0J249999D01*
G01*
X137476000Y-114441999D01*
G75*
G02*
X137725999Y-114192000I249999J0D01*
G01*
X138626001Y-114192000D01*
G75*
G02*
X138876000Y-114441999I0J-249999D01*
G01*
X138876000Y-114967001D01*
G75*
G02*
X138626001Y-115217000I-249999J0D01*
G01*
G37*
%TD.AperFunction*%
%TD*%
%TO.P,R19,2*%
%TO.N,Net-(R19-Pad2)*%
%TA.AperFunction,SMDPad,CuDef*%
G36*
G01*
X147085000Y-112845001D02*
X147085000Y-111944999D01*
G75*
G02*
X147334999Y-111695000I249999J0D01*
G01*
X147860001Y-111695000D01*
G75*
G02*
X148110000Y-111944999I0J-249999D01*
G01*
X148110000Y-112845001D01*
G75*
G02*
X147860001Y-113095000I-249999J0D01*
G01*
X147334999Y-113095000D01*
G75*
G02*
X147085000Y-112845001I0J249999D01*
G01*
G37*
%TD.AperFunction*%
%TO.P,R19,1*%
%TO.N,+3V3*%
%TA.AperFunction,SMDPad,CuDef*%
G36*
G01*
X145260000Y-112845001D02*
X145260000Y-111944999D01*
G75*
G02*
X145509999Y-111695000I249999J0D01*
G01*
X146035001Y-111695000D01*
G75*
G02*
X146285000Y-111944999I0J-249999D01*
G01*
X146285000Y-112845001D01*
G75*
G02*
X146035001Y-113095000I-249999J0D01*
G01*
X145509999Y-113095000D01*
G75*
G02*
X145260000Y-112845001I0J249999D01*
G01*
G37*
%TD.AperFunction*%
%TD*%
%TO.P,TP2,1*%
%TO.N,Net-(A1-Pad18)*%
X132588000Y-113157000D03*
%TD*%
D15*
%TO.P,J8,5*%
%TO.N,Net-(F5-Pad2)*%
X172814000Y-120396000D03*
%TO.P,J8,4*%
%TO.N,Net-(J8-Pad4)*%
X170314000Y-120396000D03*
%TO.P,J8,3*%
%TO.N,Net-(J8-Pad3)*%
X167814000Y-120396000D03*
%TO.P,J8,2*%
%TO.N,Net-(J8-Pad2)*%
X165314000Y-120396000D03*
%TO.P,J8,1*%
%TO.N,Net-(J8-Pad1)*%
%TA.AperFunction,ComponentPad*%
G36*
G01*
X161964000Y-121121000D02*
X161964000Y-119671000D01*
G75*
G02*
X162214000Y-119421000I250000J0D01*
G01*
X163414000Y-119421000D01*
G75*
G02*
X163664000Y-119671000I0J-250000D01*
G01*
X163664000Y-121121000D01*
G75*
G02*
X163414000Y-121371000I-250000J0D01*
G01*
X162214000Y-121371000D01*
G75*
G02*
X161964000Y-121121000I0J250000D01*
G01*
G37*
%TD.AperFunction*%
%TD*%
D16*
%TO.P,J7,5*%
%TO.N,Net-(F4-Pad2)*%
X172466000Y-104173000D03*
%TO.P,J7,4*%
%TO.N,Net-(J7-Pad4)*%
X172466000Y-106673000D03*
%TO.P,J7,3*%
%TO.N,Net-(J7-Pad3)*%
X172466000Y-109173000D03*
%TO.P,J7,2*%
%TO.N,Net-(J7-Pad2)*%
X172466000Y-111673000D03*
%TO.P,J7,1*%
%TO.N,Net-(J7-Pad1)*%
%TA.AperFunction,ComponentPad*%
G36*
G01*
X173191000Y-115023000D02*
X171741000Y-115023000D01*
G75*
G02*
X171491000Y-114773000I0J250000D01*
G01*
X171491000Y-113573000D01*
G75*
G02*
X171741000Y-113323000I250000J0D01*
G01*
X173191000Y-113323000D01*
G75*
G02*
X173441000Y-113573000I0J-250000D01*
G01*
X173441000Y-114773000D01*
G75*
G02*
X173191000Y-115023000I-250000J0D01*
G01*
G37*
%TD.AperFunction*%
%TD*%
%TO.P,J6,5*%
%TO.N,Net-(F3-Pad2)*%
X172466000Y-87790000D03*
%TO.P,J6,4*%
%TO.N,Net-(J6-Pad4)*%
X172466000Y-90290000D03*
%TO.P,J6,3*%
%TO.N,Net-(J6-Pad3)*%
X172466000Y-92790000D03*
%TO.P,J6,2*%
%TO.N,Net-(J6-Pad2)*%
X172466000Y-95290000D03*
%TO.P,J6,1*%
%TO.N,Net-(J6-Pad1)*%
%TA.AperFunction,ComponentPad*%
G36*
G01*
X173191000Y-98640000D02*
X171741000Y-98640000D01*
G75*
G02*
X171491000Y-98390000I0J250000D01*
G01*
X171491000Y-97190000D01*
G75*
G02*
X171741000Y-96940000I250000J0D01*
G01*
X173191000Y-96940000D01*
G75*
G02*
X173441000Y-97190000I0J-250000D01*
G01*
X173441000Y-98390000D01*
G75*
G02*
X173191000Y-98640000I-250000J0D01*
G01*
G37*
%TD.AperFunction*%
%TD*%
%TO.P,J5,5*%
%TO.N,Net-(F2-Pad2)*%
X172466000Y-71661000D03*
%TO.P,J5,4*%
%TO.N,Net-(J5-Pad4)*%
X172466000Y-74161000D03*
%TO.P,J5,3*%
%TO.N,Net-(J5-Pad3)*%
X172466000Y-76661000D03*
%TO.P,J5,2*%
%TO.N,Net-(J5-Pad2)*%
X172466000Y-79161000D03*
%TO.P,J5,1*%
%TO.N,Net-(J5-Pad1)*%
%TA.AperFunction,ComponentPad*%
G36*
G01*
X173191000Y-82511000D02*
X171741000Y-82511000D01*
G75*
G02*
X171491000Y-82261000I0J250000D01*
G01*
X171491000Y-81061000D01*
G75*
G02*
X171741000Y-80811000I250000J0D01*
G01*
X173191000Y-80811000D01*
G75*
G02*
X173441000Y-81061000I0J-250000D01*
G01*
X173441000Y-82261000D01*
G75*
G02*
X173191000Y-82511000I-250000J0D01*
G01*
G37*
%TD.AperFunction*%
%TD*%
D17*
%TO.P,J4,4*%
%TO.N,/HVACb*%
X103632000Y-112014000D03*
%TO.P,J4,3*%
%TO.N,/HVACa*%
X103632000Y-114554000D03*
%TO.P,J4,2*%
%TO.N,/CAL*%
X103632000Y-117094000D03*
D18*
%TO.P,J4,1*%
%TO.N,Net-(F7-Pad1)*%
X103632000Y-119634000D03*
%TD*%
D19*
%TO.P,Q3,3*%
%TO.N,/M2*%
X110506000Y-93726000D03*
%TO.P,Q3,2*%
%TO.N,GND*%
X112506000Y-94376000D03*
%TO.P,Q3,1*%
%TO.N,Net-(A1-Pad5)*%
X112506000Y-93076000D03*
%TD*%
D20*
%TO.P,Q11,3*%
%TO.N,/M4*%
X128016000Y-103902000D03*
%TO.P,Q11,2*%
%TO.N,GND*%
X127366000Y-105902000D03*
%TO.P,Q11,1*%
%TO.N,/A6*%
X128666000Y-105902000D03*
%TD*%
%TO.P,Q10,3*%
%TO.N,/M3*%
X127762000Y-95012000D03*
%TO.P,Q10,2*%
%TO.N,GND*%
X127112000Y-97012000D03*
%TO.P,Q10,1*%
%TO.N,/A7*%
X128412000Y-97012000D03*
%TD*%
D19*
%TO.P,Q9,3*%
%TO.N,Net-(J1-Pad2)*%
X145812000Y-118872000D03*
%TO.P,Q9,2*%
%TO.N,GND*%
X147812000Y-119522000D03*
%TO.P,Q9,1*%
%TO.N,/A0*%
X147812000Y-118222000D03*
%TD*%
%TO.P,Q8,3*%
%TO.N,/GoW*%
X110506000Y-108966000D03*
%TO.P,Q8,2*%
%TO.N,GND*%
X112506000Y-109616000D03*
%TO.P,Q8,1*%
%TO.N,Net-(A1-Pad8)*%
X112506000Y-108316000D03*
%TD*%
%TO.P,Q7,3*%
%TO.N,/CAL*%
X110760000Y-117348000D03*
%TO.P,Q7,2*%
%TO.N,GND*%
X112760000Y-117998000D03*
%TO.P,Q7,1*%
%TO.N,Net-(A1-Pad10)*%
X112760000Y-116698000D03*
%TD*%
%TO.P,Q6,3*%
%TO.N,/M1*%
X110506000Y-113284000D03*
%TO.P,Q6,2*%
%TO.N,GND*%
X112506000Y-113934000D03*
%TO.P,Q6,1*%
%TO.N,Net-(A1-Pad9)*%
X112506000Y-112634000D03*
%TD*%
%TO.P,Q5,3*%
%TO.N,/UV_Boost*%
X110506000Y-102108000D03*
%TO.P,Q5,2*%
%TO.N,GND*%
X112506000Y-102758000D03*
%TO.P,Q5,1*%
%TO.N,Net-(A1-Pad7)*%
X112506000Y-101458000D03*
%TD*%
%TO.P,Q4,3*%
%TO.N,/Mid_LED*%
X110252000Y-98044000D03*
%TO.P,Q4,2*%
%TO.N,GND*%
X112252000Y-98694000D03*
%TO.P,Q4,1*%
%TO.N,Net-(A1-Pad6)*%
X112252000Y-97394000D03*
%TD*%
D21*
%TO.P,REF\u002A\u002A,1*%
%TO.N,GND*%
X122174000Y-55118000D03*
%TD*%
D14*
%TO.P,TP8,1*%
%TO.N,Vdrive*%
X121158000Y-72644000D03*
%TD*%
%TO.P,TP7,1*%
%TO.N,GND*%
X114046000Y-86614000D03*
%TD*%
%TO.P,TP6,1*%
%TO.N,+3V3*%
X114046000Y-81534000D03*
%TD*%
%TO.P,TP5,1*%
%TO.N,+5V*%
X99695000Y-90932000D03*
%TD*%
%TO.P,TP4,1*%
%TO.N,/HV-PWR*%
X101092000Y-86614000D03*
%TD*%
%TO.P,R18,2*%
%TO.N,GND*%
%TA.AperFunction,SMDPad,CuDef*%
G36*
G01*
X127616000Y-100895998D02*
X127616000Y-101796002D01*
G75*
G02*
X127366002Y-102046000I-249998J0D01*
G01*
X126840998Y-102046000D01*
G75*
G02*
X126591000Y-101796002I0J249998D01*
G01*
X126591000Y-100895998D01*
G75*
G02*
X126840998Y-100646000I249998J0D01*
G01*
X127366002Y-100646000D01*
G75*
G02*
X127616000Y-100895998I0J-249998D01*
G01*
G37*
%TD.AperFunction*%
%TO.P,R18,1*%
%TO.N,/A6*%
%TA.AperFunction,SMDPad,CuDef*%
G36*
G01*
X129441000Y-100895998D02*
X129441000Y-101796002D01*
G75*
G02*
X129191002Y-102046000I-249998J0D01*
G01*
X128665998Y-102046000D01*
G75*
G02*
X128416000Y-101796002I0J249998D01*
G01*
X128416000Y-100895998D01*
G75*
G02*
X128665998Y-100646000I249998J0D01*
G01*
X129191002Y-100646000D01*
G75*
G02*
X129441000Y-100895998I0J-249998D01*
G01*
G37*
%TD.AperFunction*%
%TD*%
%TO.P,R17,2*%
%TO.N,GND*%
%TA.AperFunction,SMDPad,CuDef*%
G36*
G01*
X127362000Y-92259998D02*
X127362000Y-93160002D01*
G75*
G02*
X127112002Y-93410000I-249998J0D01*
G01*
X126586998Y-93410000D01*
G75*
G02*
X126337000Y-93160002I0J249998D01*
G01*
X126337000Y-92259998D01*
G75*
G02*
X126586998Y-92010000I249998J0D01*
G01*
X127112002Y-92010000D01*
G75*
G02*
X127362000Y-92259998I0J-249998D01*
G01*
G37*
%TD.AperFunction*%
%TO.P,R17,1*%
%TO.N,/A7*%
%TA.AperFunction,SMDPad,CuDef*%
G36*
G01*
X129187000Y-92259998D02*
X129187000Y-93160002D01*
G75*
G02*
X128937002Y-93410000I-249998J0D01*
G01*
X128411998Y-93410000D01*
G75*
G02*
X128162000Y-93160002I0J249998D01*
G01*
X128162000Y-92259998D01*
G75*
G02*
X128411998Y-92010000I249998J0D01*
G01*
X128937002Y-92010000D01*
G75*
G02*
X129187000Y-92259998I0J-249998D01*
G01*
G37*
%TD.AperFunction*%
%TD*%
D17*
%TO.P,J3,10*%
%TO.N,/M3*%
X103632000Y-96520000D03*
%TO.P,J3,9*%
%TO.N,/M4*%
X106172000Y-96520000D03*
%TO.P,J3,8*%
%TO.N,/M2*%
X103632000Y-99060000D03*
%TO.P,J3,7*%
%TO.N,/Mid_LED*%
X106172000Y-99060000D03*
%TO.P,J3,6*%
%TO.N,/M1*%
X103632000Y-101600000D03*
%TO.P,J3,5*%
%TO.N,/UV_Boost*%
X106172000Y-101600000D03*
%TO.P,J3,4*%
%TO.N,/GoW*%
X103632000Y-104140000D03*
%TO.P,J3,3*%
%TO.N,Net-(F6-Pad1)*%
X106172000Y-104140000D03*
%TO.P,J3,2*%
%TO.N,/HVACb*%
X103632000Y-106680000D03*
D18*
%TO.P,J3,1*%
%TO.N,/HVACa*%
X106172000Y-106680000D03*
%TD*%
%TO.P,R3,2*%
%TO.N,GND*%
%TA.AperFunction,SMDPad,CuDef*%
G36*
G01*
X114611998Y-102508000D02*
X115512002Y-102508000D01*
G75*
G02*
X115762000Y-102757998I0J-249998D01*
G01*
X115762000Y-103283002D01*
G75*
G02*
X115512002Y-103533000I-249998J0D01*
G01*
X114611998Y-103533000D01*
G75*
G02*
X114362000Y-103283002I0J249998D01*
G01*
X114362000Y-102757998D01*
G75*
G02*
X114611998Y-102508000I249998J0D01*
G01*
G37*
%TD.AperFunction*%
%TO.P,R3,1*%
%TO.N,Net-(A1-Pad7)*%
%TA.AperFunction,SMDPad,CuDef*%
G36*
G01*
X114611998Y-100683000D02*
X115512002Y-100683000D01*
G75*
G02*
X115762000Y-100932998I0J-249998D01*
G01*
X115762000Y-101458002D01*
G75*
G02*
X115512002Y-101708000I-249998J0D01*
G01*
X114611998Y-101708000D01*
G75*
G02*
X114362000Y-101458002I0J249998D01*
G01*
X114362000Y-100932998D01*
G75*
G02*
X114611998Y-100683000I249998J0D01*
G01*
G37*
%TD.AperFunction*%
%TD*%
%TO.P,R16,2*%
%TO.N,GND*%
%TA.AperFunction,SMDPad,CuDef*%
G36*
G01*
X147061500Y-116782002D02*
X147061500Y-115881998D01*
G75*
G02*
X147311498Y-115632000I249998J0D01*
G01*
X147836502Y-115632000D01*
G75*
G02*
X148086500Y-115881998I0J-249998D01*
G01*
X148086500Y-116782002D01*
G75*
G02*
X147836502Y-117032000I-249998J0D01*
G01*
X147311498Y-117032000D01*
G75*
G02*
X147061500Y-116782002I0J249998D01*
G01*
G37*
%TD.AperFunction*%
%TO.P,R16,1*%
%TO.N,/A0*%
%TA.AperFunction,SMDPad,CuDef*%
G36*
G01*
X145236500Y-116782002D02*
X145236500Y-115881998D01*
G75*
G02*
X145486498Y-115632000I249998J0D01*
G01*
X146011502Y-115632000D01*
G75*
G02*
X146261500Y-115881998I0J-249998D01*
G01*
X146261500Y-116782002D01*
G75*
G02*
X146011502Y-117032000I-249998J0D01*
G01*
X145486498Y-117032000D01*
G75*
G02*
X145236500Y-116782002I0J249998D01*
G01*
G37*
%TD.AperFunction*%
%TD*%
%TO.P,R15,2*%
%TO.N,Vdrive*%
%TA.AperFunction,SMDPad,CuDef*%
G36*
G01*
X106661000Y-69907998D02*
X106661000Y-70808002D01*
G75*
G02*
X106411002Y-71058000I-249998J0D01*
G01*
X105885998Y-71058000D01*
G75*
G02*
X105636000Y-70808002I0J249998D01*
G01*
X105636000Y-69907998D01*
G75*
G02*
X105885998Y-69658000I249998J0D01*
G01*
X106411002Y-69658000D01*
G75*
G02*
X106661000Y-69907998I0J-249998D01*
G01*
G37*
%TD.AperFunction*%
%TO.P,R15,1*%
%TO.N,Net-(PS2-Pad1)*%
%TA.AperFunction,SMDPad,CuDef*%
G36*
G01*
X108486000Y-69907998D02*
X108486000Y-70808002D01*
G75*
G02*
X108236002Y-71058000I-249998J0D01*
G01*
X107710998Y-71058000D01*
G75*
G02*
X107461000Y-70808002I0J249998D01*
G01*
X107461000Y-69907998D01*
G75*
G02*
X107710998Y-69658000I249998J0D01*
G01*
X108236002Y-69658000D01*
G75*
G02*
X108486000Y-69907998I0J-249998D01*
G01*
G37*
%TD.AperFunction*%
%TD*%
%TO.P,R14,2*%
%TO.N,Vdrive*%
%TA.AperFunction,SMDPad,CuDef*%
G36*
G01*
X151238000Y-57207998D02*
X151238000Y-58108002D01*
G75*
G02*
X150988002Y-58358000I-249998J0D01*
G01*
X150462998Y-58358000D01*
G75*
G02*
X150213000Y-58108002I0J249998D01*
G01*
X150213000Y-57207998D01*
G75*
G02*
X150462998Y-56958000I249998J0D01*
G01*
X150988002Y-56958000D01*
G75*
G02*
X151238000Y-57207998I0J-249998D01*
G01*
G37*
%TD.AperFunction*%
%TO.P,R14,1*%
%TO.N,Net-(PS1-Pad1)*%
%TA.AperFunction,SMDPad,CuDef*%
G36*
G01*
X153063000Y-57207998D02*
X153063000Y-58108002D01*
G75*
G02*
X152813002Y-58358000I-249998J0D01*
G01*
X152287998Y-58358000D01*
G75*
G02*
X152038000Y-58108002I0J249998D01*
G01*
X152038000Y-57207998D01*
G75*
G02*
X152287998Y-56958000I249998J0D01*
G01*
X152813002Y-56958000D01*
G75*
G02*
X153063000Y-57207998I0J-249998D01*
G01*
G37*
%TD.AperFunction*%
%TD*%
%TO.P,R13,2*%
%TO.N,Net-(D3-Pad2)*%
%TA.AperFunction,SMDPad,CuDef*%
G36*
G01*
X158184002Y-82404000D02*
X157283998Y-82404000D01*
G75*
G02*
X157034000Y-82154002I0J249998D01*
G01*
X157034000Y-81628998D01*
G75*
G02*
X157283998Y-81379000I249998J0D01*
G01*
X158184002Y-81379000D01*
G75*
G02*
X158434000Y-81628998I0J-249998D01*
G01*
X158434000Y-82154002D01*
G75*
G02*
X158184002Y-82404000I-249998J0D01*
G01*
G37*
%TD.AperFunction*%
%TO.P,R13,1*%
%TO.N,+3V3*%
%TA.AperFunction,SMDPad,CuDef*%
G36*
G01*
X158184002Y-84229000D02*
X157283998Y-84229000D01*
G75*
G02*
X157034000Y-83979002I0J249998D01*
G01*
X157034000Y-83453998D01*
G75*
G02*
X157283998Y-83204000I249998J0D01*
G01*
X158184002Y-83204000D01*
G75*
G02*
X158434000Y-83453998I0J-249998D01*
G01*
X158434000Y-83979002D01*
G75*
G02*
X158184002Y-84229000I-249998J0D01*
G01*
G37*
%TD.AperFunction*%
%TD*%
%TO.P,R12,2*%
%TO.N,GND*%
%TA.AperFunction,SMDPad,CuDef*%
G36*
G01*
X114865998Y-109112000D02*
X115766002Y-109112000D01*
G75*
G02*
X116016000Y-109361998I0J-249998D01*
G01*
X116016000Y-109887002D01*
G75*
G02*
X115766002Y-110137000I-249998J0D01*
G01*
X114865998Y-110137000D01*
G75*
G02*
X114616000Y-109887002I0J249998D01*
G01*
X114616000Y-109361998D01*
G75*
G02*
X114865998Y-109112000I249998J0D01*
G01*
G37*
%TD.AperFunction*%
%TO.P,R12,1*%
%TO.N,Net-(A1-Pad8)*%
%TA.AperFunction,SMDPad,CuDef*%
G36*
G01*
X114865998Y-107287000D02*
X115766002Y-107287000D01*
G75*
G02*
X116016000Y-107536998I0J-249998D01*
G01*
X116016000Y-108062002D01*
G75*
G02*
X115766002Y-108312000I-249998J0D01*
G01*
X114865998Y-108312000D01*
G75*
G02*
X114616000Y-108062002I0J249998D01*
G01*
X114616000Y-107536998D01*
G75*
G02*
X114865998Y-107287000I249998J0D01*
G01*
G37*
%TD.AperFunction*%
%TD*%
%TO.P,R11,2*%
%TO.N,GND*%
%TA.AperFunction,SMDPad,CuDef*%
G36*
G01*
X114865998Y-118002000D02*
X115766002Y-118002000D01*
G75*
G02*
X116016000Y-118251998I0J-249998D01*
G01*
X116016000Y-118777002D01*
G75*
G02*
X115766002Y-119027000I-249998J0D01*
G01*
X114865998Y-119027000D01*
G75*
G02*
X114616000Y-118777002I0J249998D01*
G01*
X114616000Y-118251998D01*
G75*
G02*
X114865998Y-118002000I249998J0D01*
G01*
G37*
%TD.AperFunction*%
%TO.P,R11,1*%
%TO.N,Net-(A1-Pad10)*%
%TA.AperFunction,SMDPad,CuDef*%
G36*
G01*
X114865998Y-116177000D02*
X115766002Y-116177000D01*
G75*
G02*
X116016000Y-116426998I0J-249998D01*
G01*
X116016000Y-116952002D01*
G75*
G02*
X115766002Y-117202000I-249998J0D01*
G01*
X114865998Y-117202000D01*
G75*
G02*
X114616000Y-116952002I0J249998D01*
G01*
X114616000Y-116426998D01*
G75*
G02*
X114865998Y-116177000I249998J0D01*
G01*
G37*
%TD.AperFunction*%
%TD*%
%TO.P,R10,2*%
%TO.N,GND*%
%TA.AperFunction,SMDPad,CuDef*%
G36*
G01*
X114865998Y-113684000D02*
X115766002Y-113684000D01*
G75*
G02*
X116016000Y-113933998I0J-249998D01*
G01*
X116016000Y-114459002D01*
G75*
G02*
X115766002Y-114709000I-249998J0D01*
G01*
X114865998Y-114709000D01*
G75*
G02*
X114616000Y-114459002I0J249998D01*
G01*
X114616000Y-113933998D01*
G75*
G02*
X114865998Y-113684000I249998J0D01*
G01*
G37*
%TD.AperFunction*%
%TO.P,R10,1*%
%TO.N,Net-(A1-Pad9)*%
%TA.AperFunction,SMDPad,CuDef*%
G36*
G01*
X114865998Y-111859000D02*
X115766002Y-111859000D01*
G75*
G02*
X116016000Y-112108998I0J-249998D01*
G01*
X116016000Y-112634002D01*
G75*
G02*
X115766002Y-112884000I-249998J0D01*
G01*
X114865998Y-112884000D01*
G75*
G02*
X114616000Y-112634002I0J249998D01*
G01*
X114616000Y-112108998D01*
G75*
G02*
X114865998Y-111859000I249998J0D01*
G01*
G37*
%TD.AperFunction*%
%TD*%
%TO.P,R8,2*%
%TO.N,Net-(R8-Pad2)*%
%TA.AperFunction,SMDPad,CuDef*%
G36*
G01*
X155048000Y-118421998D02*
X155048000Y-119322002D01*
G75*
G02*
X154798002Y-119572000I-249998J0D01*
G01*
X154272998Y-119572000D01*
G75*
G02*
X154023000Y-119322002I0J249998D01*
G01*
X154023000Y-118421998D01*
G75*
G02*
X154272998Y-118172000I249998J0D01*
G01*
X154798002Y-118172000D01*
G75*
G02*
X155048000Y-118421998I0J-249998D01*
G01*
G37*
%TD.AperFunction*%
%TO.P,R8,1*%
%TO.N,+3V3*%
%TA.AperFunction,SMDPad,CuDef*%
G36*
G01*
X156873000Y-118421998D02*
X156873000Y-119322002D01*
G75*
G02*
X156623002Y-119572000I-249998J0D01*
G01*
X156097998Y-119572000D01*
G75*
G02*
X155848000Y-119322002I0J249998D01*
G01*
X155848000Y-118421998D01*
G75*
G02*
X156097998Y-118172000I249998J0D01*
G01*
X156623002Y-118172000D01*
G75*
G02*
X156873000Y-118421998I0J-249998D01*
G01*
G37*
%TD.AperFunction*%
%TD*%
%TO.P,R6,2*%
%TO.N,Net-(R6-Pad2)*%
%TA.AperFunction,SMDPad,CuDef*%
G36*
G01*
X155048000Y-114865998D02*
X155048000Y-115766002D01*
G75*
G02*
X154798002Y-116016000I-249998J0D01*
G01*
X154272998Y-116016000D01*
G75*
G02*
X154023000Y-115766002I0J249998D01*
G01*
X154023000Y-114865998D01*
G75*
G02*
X154272998Y-114616000I249998J0D01*
G01*
X154798002Y-114616000D01*
G75*
G02*
X155048000Y-114865998I0J-249998D01*
G01*
G37*
%TD.AperFunction*%
%TO.P,R6,1*%
%TO.N,+3V3*%
%TA.AperFunction,SMDPad,CuDef*%
G36*
G01*
X156873000Y-114865998D02*
X156873000Y-115766002D01*
G75*
G02*
X156623002Y-116016000I-249998J0D01*
G01*
X156097998Y-116016000D01*
G75*
G02*
X155848000Y-115766002I0J249998D01*
G01*
X155848000Y-114865998D01*
G75*
G02*
X156097998Y-114616000I249998J0D01*
G01*
X156623002Y-114616000D01*
G75*
G02*
X156873000Y-114865998I0J-249998D01*
G01*
G37*
%TD.AperFunction*%
%TD*%
%TO.P,R4,2*%
%TO.N,Net-(R4-Pad2)*%
%TA.AperFunction,SMDPad,CuDef*%
G36*
G01*
X155048000Y-120961998D02*
X155048000Y-121862002D01*
G75*
G02*
X154798002Y-122112000I-249998J0D01*
G01*
X154272998Y-122112000D01*
G75*
G02*
X154023000Y-121862002I0J249998D01*
G01*
X154023000Y-120961998D01*
G75*
G02*
X154272998Y-120712000I249998J0D01*
G01*
X154798002Y-120712000D01*
G75*
G02*
X155048000Y-120961998I0J-249998D01*
G01*
G37*
%TD.AperFunction*%
%TO.P,R4,1*%
%TO.N,+3V3*%
%TA.AperFunction,SMDPad,CuDef*%
G36*
G01*
X156873000Y-120961998D02*
X156873000Y-121862002D01*
G75*
G02*
X156623002Y-122112000I-249998J0D01*
G01*
X156097998Y-122112000D01*
G75*
G02*
X155848000Y-121862002I0J249998D01*
G01*
X155848000Y-120961998D01*
G75*
G02*
X156097998Y-120712000I249998J0D01*
G01*
X156623002Y-120712000D01*
G75*
G02*
X156873000Y-120961998I0J-249998D01*
G01*
G37*
%TD.AperFunction*%
%TD*%
%TO.P,R2,2*%
%TO.N,GND*%
%TA.AperFunction,SMDPad,CuDef*%
G36*
G01*
X114611998Y-98698000D02*
X115512002Y-98698000D01*
G75*
G02*
X115762000Y-98947998I0J-249998D01*
G01*
X115762000Y-99473002D01*
G75*
G02*
X115512002Y-99723000I-249998J0D01*
G01*
X114611998Y-99723000D01*
G75*
G02*
X114362000Y-99473002I0J249998D01*
G01*
X114362000Y-98947998D01*
G75*
G02*
X114611998Y-98698000I249998J0D01*
G01*
G37*
%TD.AperFunction*%
%TO.P,R2,1*%
%TO.N,Net-(A1-Pad6)*%
%TA.AperFunction,SMDPad,CuDef*%
G36*
G01*
X114611998Y-96873000D02*
X115512002Y-96873000D01*
G75*
G02*
X115762000Y-97122998I0J-249998D01*
G01*
X115762000Y-97648002D01*
G75*
G02*
X115512002Y-97898000I-249998J0D01*
G01*
X114611998Y-97898000D01*
G75*
G02*
X114362000Y-97648002I0J249998D01*
G01*
X114362000Y-97122998D01*
G75*
G02*
X114611998Y-96873000I249998J0D01*
G01*
G37*
%TD.AperFunction*%
%TD*%
%TO.P,R1,2*%
%TO.N,GND*%
%TA.AperFunction,SMDPad,CuDef*%
G36*
G01*
X114611998Y-94380000D02*
X115512002Y-94380000D01*
G75*
G02*
X115762000Y-94629998I0J-249998D01*
G01*
X115762000Y-95155002D01*
G75*
G02*
X115512002Y-95405000I-249998J0D01*
G01*
X114611998Y-95405000D01*
G75*
G02*
X114362000Y-95155002I0J249998D01*
G01*
X114362000Y-94629998D01*
G75*
G02*
X114611998Y-94380000I249998J0D01*
G01*
G37*
%TD.AperFunction*%
%TO.P,R1,1*%
%TO.N,Net-(A1-Pad5)*%
%TA.AperFunction,SMDPad,CuDef*%
G36*
G01*
X114611998Y-92555000D02*
X115512002Y-92555000D01*
G75*
G02*
X115762000Y-92804998I0J-249998D01*
G01*
X115762000Y-93330002D01*
G75*
G02*
X115512002Y-93580000I-249998J0D01*
G01*
X114611998Y-93580000D01*
G75*
G02*
X114362000Y-93330002I0J249998D01*
G01*
X114362000Y-92804998D01*
G75*
G02*
X114611998Y-92555000I249998J0D01*
G01*
G37*
%TD.AperFunction*%
%TD*%
%TO.P,C20,2*%
%TO.N,GND*%
%TA.AperFunction,SMDPad,CuDef*%
G36*
G01*
X165158000Y-82329000D02*
X165158000Y-83279000D01*
G75*
G02*
X164908000Y-83529000I-250000J0D01*
G01*
X164408000Y-83529000D01*
G75*
G02*
X164158000Y-83279000I0J250000D01*
G01*
X164158000Y-82329000D01*
G75*
G02*
X164408000Y-82079000I250000J0D01*
G01*
X164908000Y-82079000D01*
G75*
G02*
X165158000Y-82329000I0J-250000D01*
G01*
G37*
%TD.AperFunction*%
%TO.P,C20,1*%
%TO.N,/Motors*%
%TA.AperFunction,SMDPad,CuDef*%
G36*
G01*
X167058000Y-82329000D02*
X167058000Y-83279000D01*
G75*
G02*
X166808000Y-83529000I-250000J0D01*
G01*
X166308000Y-83529000D01*
G75*
G02*
X166058000Y-83279000I0J250000D01*
G01*
X166058000Y-82329000D01*
G75*
G02*
X166308000Y-82079000I250000J0D01*
G01*
X166808000Y-82079000D01*
G75*
G02*
X167058000Y-82329000I0J-250000D01*
G01*
G37*
%TD.AperFunction*%
%TD*%
%TO.P,C19,2*%
%TO.N,GND*%
%TA.AperFunction,SMDPad,CuDef*%
G36*
G01*
X165067000Y-115120000D02*
X164117000Y-115120000D01*
G75*
G02*
X163867000Y-114870000I0J250000D01*
G01*
X163867000Y-114370000D01*
G75*
G02*
X164117000Y-114120000I250000J0D01*
G01*
X165067000Y-114120000D01*
G75*
G02*
X165317000Y-114370000I0J-250000D01*
G01*
X165317000Y-114870000D01*
G75*
G02*
X165067000Y-115120000I-250000J0D01*
G01*
G37*
%TD.AperFunction*%
%TO.P,C19,1*%
%TO.N,/Motors*%
%TA.AperFunction,SMDPad,CuDef*%
G36*
G01*
X165067000Y-117020000D02*
X164117000Y-117020000D01*
G75*
G02*
X163867000Y-116770000I0J250000D01*
G01*
X163867000Y-116270000D01*
G75*
G02*
X164117000Y-116020000I250000J0D01*
G01*
X165067000Y-116020000D01*
G75*
G02*
X165317000Y-116270000I0J-250000D01*
G01*
X165317000Y-116770000D01*
G75*
G02*
X165067000Y-117020000I-250000J0D01*
G01*
G37*
%TD.AperFunction*%
%TD*%
%TO.P,C18,2*%
%TO.N,GND*%
%TA.AperFunction,SMDPad,CuDef*%
G36*
G01*
X168344000Y-99789000D02*
X168344000Y-98839000D01*
G75*
G02*
X168594000Y-98589000I250000J0D01*
G01*
X169094000Y-98589000D01*
G75*
G02*
X169344000Y-98839000I0J-250000D01*
G01*
X169344000Y-99789000D01*
G75*
G02*
X169094000Y-100039000I-250000J0D01*
G01*
X168594000Y-100039000D01*
G75*
G02*
X168344000Y-99789000I0J250000D01*
G01*
G37*
%TD.AperFunction*%
%TO.P,C18,1*%
%TO.N,/Motors*%
%TA.AperFunction,SMDPad,CuDef*%
G36*
G01*
X166444000Y-99789000D02*
X166444000Y-98839000D01*
G75*
G02*
X166694000Y-98589000I250000J0D01*
G01*
X167194000Y-98589000D01*
G75*
G02*
X167444000Y-98839000I0J-250000D01*
G01*
X167444000Y-99789000D01*
G75*
G02*
X167194000Y-100039000I-250000J0D01*
G01*
X166694000Y-100039000D01*
G75*
G02*
X166444000Y-99789000I0J250000D01*
G01*
G37*
%TD.AperFunction*%
%TD*%
%TO.P,C17,2*%
%TO.N,GND*%
%TA.AperFunction,SMDPad,CuDef*%
G36*
G01*
X164650000Y-75217000D02*
X164650000Y-76167000D01*
G75*
G02*
X164400000Y-76417000I-250000J0D01*
G01*
X163900000Y-76417000D01*
G75*
G02*
X163650000Y-76167000I0J250000D01*
G01*
X163650000Y-75217000D01*
G75*
G02*
X163900000Y-74967000I250000J0D01*
G01*
X164400000Y-74967000D01*
G75*
G02*
X164650000Y-75217000I0J-250000D01*
G01*
G37*
%TD.AperFunction*%
%TO.P,C17,1*%
%TO.N,/Motors*%
%TA.AperFunction,SMDPad,CuDef*%
G36*
G01*
X166550000Y-75217000D02*
X166550000Y-76167000D01*
G75*
G02*
X166300000Y-76417000I-250000J0D01*
G01*
X165800000Y-76417000D01*
G75*
G02*
X165550000Y-76167000I0J250000D01*
G01*
X165550000Y-75217000D01*
G75*
G02*
X165800000Y-74967000I250000J0D01*
G01*
X166300000Y-74967000D01*
G75*
G02*
X166550000Y-75217000I0J-250000D01*
G01*
G37*
%TD.AperFunction*%
%TD*%
%TO.P,C16,2*%
%TO.N,GND*%
%TA.AperFunction,SMDPad,CuDef*%
G36*
G01*
X131122000Y-117889000D02*
X131122000Y-118839000D01*
G75*
G02*
X130872000Y-119089000I-250000J0D01*
G01*
X130372000Y-119089000D01*
G75*
G02*
X130122000Y-118839000I0J250000D01*
G01*
X130122000Y-117889000D01*
G75*
G02*
X130372000Y-117639000I250000J0D01*
G01*
X130872000Y-117639000D01*
G75*
G02*
X131122000Y-117889000I0J-250000D01*
G01*
G37*
%TD.AperFunction*%
%TO.P,C16,1*%
%TO.N,+3V3*%
%TA.AperFunction,SMDPad,CuDef*%
G36*
G01*
X133022000Y-117889000D02*
X133022000Y-118839000D01*
G75*
G02*
X132772000Y-119089000I-250000J0D01*
G01*
X132272000Y-119089000D01*
G75*
G02*
X132022000Y-118839000I0J250000D01*
G01*
X132022000Y-117889000D01*
G75*
G02*
X132272000Y-117639000I250000J0D01*
G01*
X132772000Y-117639000D01*
G75*
G02*
X133022000Y-117889000I0J-250000D01*
G01*
G37*
%TD.AperFunction*%
%TD*%
%TO.P,C9,2*%
%TO.N,GND*%
%TA.AperFunction,SMDPad,CuDef*%
G36*
G01*
X132367000Y-87318000D02*
X133317000Y-87318000D01*
G75*
G02*
X133567000Y-87568000I0J-250000D01*
G01*
X133567000Y-88068000D01*
G75*
G02*
X133317000Y-88318000I-250000J0D01*
G01*
X132367000Y-88318000D01*
G75*
G02*
X132117000Y-88068000I0J250000D01*
G01*
X132117000Y-87568000D01*
G75*
G02*
X132367000Y-87318000I250000J0D01*
G01*
G37*
%TD.AperFunction*%
%TO.P,C9,1*%
%TO.N,+5V*%
%TA.AperFunction,SMDPad,CuDef*%
G36*
G01*
X132367000Y-85418000D02*
X133317000Y-85418000D01*
G75*
G02*
X133567000Y-85668000I0J-250000D01*
G01*
X133567000Y-86168000D01*
G75*
G02*
X133317000Y-86418000I-250000J0D01*
G01*
X132367000Y-86418000D01*
G75*
G02*
X132117000Y-86168000I0J250000D01*
G01*
X132117000Y-85668000D01*
G75*
G02*
X132367000Y-85418000I250000J0D01*
G01*
G37*
%TD.AperFunction*%
%TD*%
%TO.P,C8,2*%
%TO.N,GND*%
%TA.AperFunction,SMDPad,CuDef*%
G36*
G01*
X147378000Y-59215000D02*
X147378000Y-60165000D01*
G75*
G02*
X147128000Y-60415000I-250000J0D01*
G01*
X146628000Y-60415000D01*
G75*
G02*
X146378000Y-60165000I0J250000D01*
G01*
X146378000Y-59215000D01*
G75*
G02*
X146628000Y-58965000I250000J0D01*
G01*
X147128000Y-58965000D01*
G75*
G02*
X147378000Y-59215000I0J-250000D01*
G01*
G37*
%TD.AperFunction*%
%TO.P,C8,1*%
%TO.N,+5V*%
%TA.AperFunction,SMDPad,CuDef*%
G36*
G01*
X149278000Y-59215000D02*
X149278000Y-60165000D01*
G75*
G02*
X149028000Y-60415000I-250000J0D01*
G01*
X148528000Y-60415000D01*
G75*
G02*
X148278000Y-60165000I0J250000D01*
G01*
X148278000Y-59215000D01*
G75*
G02*
X148528000Y-58965000I250000J0D01*
G01*
X149028000Y-58965000D01*
G75*
G02*
X149278000Y-59215000I0J-250000D01*
G01*
G37*
%TD.AperFunction*%
%TD*%
%TO.P,C4,2*%
%TO.N,Net-(C4-Pad2)*%
%TA.AperFunction,SMDPad,CuDef*%
G36*
G01*
X141790000Y-67597000D02*
X141790000Y-68547000D01*
G75*
G02*
X141540000Y-68797000I-250000J0D01*
G01*
X141040000Y-68797000D01*
G75*
G02*
X140790000Y-68547000I0J250000D01*
G01*
X140790000Y-67597000D01*
G75*
G02*
X141040000Y-67347000I250000J0D01*
G01*
X141540000Y-67347000D01*
G75*
G02*
X141790000Y-67597000I0J-250000D01*
G01*
G37*
%TD.AperFunction*%
%TO.P,C4,1*%
%TO.N,GND*%
%TA.AperFunction,SMDPad,CuDef*%
G36*
G01*
X143690000Y-67597000D02*
X143690000Y-68547000D01*
G75*
G02*
X143440000Y-68797000I-250000J0D01*
G01*
X142940000Y-68797000D01*
G75*
G02*
X142690000Y-68547000I0J250000D01*
G01*
X142690000Y-67597000D01*
G75*
G02*
X142940000Y-67347000I250000J0D01*
G01*
X143440000Y-67347000D01*
G75*
G02*
X143690000Y-67597000I0J-250000D01*
G01*
G37*
%TD.AperFunction*%
%TD*%
%TO.P,C3,2*%
%TO.N,GND*%
%TA.AperFunction,SMDPad,CuDef*%
G36*
G01*
X142436000Y-78961000D02*
X142436000Y-78011000D01*
G75*
G02*
X142686000Y-77761000I250000J0D01*
G01*
X143186000Y-77761000D01*
G75*
G02*
X143436000Y-78011000I0J-250000D01*
G01*
X143436000Y-78961000D01*
G75*
G02*
X143186000Y-79211000I-250000J0D01*
G01*
X142686000Y-79211000D01*
G75*
G02*
X142436000Y-78961000I0J250000D01*
G01*
G37*
%TD.AperFunction*%
%TO.P,C3,1*%
%TO.N,Net-(C3-Pad1)*%
%TA.AperFunction,SMDPad,CuDef*%
G36*
G01*
X140536000Y-78961000D02*
X140536000Y-78011000D01*
G75*
G02*
X140786000Y-77761000I250000J0D01*
G01*
X141286000Y-77761000D01*
G75*
G02*
X141536000Y-78011000I0J-250000D01*
G01*
X141536000Y-78961000D01*
G75*
G02*
X141286000Y-79211000I-250000J0D01*
G01*
X140786000Y-79211000D01*
G75*
G02*
X140536000Y-78961000I0J250000D01*
G01*
G37*
%TD.AperFunction*%
%TD*%
%TO.P,C2,2*%
%TO.N,Net-(C2-Pad2)*%
%TA.AperFunction,SMDPad,CuDef*%
G36*
G01*
X136619000Y-70924000D02*
X135669000Y-70924000D01*
G75*
G02*
X135419000Y-70674000I0J250000D01*
G01*
X135419000Y-70174000D01*
G75*
G02*
X135669000Y-69924000I250000J0D01*
G01*
X136619000Y-69924000D01*
G75*
G02*
X136869000Y-70174000I0J-250000D01*
G01*
X136869000Y-70674000D01*
G75*
G02*
X136619000Y-70924000I-250000J0D01*
G01*
G37*
%TD.AperFunction*%
%TO.P,C2,1*%
%TO.N,Net-(C2-Pad1)*%
%TA.AperFunction,SMDPad,CuDef*%
G36*
G01*
X136619000Y-72824000D02*
X135669000Y-72824000D01*
G75*
G02*
X135419000Y-72574000I0J250000D01*
G01*
X135419000Y-72074000D01*
G75*
G02*
X135669000Y-71824000I250000J0D01*
G01*
X136619000Y-71824000D01*
G75*
G02*
X136869000Y-72074000I0J-250000D01*
G01*
X136869000Y-72574000D01*
G75*
G02*
X136619000Y-72824000I-250000J0D01*
G01*
G37*
%TD.AperFunction*%
%TD*%
D22*
%TO.P,J1,2*%
%TO.N,Net-(J1-Pad2)*%
X142240000Y-118892000D03*
%TO.P,J1,1*%
%TO.N,Net-(J1-Pad1)*%
%TA.AperFunction,ComponentPad*%
G36*
G01*
X142715000Y-120592000D02*
X141765000Y-120592000D01*
G75*
G02*
X141540000Y-120367000I0J225000D01*
G01*
X141540000Y-119917000D01*
G75*
G02*
X141765000Y-119692000I225000J0D01*
G01*
X142715000Y-119692000D01*
G75*
G02*
X142940000Y-119917000I0J-225000D01*
G01*
X142940000Y-120367000D01*
G75*
G02*
X142715000Y-120592000I-225000J0D01*
G01*
G37*
%TD.AperFunction*%
%TD*%
D14*
%TO.P,TP1,1*%
%TO.N,Net-(A1-Pad28)*%
X130810000Y-78994000D03*
%TD*%
D23*
%TO.P,PS1,1*%
%TO.N,Net-(PS1-Pad1)*%
X151638000Y-53848000D03*
D24*
%TO.P,PS1,2*%
%TO.N,Vdrive*%
X149098000Y-53848000D03*
%TO.P,PS1,3*%
%TO.N,GND*%
X146558000Y-53848000D03*
%TO.P,PS1,4*%
%TO.N,Net-(D2-Pad2)*%
X144018000Y-53848000D03*
%TD*%
D23*
%TO.P,PS2,1*%
%TO.N,Net-(PS2-Pad1)*%
X107950000Y-66040000D03*
D24*
%TO.P,PS2,2*%
%TO.N,Vdrive*%
X105410000Y-66040000D03*
%TO.P,PS2,3*%
%TO.N,GND*%
X102870000Y-66040000D03*
%TO.P,PS2,4*%
%TO.N,Net-(D6-Pad2)*%
X100330000Y-66040000D03*
%TD*%
%TO.P,C1,2*%
%TO.N,Net-(C1-Pad2)*%
%TA.AperFunction,SMDPad,CuDef*%
G36*
G01*
X136619000Y-74734000D02*
X135669000Y-74734000D01*
G75*
G02*
X135419000Y-74484000I0J250000D01*
G01*
X135419000Y-73984000D01*
G75*
G02*
X135669000Y-73734000I250000J0D01*
G01*
X136619000Y-73734000D01*
G75*
G02*
X136869000Y-73984000I0J-250000D01*
G01*
X136869000Y-74484000D01*
G75*
G02*
X136619000Y-74734000I-250000J0D01*
G01*
G37*
%TD.AperFunction*%
%TO.P,C1,1*%
%TO.N,Net-(C1-Pad1)*%
%TA.AperFunction,SMDPad,CuDef*%
G36*
G01*
X136619000Y-76634000D02*
X135669000Y-76634000D01*
G75*
G02*
X135419000Y-76384000I0J250000D01*
G01*
X135419000Y-75884000D01*
G75*
G02*
X135669000Y-75634000I250000J0D01*
G01*
X136619000Y-75634000D01*
G75*
G02*
X136869000Y-75884000I0J-250000D01*
G01*
X136869000Y-76384000D01*
G75*
G02*
X136619000Y-76634000I-250000J0D01*
G01*
G37*
%TD.AperFunction*%
%TD*%
D25*
%TO.P,U6,16*%
%TO.N,+3V3*%
X145796000Y-105096000D03*
%TO.P,U6,15*%
%TO.N,Net-(Q2-Pad8)*%
X145796000Y-105746000D03*
%TO.P,U6,14*%
%TO.N,Net-(U5-Pad9)*%
X145796000Y-106396000D03*
%TO.P,U6,13*%
%TO.N,GND*%
X145796000Y-107046000D03*
%TO.P,U6,12*%
%TO.N,Net-(A1-Pad13)*%
X145796000Y-107696000D03*
%TO.P,U6,11*%
%TO.N,Net-(A1-Pad12)*%
X145796000Y-108346000D03*
%TO.P,U6,10*%
%TO.N,Net-(R19-Pad2)*%
X145796000Y-108996000D03*
%TO.P,U6,9*%
%TO.N,Net-(U6-Pad9)*%
X145796000Y-109646000D03*
%TO.P,U6,8*%
%TO.N,GND*%
X151596000Y-109646000D03*
%TO.P,U6,7*%
%TO.N,Net-(Q2-Pad1)*%
X151596000Y-108996000D03*
%TO.P,U6,6*%
%TO.N,Net-(Q2-Pad2)*%
X151596000Y-108346000D03*
%TO.P,U6,5*%
%TO.N,Net-(Q2-Pad3)*%
X151596000Y-107696000D03*
%TO.P,U6,4*%
%TO.N,Net-(Q2-Pad4)*%
X151596000Y-107046000D03*
%TO.P,U6,3*%
%TO.N,Net-(Q2-Pad5)*%
X151596000Y-106396000D03*
%TO.P,U6,2*%
%TO.N,Net-(Q2-Pad6)*%
X151596000Y-105746000D03*
%TO.P,U6,1*%
%TO.N,Net-(Q2-Pad7)*%
X151596000Y-105096000D03*
%TD*%
%TO.P,U5,16*%
%TO.N,+3V3*%
X145690000Y-95261000D03*
%TO.P,U5,15*%
%TO.N,Net-(Q1-Pad8)*%
X145690000Y-95911000D03*
%TO.P,U5,14*%
%TO.N,Net-(A1-Pad11)*%
X145690000Y-96561000D03*
%TO.P,U5,13*%
%TO.N,GND*%
X145690000Y-97211000D03*
%TO.P,U5,12*%
%TO.N,Net-(A1-Pad13)*%
X145690000Y-97861000D03*
%TO.P,U5,11*%
%TO.N,Net-(A1-Pad12)*%
X145690000Y-98511000D03*
%TO.P,U5,10*%
%TO.N,Net-(R19-Pad2)*%
X145690000Y-99161000D03*
%TO.P,U5,9*%
%TO.N,Net-(U5-Pad9)*%
X145690000Y-99811000D03*
%TO.P,U5,8*%
%TO.N,GND*%
X151490000Y-99811000D03*
%TO.P,U5,7*%
%TO.N,Net-(Q1-Pad1)*%
X151490000Y-99161000D03*
%TO.P,U5,6*%
%TO.N,Net-(Q1-Pad2)*%
X151490000Y-98511000D03*
%TO.P,U5,5*%
%TO.N,Net-(Q1-Pad3)*%
X151490000Y-97861000D03*
%TO.P,U5,4*%
%TO.N,Net-(Q1-Pad4)*%
X151490000Y-97211000D03*
%TO.P,U5,3*%
%TO.N,Net-(Q1-Pad5)*%
X151490000Y-96561000D03*
%TO.P,U5,2*%
%TO.N,Net-(Q1-Pad6)*%
X151490000Y-95911000D03*
%TO.P,U5,1*%
%TO.N,Net-(Q1-Pad7)*%
X151490000Y-95261000D03*
%TD*%
%TO.P,U4,8*%
%TO.N,+3V3*%
%TA.AperFunction,SMDPad,CuDef*%
G36*
G01*
X152713000Y-115223000D02*
X152513000Y-115223000D01*
G75*
G02*
X152413000Y-115123000I0J100000D01*
G01*
X152413000Y-113848000D01*
G75*
G02*
X152513000Y-113748000I100000J0D01*
G01*
X152713000Y-113748000D01*
G75*
G02*
X152813000Y-113848000I0J-100000D01*
G01*
X152813000Y-115123000D01*
G75*
G02*
X152713000Y-115223000I-100000J0D01*
G01*
G37*
%TD.AperFunction*%
%TO.P,U4,7*%
%TO.N,Net-(U4-Pad7)*%
%TA.AperFunction,SMDPad,CuDef*%
G36*
G01*
X152063000Y-115223000D02*
X151863000Y-115223000D01*
G75*
G02*
X151763000Y-115123000I0J100000D01*
G01*
X151763000Y-113848000D01*
G75*
G02*
X151863000Y-113748000I100000J0D01*
G01*
X152063000Y-113748000D01*
G75*
G02*
X152163000Y-113848000I0J-100000D01*
G01*
X152163000Y-115123000D01*
G75*
G02*
X152063000Y-115223000I-100000J0D01*
G01*
G37*
%TD.AperFunction*%
%TO.P,U4,6*%
%TO.N,/SCL*%
%TA.AperFunction,SMDPad,CuDef*%
G36*
G01*
X151413000Y-115223000D02*
X151213000Y-115223000D01*
G75*
G02*
X151113000Y-115123000I0J100000D01*
G01*
X151113000Y-113848000D01*
G75*
G02*
X151213000Y-113748000I100000J0D01*
G01*
X151413000Y-113748000D01*
G75*
G02*
X151513000Y-113848000I0J-100000D01*
G01*
X151513000Y-115123000D01*
G75*
G02*
X151413000Y-115223000I-100000J0D01*
G01*
G37*
%TD.AperFunction*%
%TO.P,U4,5*%
%TO.N,/SDA*%
%TA.AperFunction,SMDPad,CuDef*%
G36*
G01*
X150763000Y-115223000D02*
X150563000Y-115223000D01*
G75*
G02*
X150463000Y-115123000I0J100000D01*
G01*
X150463000Y-113848000D01*
G75*
G02*
X150563000Y-113748000I100000J0D01*
G01*
X150763000Y-113748000D01*
G75*
G02*
X150863000Y-113848000I0J-100000D01*
G01*
X150863000Y-115123000D01*
G75*
G02*
X150763000Y-115223000I-100000J0D01*
G01*
G37*
%TD.AperFunction*%
%TO.P,U4,4*%
%TO.N,GND*%
%TA.AperFunction,SMDPad,CuDef*%
G36*
G01*
X150763000Y-120948000D02*
X150563000Y-120948000D01*
G75*
G02*
X150463000Y-120848000I0J100000D01*
G01*
X150463000Y-119573000D01*
G75*
G02*
X150563000Y-119473000I100000J0D01*
G01*
X150763000Y-119473000D01*
G75*
G02*
X150863000Y-119573000I0J-100000D01*
G01*
X150863000Y-120848000D01*
G75*
G02*
X150763000Y-120948000I-100000J0D01*
G01*
G37*
%TD.AperFunction*%
%TO.P,U4,3*%
%TO.N,Net-(R4-Pad2)*%
%TA.AperFunction,SMDPad,CuDef*%
G36*
G01*
X151413000Y-120948000D02*
X151213000Y-120948000D01*
G75*
G02*
X151113000Y-120848000I0J100000D01*
G01*
X151113000Y-119573000D01*
G75*
G02*
X151213000Y-119473000I100000J0D01*
G01*
X151413000Y-119473000D01*
G75*
G02*
X151513000Y-119573000I0J-100000D01*
G01*
X151513000Y-120848000D01*
G75*
G02*
X151413000Y-120948000I-100000J0D01*
G01*
G37*
%TD.AperFunction*%
%TO.P,U4,2*%
%TO.N,Net-(R6-Pad2)*%
%TA.AperFunction,SMDPad,CuDef*%
G36*
G01*
X152063000Y-120948000D02*
X151863000Y-120948000D01*
G75*
G02*
X151763000Y-120848000I0J100000D01*
G01*
X151763000Y-119573000D01*
G75*
G02*
X151863000Y-119473000I100000J0D01*
G01*
X152063000Y-119473000D01*
G75*
G02*
X152163000Y-119573000I0J-100000D01*
G01*
X152163000Y-120848000D01*
G75*
G02*
X152063000Y-120948000I-100000J0D01*
G01*
G37*
%TD.AperFunction*%
%TO.P,U4,1*%
%TO.N,Net-(R8-Pad2)*%
%TA.AperFunction,SMDPad,CuDef*%
G36*
G01*
X152713000Y-120948000D02*
X152513000Y-120948000D01*
G75*
G02*
X152413000Y-120848000I0J100000D01*
G01*
X152413000Y-119573000D01*
G75*
G02*
X152513000Y-119473000I100000J0D01*
G01*
X152713000Y-119473000D01*
G75*
G02*
X152813000Y-119573000I0J-100000D01*
G01*
X152813000Y-120848000D01*
G75*
G02*
X152713000Y-120948000I-100000J0D01*
G01*
G37*
%TD.AperFunction*%
%TD*%
D26*
%TO.P,U3,16*%
%TO.N,Net-(U3-Pad16)*%
X145690000Y-75427000D03*
%TO.P,U3,15*%
%TO.N,+3V3*%
X145690000Y-74777000D03*
%TO.P,U3,14*%
%TO.N,GND*%
X145690000Y-74127000D03*
%TO.P,U3,13*%
%TO.N,Net-(JP4-Pad3)*%
X145690000Y-73477000D03*
%TO.P,U3,12*%
%TO.N,Net-(U3-Pad12)*%
X145690000Y-72827000D03*
%TO.P,U3,11*%
%TO.N,Net-(JP1-Pad3)*%
X145690000Y-72177000D03*
%TO.P,U3,10*%
%TO.N,Net-(U3-Pad10)*%
X145690000Y-71527000D03*
%TO.P,U3,9*%
%TO.N,Net-(JP2-Pad3)*%
X145690000Y-70877000D03*
%TO.P,U3,8*%
%TO.N,Net-(JP3-Pad3)*%
X138790000Y-70877000D03*
%TO.P,U3,7*%
%TO.N,Net-(C4-Pad2)*%
X138790000Y-71527000D03*
%TO.P,U3,6*%
%TO.N,Net-(C2-Pad2)*%
X138790000Y-72177000D03*
%TO.P,U3,5*%
%TO.N,Net-(C2-Pad1)*%
X138790000Y-72827000D03*
%TO.P,U3,4*%
%TO.N,Net-(C1-Pad2)*%
X138790000Y-73477000D03*
%TO.P,U3,3*%
%TO.N,Net-(C3-Pad1)*%
X138790000Y-74127000D03*
%TO.P,U3,2*%
%TO.N,Net-(C1-Pad1)*%
X138790000Y-74777000D03*
%TO.P,U3,1*%
%TO.N,Net-(U3-Pad1)*%
X138790000Y-75427000D03*
%TD*%
D27*
%TO.P,Q2,18*%
%TO.N,Net-(J8-Pad1)*%
X165228000Y-112522000D03*
%TO.P,Q2,17*%
%TO.N,Net-(J8-Pad2)*%
X165228000Y-111252000D03*
%TO.P,Q2,16*%
%TO.N,Net-(J8-Pad3)*%
X165228000Y-109982000D03*
%TO.P,Q2,15*%
%TO.N,Net-(J8-Pad4)*%
X165228000Y-108712000D03*
%TO.P,Q2,14*%
%TO.N,Net-(J7-Pad1)*%
X165228000Y-107442000D03*
%TO.P,Q2,13*%
%TO.N,Net-(J7-Pad2)*%
X165228000Y-106172000D03*
%TO.P,Q2,12*%
%TO.N,Net-(J7-Pad3)*%
X165228000Y-104902000D03*
%TO.P,Q2,11*%
%TO.N,Net-(J7-Pad4)*%
X165228000Y-103632000D03*
%TO.P,Q2,10*%
%TO.N,/Motors*%
X165228000Y-102362000D03*
%TO.P,Q2,9*%
%TO.N,GND*%
X155828000Y-102362000D03*
%TO.P,Q2,8*%
%TO.N,Net-(Q2-Pad8)*%
X155828000Y-103632000D03*
%TO.P,Q2,7*%
%TO.N,Net-(Q2-Pad7)*%
X155828000Y-104902000D03*
%TO.P,Q2,6*%
%TO.N,Net-(Q2-Pad6)*%
X155828000Y-106172000D03*
%TO.P,Q2,5*%
%TO.N,Net-(Q2-Pad5)*%
X155828000Y-107442000D03*
%TO.P,Q2,4*%
%TO.N,Net-(Q2-Pad4)*%
X155828000Y-108712000D03*
%TO.P,Q2,3*%
%TO.N,Net-(Q2-Pad3)*%
X155828000Y-109982000D03*
%TO.P,Q2,2*%
%TO.N,Net-(Q2-Pad2)*%
X155828000Y-111252000D03*
%TO.P,Q2,1*%
%TO.N,Net-(Q2-Pad1)*%
X155828000Y-112522000D03*
%TD*%
%TO.P,Q1,18*%
%TO.N,Net-(J6-Pad1)*%
X166372000Y-96520000D03*
%TO.P,Q1,17*%
%TO.N,Net-(J6-Pad2)*%
X166372000Y-95250000D03*
%TO.P,Q1,16*%
%TO.N,Net-(J6-Pad3)*%
X166372000Y-93980000D03*
%TO.P,Q1,15*%
%TO.N,Net-(J6-Pad4)*%
X166372000Y-92710000D03*
%TO.P,Q1,14*%
%TO.N,Net-(J5-Pad1)*%
X166372000Y-91440000D03*
%TO.P,Q1,13*%
%TO.N,Net-(J5-Pad2)*%
X166372000Y-90170000D03*
%TO.P,Q1,12*%
%TO.N,Net-(J5-Pad3)*%
X166372000Y-88900000D03*
%TO.P,Q1,11*%
%TO.N,Net-(J5-Pad4)*%
X166372000Y-87630000D03*
%TO.P,Q1,10*%
%TO.N,/Motors*%
X166372000Y-86360000D03*
%TO.P,Q1,9*%
%TO.N,GND*%
X156972000Y-86360000D03*
%TO.P,Q1,8*%
%TO.N,Net-(Q1-Pad8)*%
X156972000Y-87630000D03*
%TO.P,Q1,7*%
%TO.N,Net-(Q1-Pad7)*%
X156972000Y-88900000D03*
%TO.P,Q1,6*%
%TO.N,Net-(Q1-Pad6)*%
X156972000Y-90170000D03*
%TO.P,Q1,5*%
%TO.N,Net-(Q1-Pad5)*%
X156972000Y-91440000D03*
%TO.P,Q1,4*%
%TO.N,Net-(Q1-Pad4)*%
X156972000Y-92710000D03*
%TO.P,Q1,3*%
%TO.N,Net-(Q1-Pad3)*%
X156972000Y-93980000D03*
%TO.P,Q1,2*%
%TO.N,Net-(Q1-Pad2)*%
X156972000Y-95250000D03*
%TO.P,Q1,1*%
%TO.N,Net-(Q1-Pad1)*%
X156972000Y-96520000D03*
%TD*%
D22*
%TO.P,J18,3*%
%TO.N,GND*%
X173482000Y-62524000D03*
%TO.P,J18,2*%
%TO.N,Net-(D3-Pad2)*%
X173482000Y-63774000D03*
%TO.P,J18,1*%
%TO.N,Net-(J17-Pad1)*%
%TA.AperFunction,ComponentPad*%
G36*
G01*
X173957000Y-65474000D02*
X173007000Y-65474000D01*
G75*
G02*
X172782000Y-65249000I0J225000D01*
G01*
X172782000Y-64799000D01*
G75*
G02*
X173007000Y-64574000I225000J0D01*
G01*
X173957000Y-64574000D01*
G75*
G02*
X174182000Y-64799000I0J-225000D01*
G01*
X174182000Y-65249000D01*
G75*
G02*
X173957000Y-65474000I-225000J0D01*
G01*
G37*
%TD.AperFunction*%
%TD*%
%TO.P,J17,3*%
%TO.N,GND*%
X173228000Y-54650000D03*
%TO.P,J17,2*%
%TO.N,Net-(D3-Pad2)*%
X173228000Y-55900000D03*
%TO.P,J17,1*%
%TO.N,Net-(J17-Pad1)*%
%TA.AperFunction,ComponentPad*%
G36*
G01*
X173703000Y-57600000D02*
X172753000Y-57600000D01*
G75*
G02*
X172528000Y-57375000I0J225000D01*
G01*
X172528000Y-56925000D01*
G75*
G02*
X172753000Y-56700000I225000J0D01*
G01*
X173703000Y-56700000D01*
G75*
G02*
X173928000Y-56925000I0J-225000D01*
G01*
X173928000Y-57375000D01*
G75*
G02*
X173703000Y-57600000I-225000J0D01*
G01*
G37*
%TD.AperFunction*%
%TD*%
D28*
%TO.P,J15,5*%
%TO.N,GND*%
X139780000Y-124714000D03*
%TO.P,J15,4*%
%TO.N,/SCK*%
X141030000Y-124714000D03*
%TO.P,J15,3*%
%TO.N,/MISO*%
X142280000Y-124714000D03*
%TO.P,J15,2*%
%TO.N,/MOSI*%
X143530000Y-124714000D03*
%TO.P,J15,1*%
%TO.N,+3V3*%
%TA.AperFunction,ComponentPad*%
G36*
G01*
X145180000Y-124264000D02*
X145180000Y-125164000D01*
G75*
G02*
X144980000Y-125364000I-200000J0D01*
G01*
X144580000Y-125364000D01*
G75*
G02*
X144380000Y-125164000I0J200000D01*
G01*
X144380000Y-124264000D01*
G75*
G02*
X144580000Y-124064000I200000J0D01*
G01*
X144980000Y-124064000D01*
G75*
G02*
X145180000Y-124264000I0J-200000D01*
G01*
G37*
%TD.AperFunction*%
%TD*%
D22*
%TO.P,J13,3*%
%TO.N,GND*%
X142240000Y-91480000D03*
%TO.P,J13,2*%
%TO.N,/A6*%
X142240000Y-92730000D03*
%TO.P,J13,1*%
%TO.N,+3V3*%
%TA.AperFunction,ComponentPad*%
G36*
G01*
X142715000Y-94430000D02*
X141765000Y-94430000D01*
G75*
G02*
X141540000Y-94205000I0J225000D01*
G01*
X141540000Y-93755000D01*
G75*
G02*
X141765000Y-93530000I225000J0D01*
G01*
X142715000Y-93530000D01*
G75*
G02*
X142940000Y-93755000I0J-225000D01*
G01*
X142940000Y-94205000D01*
G75*
G02*
X142715000Y-94430000I-225000J0D01*
G01*
G37*
%TD.AperFunction*%
%TD*%
%TO.P,J12,3*%
%TO.N,GND*%
X142240000Y-98064000D03*
%TO.P,J12,2*%
%TO.N,/A3*%
X142240000Y-99314000D03*
%TO.P,J12,1*%
%TO.N,+3V3*%
%TA.AperFunction,ComponentPad*%
G36*
G01*
X142715000Y-101014000D02*
X141765000Y-101014000D01*
G75*
G02*
X141540000Y-100789000I0J225000D01*
G01*
X141540000Y-100339000D01*
G75*
G02*
X141765000Y-100114000I225000J0D01*
G01*
X142715000Y-100114000D01*
G75*
G02*
X142940000Y-100339000I0J-225000D01*
G01*
X142940000Y-100789000D01*
G75*
G02*
X142715000Y-101014000I-225000J0D01*
G01*
G37*
%TD.AperFunction*%
%TD*%
D28*
%TO.P,J11,4*%
%TO.N,GND*%
X114494000Y-125730000D03*
%TO.P,J11,3*%
%TO.N,/SDA*%
X113244000Y-125730000D03*
%TO.P,J11,2*%
%TO.N,/SCL*%
X111994000Y-125730000D03*
%TO.P,J11,1*%
%TO.N,+3V3*%
%TA.AperFunction,ComponentPad*%
G36*
G01*
X110344000Y-126180000D02*
X110344000Y-125280000D01*
G75*
G02*
X110544000Y-125080000I200000J0D01*
G01*
X110944000Y-125080000D01*
G75*
G02*
X111144000Y-125280000I0J-200000D01*
G01*
X111144000Y-126180000D01*
G75*
G02*
X110944000Y-126380000I-200000J0D01*
G01*
X110544000Y-126380000D01*
G75*
G02*
X110344000Y-126180000I0J200000D01*
G01*
G37*
%TD.AperFunction*%
%TD*%
D29*
%TO.P,J10,MP*%
%TO.N,N/C*%
X126564000Y-53706000D03*
X135564000Y-53706000D03*
D30*
%TO.P,J10,2*%
%TO.N,GND*%
X131064000Y-54706000D03*
D31*
%TO.P,J10,1*%
%TO.N,Net-(F1-Pad2)*%
X131064000Y-60706000D03*
%TD*%
D22*
%TO.P,J9,3*%
%TO.N,GND*%
X142240000Y-104942000D03*
%TO.P,J9,2*%
%TO.N,/A2*%
X142240000Y-106192000D03*
%TO.P,J9,1*%
%TO.N,+3V3*%
%TA.AperFunction,ComponentPad*%
G36*
G01*
X142715000Y-107892000D02*
X141765000Y-107892000D01*
G75*
G02*
X141540000Y-107667000I0J225000D01*
G01*
X141540000Y-107217000D01*
G75*
G02*
X141765000Y-106992000I225000J0D01*
G01*
X142715000Y-106992000D01*
G75*
G02*
X142940000Y-107217000I0J-225000D01*
G01*
X142940000Y-107667000D01*
G75*
G02*
X142715000Y-107892000I-225000J0D01*
G01*
G37*
%TD.AperFunction*%
%TD*%
%TO.P,J2,3*%
%TO.N,GND*%
X142240000Y-111800000D03*
%TO.P,J2,2*%
%TO.N,/A1*%
X142240000Y-113050000D03*
%TO.P,J2,1*%
%TO.N,+3V3*%
%TA.AperFunction,ComponentPad*%
G36*
G01*
X142715000Y-114750000D02*
X141765000Y-114750000D01*
G75*
G02*
X141540000Y-114525000I0J225000D01*
G01*
X141540000Y-114075000D01*
G75*
G02*
X141765000Y-113850000I225000J0D01*
G01*
X142715000Y-113850000D01*
G75*
G02*
X142940000Y-114075000I0J-225000D01*
G01*
X142940000Y-114525000D01*
G75*
G02*
X142715000Y-114750000I-225000J0D01*
G01*
G37*
%TD.AperFunction*%
%TD*%
D32*
%TO.P,D6,2*%
%TO.N,Net-(D6-Pad2)*%
X101092000Y-71206000D03*
%TO.P,D6,1*%
%TO.N,/HV-PWR*%
X101092000Y-75606000D03*
%TD*%
D33*
%TO.P,D5,2*%
%TO.N,Net-(D5-Pad2)*%
X123022000Y-65786000D03*
%TO.P,D5,1*%
%TO.N,Vdrive*%
X127422000Y-65786000D03*
%TD*%
%TO.P,D4,2*%
%TO.N,Net-(D4-Pad2)*%
X107020000Y-53340000D03*
%TO.P,D4,1*%
%TO.N,+5V*%
X111420000Y-53340000D03*
%TD*%
%TO.P,D2,2*%
%TO.N,Net-(D2-Pad2)*%
X144104000Y-63246000D03*
%TO.P,D2,1*%
%TO.N,+5V*%
X148504000Y-63246000D03*
%TD*%
%TO.P,D1,2*%
%TO.N,Net-(D1-Pad2)*%
X135042000Y-65786000D03*
%TO.P,D1,1*%
%TO.N,Vdrive*%
X130642000Y-65786000D03*
%TD*%
D34*
%TO.P,A1,16*%
%TO.N,/SCK*%
X135382000Y-120904000D03*
%TO.P,A1,15*%
%TO.N,/MISO*%
X120142000Y-120904000D03*
%TO.P,A1,30*%
%TO.N,+5V*%
X135382000Y-85344000D03*
%TO.P,A1,14*%
%TO.N,/MOSI*%
X120142000Y-118364000D03*
%TO.P,A1,29*%
%TO.N,GND*%
X135382000Y-87884000D03*
%TO.P,A1,13*%
%TO.N,Net-(A1-Pad13)*%
X120142000Y-115824000D03*
%TO.P,A1,28*%
%TO.N,Net-(A1-Pad28)*%
X135382000Y-90424000D03*
%TO.P,A1,12*%
%TO.N,Net-(A1-Pad12)*%
X120142000Y-113284000D03*
%TO.P,A1,27*%
%TO.N,Net-(A1-Pad27)*%
X135382000Y-92964000D03*
%TO.P,A1,11*%
%TO.N,Net-(A1-Pad11)*%
X120142000Y-110744000D03*
%TO.P,A1,26*%
%TO.N,/A7*%
X135382000Y-95504000D03*
%TO.P,A1,10*%
%TO.N,Net-(A1-Pad10)*%
X120142000Y-108204000D03*
%TO.P,A1,25*%
%TO.N,/A6*%
X135382000Y-98044000D03*
%TO.P,A1,9*%
%TO.N,Net-(A1-Pad9)*%
X120142000Y-105664000D03*
%TO.P,A1,24*%
%TO.N,/SCL*%
X135382000Y-100584000D03*
%TO.P,A1,8*%
%TO.N,Net-(A1-Pad8)*%
X120142000Y-103124000D03*
%TO.P,A1,23*%
%TO.N,/SDA*%
X135382000Y-103124000D03*
%TO.P,A1,7*%
%TO.N,Net-(A1-Pad7)*%
X120142000Y-100584000D03*
%TO.P,A1,22*%
%TO.N,/A3*%
X135382000Y-105664000D03*
%TO.P,A1,6*%
%TO.N,Net-(A1-Pad6)*%
X120142000Y-98044000D03*
%TO.P,A1,21*%
%TO.N,/A2*%
X135382000Y-108204000D03*
%TO.P,A1,5*%
%TO.N,Net-(A1-Pad5)*%
X120142000Y-95504000D03*
%TO.P,A1,20*%
%TO.N,/A1*%
X135382000Y-110744000D03*
%TO.P,A1,4*%
%TO.N,GND*%
X120142000Y-92964000D03*
%TO.P,A1,19*%
%TO.N,/A0*%
X135382000Y-113284000D03*
%TO.P,A1,3*%
%TO.N,Net-(A1-Pad28)*%
X120142000Y-90424000D03*
%TO.P,A1,18*%
%TO.N,Net-(A1-Pad18)*%
X135382000Y-115824000D03*
%TO.P,A1,2*%
%TO.N,/RX1*%
X120142000Y-87884000D03*
%TO.P,A1,17*%
%TO.N,+3V3*%
X135382000Y-118364000D03*
D35*
%TO.P,A1,1*%
%TO.N,/TX1*%
X120142000Y-85344000D03*
%TD*%
D36*
%TO.N,+5V*%
X151130000Y-61468000D03*
X151638000Y-62230000D03*
X113284000Y-53340000D03*
X113284000Y-54102000D03*
X119380000Y-66040000D03*
X119888000Y-66548000D03*
X133096000Y-70104000D03*
X107442000Y-89662000D03*
X107823000Y-109220000D03*
%TO.N,GND*%
X146954000Y-107046000D03*
X150450000Y-109646000D03*
X150663000Y-122133000D03*
X148590000Y-114300000D03*
X116840000Y-95504000D03*
X117094000Y-99314000D03*
X117094000Y-103378000D03*
X116840000Y-109220000D03*
X116840000Y-114046000D03*
X116689500Y-118514500D03*
X157988000Y-102616000D03*
X150379000Y-99811000D03*
X159258000Y-87376000D03*
X146995000Y-97211000D03*
X144526000Y-80010000D03*
X166116000Y-114046000D03*
X170688000Y-99822000D03*
X164084000Y-81280000D03*
X164846000Y-73660000D03*
X160782000Y-99568000D03*
X129032000Y-118364000D03*
X150876000Y-92456000D03*
X147612000Y-77000000D03*
X111125000Y-89535000D03*
X125730000Y-105664000D03*
X125476000Y-97790000D03*
%TO.N,Net-(A1-Pad12)*%
X149352000Y-101854000D03*
X149352000Y-106426000D03*
%TO.N,/SCL*%
X150368000Y-110998000D03*
%TO.N,/SDA*%
X150368000Y-112268000D03*
X148971000Y-120904000D03*
%TO.N,/RX1*%
X135382000Y-78994000D03*
%TO.N,+3V3*%
X147066000Y-105156000D03*
X152146000Y-112776000D03*
X157734000Y-115316000D03*
X157734000Y-122174000D03*
X147061347Y-94746653D03*
X147574000Y-74676000D03*
X154940000Y-83312000D03*
X129159000Y-124206000D03*
%TO.N,/TX1*%
X153162000Y-79756000D03*
%TO.N,Net-(D1-Pad2)*%
X137922000Y-62738000D03*
X137414000Y-63246000D03*
%TO.N,Vdrive*%
X163322000Y-62738000D03*
X163322000Y-59182000D03*
%TO.N,Net-(D3-Pad2)*%
X159512000Y-81788000D03*
X161544000Y-67056000D03*
%TO.N,Net-(D3-Pad1)*%
X160274000Y-71628000D03*
%TO.N,/HV-PWR*%
X138938000Y-78994000D03*
%TO.N,/MISO*%
X144272000Y-122682000D03*
%TO.N,/SCK*%
X134874000Y-124079000D03*
%TO.N,Net-(JP1-Pad3)*%
X148590000Y-70866000D03*
%TO.N,Net-(JP2-Pad3)*%
X141762000Y-75468000D03*
X143256000Y-73914000D03*
X144780000Y-69088000D03*
%TO.N,Net-(JP3-Pad3)*%
X138176000Y-65532000D03*
%TO.N,Net-(JP4-Pad3)*%
X147823347Y-72639347D03*
%TO.N,Net-(J19-Pad3)*%
X137414000Y-67310000D03*
X112522000Y-67818000D03*
%TO.N,/Motors*%
X168148000Y-75946000D03*
X166624000Y-84836000D03*
X165354000Y-100584000D03*
X165608000Y-118110000D03*
%TO.N,/M3*%
X123698000Y-94234000D03*
%TO.N,/M4*%
X122936000Y-96774000D03*
%TO.N,Net-(R19-Pad2)*%
X148336000Y-107950000D03*
X148336000Y-100838000D03*
%TO.N,Net-(J1-Pad1)*%
X128270000Y-114681000D03*
X116967000Y-105345998D03*
%TO.N,Net-(F7-Pad1)*%
X98933000Y-94869000D03*
%TD*%
D37*
%TO.N,+5V*%
X150876000Y-61468000D02*
X151130000Y-61468000D01*
X151638000Y-62230000D02*
X151638000Y-61976000D01*
X149860000Y-63246000D02*
X151384000Y-61722000D01*
X148504000Y-63246000D02*
X149860000Y-63246000D01*
X151384000Y-61722000D02*
X151130000Y-61468000D01*
X151638000Y-61976000D02*
X151384000Y-61722000D01*
D38*
X151130000Y-61468000D02*
X149352000Y-59690000D01*
X149352000Y-59690000D02*
X148778000Y-59690000D01*
D39*
X148778000Y-59690000D02*
X148778000Y-58354000D01*
X148628000Y-58204000D02*
X148628000Y-57150000D01*
X148778000Y-58354000D02*
X148628000Y-58204000D01*
D38*
X132842000Y-85918000D02*
X134046000Y-85918000D01*
X134620000Y-85344000D02*
X135382000Y-85344000D01*
X134046000Y-85918000D02*
X134620000Y-85344000D01*
D39*
X130810000Y-86322000D02*
X131534000Y-86322000D01*
X131938000Y-85918000D02*
X132842000Y-85918000D01*
X131534000Y-86322000D02*
X131938000Y-85918000D01*
D37*
X111420000Y-53340000D02*
X113284000Y-53340000D01*
D38*
X108420000Y-89662000D02*
X108547000Y-89535000D01*
X107442000Y-89662000D02*
X108420000Y-89662000D01*
D39*
X112964500Y-105283000D02*
X110490000Y-105283000D01*
X110490000Y-105283000D02*
X109093000Y-106680000D01*
X109093000Y-106680000D02*
X109093000Y-107950000D01*
X109093000Y-107950000D02*
X107823000Y-109220000D01*
%TO.N,GND*%
X112506000Y-94376000D02*
X113172000Y-94376000D01*
X113688500Y-94892500D02*
X115062000Y-94892500D01*
X113172000Y-94376000D02*
X113688500Y-94892500D01*
X112506000Y-98694000D02*
X113426000Y-98694000D01*
X113792000Y-99060000D02*
X115062000Y-99060000D01*
X113426000Y-98694000D02*
X113792000Y-99060000D01*
X112506000Y-102758000D02*
X113426000Y-102758000D01*
X113688500Y-103020500D02*
X115062000Y-103020500D01*
X113426000Y-102758000D02*
X113688500Y-103020500D01*
X112760000Y-117998000D02*
X113680000Y-117998000D01*
X114196500Y-118514500D02*
X115316000Y-118514500D01*
X113680000Y-117998000D02*
X114196500Y-118514500D01*
X112506000Y-113934000D02*
X113172000Y-113934000D01*
X113434500Y-114196500D02*
X115316000Y-114196500D01*
X113172000Y-113934000D02*
X113434500Y-114196500D01*
X112506000Y-109616000D02*
X113172000Y-109616000D01*
X113284000Y-109728000D02*
X115062000Y-109728000D01*
X113172000Y-109616000D02*
X113284000Y-109728000D01*
D40*
X145796000Y-107046000D02*
X146954000Y-107046000D01*
X151596000Y-109646000D02*
X150450000Y-109646000D01*
X150663000Y-120210500D02*
X150663000Y-122133000D01*
X147812000Y-119522000D02*
X148986000Y-119522000D01*
X149674500Y-120210500D02*
X150663000Y-120210500D01*
X148986000Y-119522000D02*
X149674500Y-120210500D01*
X147724500Y-116078000D02*
X147724500Y-115165500D01*
X147724500Y-115165500D02*
X148590000Y-114300000D01*
X115062000Y-94892500D02*
X116228500Y-94892500D01*
X116228500Y-94892500D02*
X116840000Y-95504000D01*
X115062000Y-99060000D02*
X116840000Y-99060000D01*
X116840000Y-99060000D02*
X117094000Y-99314000D01*
X115062000Y-103020500D02*
X116736500Y-103020500D01*
X116736500Y-103020500D02*
X117094000Y-103378000D01*
X115062000Y-109728000D02*
X116332000Y-109728000D01*
X116332000Y-109728000D02*
X116840000Y-109220000D01*
X115316000Y-114196500D02*
X116689500Y-114196500D01*
X116689500Y-114196500D02*
X116840000Y-114046000D01*
X115316000Y-118514500D02*
X116689500Y-118514500D01*
X157988000Y-102362000D02*
X157988000Y-102616000D01*
X151490000Y-99811000D02*
X150379000Y-99811000D01*
X145690000Y-97211000D02*
X146995000Y-97211000D01*
X142936000Y-78486000D02*
X142936000Y-77282000D01*
X142936000Y-77282000D02*
X144272000Y-75946000D01*
X143190000Y-69276000D02*
X143190000Y-68072000D01*
X144272000Y-70358000D02*
X143190000Y-69276000D01*
X144313000Y-74127000D02*
X144272000Y-74168000D01*
X145690000Y-74127000D02*
X144313000Y-74127000D01*
X144272000Y-74168000D02*
X144272000Y-70358000D01*
X144272000Y-75946000D02*
X144272000Y-74168000D01*
X144526000Y-80010000D02*
X144526000Y-79248000D01*
X143764000Y-78486000D02*
X142936000Y-78486000D01*
X144526000Y-79248000D02*
X143764000Y-78486000D01*
D38*
X164592000Y-114620000D02*
X165796000Y-114620000D01*
X166116000Y-114300000D02*
X166116000Y-114046000D01*
X165796000Y-114620000D02*
X166116000Y-114300000D01*
X168844000Y-99314000D02*
X170180000Y-99314000D01*
X170180000Y-99314000D02*
X170688000Y-99822000D01*
X164658000Y-82804000D02*
X164658000Y-81600000D01*
X164338000Y-81280000D02*
X164084000Y-81280000D01*
X164658000Y-81600000D02*
X164338000Y-81280000D01*
X164150000Y-75692000D02*
X164150000Y-74356000D01*
X164150000Y-74356000D02*
X164846000Y-73660000D01*
X162014000Y-99314000D02*
X161036000Y-99314000D01*
X161036000Y-99314000D02*
X160782000Y-99568000D01*
D39*
X164300000Y-78232000D02*
X164300000Y-77178000D01*
X164150000Y-77028000D02*
X164150000Y-75692000D01*
X164300000Y-77178000D02*
X164150000Y-77028000D01*
X130622000Y-118364000D02*
X129032000Y-118364000D01*
X130772000Y-120396000D02*
X130772000Y-119672000D01*
X130622000Y-119522000D02*
X130622000Y-118364000D01*
X130772000Y-119672000D02*
X130622000Y-119522000D01*
X148628000Y-103378000D02*
X149606000Y-103378000D01*
X150379000Y-102605000D02*
X150379000Y-99811000D01*
X149606000Y-103378000D02*
X150379000Y-102605000D01*
X149644000Y-92964000D02*
X150368000Y-92964000D01*
X150368000Y-92964000D02*
X150876000Y-92456000D01*
X146624000Y-53914000D02*
X146558000Y-53848000D01*
D38*
X146050000Y-54356000D02*
X146558000Y-53848000D01*
X146878000Y-59690000D02*
X146050000Y-58862000D01*
D39*
X146304000Y-57150000D02*
X146050000Y-56896000D01*
X147028000Y-57150000D02*
X146304000Y-57150000D01*
D38*
X146050000Y-56896000D02*
X146050000Y-54356000D01*
X146050000Y-58862000D02*
X146050000Y-56896000D01*
X132842000Y-87818000D02*
X134046000Y-87818000D01*
X134112000Y-87884000D02*
X135382000Y-87884000D01*
X134046000Y-87818000D02*
X134112000Y-87884000D01*
D39*
X149098000Y-77000000D02*
X147612000Y-77000000D01*
X130810000Y-87922000D02*
X131788000Y-87922000D01*
X131892000Y-87818000D02*
X132842000Y-87818000D01*
X131788000Y-87922000D02*
X131892000Y-87818000D01*
X110147000Y-89535000D02*
X111379000Y-89535000D01*
X127264000Y-105800000D02*
X125866000Y-105800000D01*
X125866000Y-105800000D02*
X125730000Y-105664000D01*
X126356000Y-96910000D02*
X127104000Y-96910000D01*
X125476000Y-97790000D02*
X126356000Y-96910000D01*
X126238000Y-101346000D02*
X125476000Y-100584000D01*
X127103500Y-101346000D02*
X126238000Y-101346000D01*
X125476000Y-100584000D02*
X125476000Y-99314000D01*
X125476000Y-99314000D02*
X125476000Y-97790000D01*
D40*
X122174000Y-92964000D02*
X120142000Y-92964000D01*
X122428000Y-92710000D02*
X122174000Y-92964000D01*
X126849500Y-92710000D02*
X122428000Y-92710000D01*
D39*
X158242000Y-86360000D02*
X159258000Y-87376000D01*
X156972000Y-86360000D02*
X158242000Y-86360000D01*
X157734000Y-102362000D02*
X157988000Y-102616000D01*
X155828000Y-102362000D02*
X157734000Y-102362000D01*
D40*
%TO.N,Net-(A1-Pad13)*%
X127652999Y-111869001D02*
X132588000Y-106934000D01*
X118364000Y-112776000D02*
X119270999Y-111869001D01*
X119270999Y-111869001D02*
X127652999Y-111869001D01*
X118364000Y-114046000D02*
X118364000Y-112776000D01*
X120142000Y-115824000D02*
X118364000Y-114046000D01*
X143510000Y-106172000D02*
X143510000Y-104394000D01*
X143510000Y-104394000D02*
X142748000Y-103632000D01*
X145034000Y-107696000D02*
X143510000Y-106172000D01*
X145796000Y-107696000D02*
X145034000Y-107696000D01*
X140462000Y-103632000D02*
X142748000Y-103632000D01*
X144963000Y-97861000D02*
X145690000Y-97861000D01*
X144075990Y-102304010D02*
X144075990Y-98748010D01*
X144075990Y-98748010D02*
X144963000Y-97861000D01*
X142748000Y-103632000D02*
X144075990Y-102304010D01*
X139317590Y-103632000D02*
X140462000Y-103632000D01*
X136015590Y-106934000D02*
X139317590Y-103632000D01*
X132588000Y-106934000D02*
X136015590Y-106934000D01*
%TO.N,Net-(A1-Pad28)*%
X120142000Y-90424000D02*
X135382000Y-90424000D01*
X135382000Y-90424000D02*
X134112000Y-90424000D01*
%TO.N,Net-(A1-Pad12)*%
X145181998Y-108346000D02*
X145796000Y-108346000D01*
X143908999Y-109618999D02*
X145181998Y-108346000D01*
X130919001Y-109618999D02*
X143908999Y-109618999D01*
X127254000Y-113284000D02*
X130919001Y-109618999D01*
X120142000Y-113284000D02*
X127254000Y-113284000D01*
X145690000Y-98511000D02*
X147533000Y-98511000D01*
X147533000Y-98511000D02*
X149352000Y-100330000D01*
X149352000Y-100330000D02*
X149352000Y-101854000D01*
X148647002Y-106426000D02*
X149352000Y-106426000D01*
X146727002Y-108346000D02*
X148647002Y-106426000D01*
X145796000Y-108346000D02*
X146727002Y-108346000D01*
%TO.N,Net-(A1-Pad11)*%
X120142000Y-110744000D02*
X127762000Y-110744000D01*
X127762000Y-110744000D02*
X132334000Y-106172000D01*
X132334000Y-106172000D02*
X132334000Y-101346000D01*
X132334000Y-101346000D02*
X134221001Y-99458999D01*
X140675000Y-96561000D02*
X145690000Y-96561000D01*
X134221001Y-99458999D02*
X135745001Y-99458999D01*
X135745001Y-99458999D02*
X138176000Y-97028000D01*
X140208000Y-97028000D02*
X140675000Y-96561000D01*
X138176000Y-97028000D02*
X140208000Y-97028000D01*
%TO.N,/A7*%
X128404000Y-96910000D02*
X129404000Y-96910000D01*
X129404000Y-96910000D02*
X130302000Y-96012000D01*
X129286000Y-92710000D02*
X128674500Y-92710000D01*
X130302000Y-93726000D02*
X129286000Y-92710000D01*
X135382000Y-95504000D02*
X130302000Y-95504000D01*
X130302000Y-95504000D02*
X130302000Y-93726000D01*
X130302000Y-96012000D02*
X130302000Y-95504000D01*
%TO.N,Net-(A1-Pad10)*%
X112760000Y-116698000D02*
X113680000Y-116698000D01*
X113688500Y-116689500D02*
X115316000Y-116689500D01*
X113680000Y-116698000D02*
X113688500Y-116689500D01*
X115316000Y-116689500D02*
X116482500Y-116689500D01*
X116482500Y-116689500D02*
X117913990Y-115258010D01*
X117913990Y-110432010D02*
X120142000Y-108204000D01*
X117913990Y-115258010D02*
X117913990Y-110432010D01*
%TO.N,/A6*%
X140696000Y-92730000D02*
X142240000Y-92730000D01*
X128564000Y-105800000D02*
X129658000Y-105800000D01*
X129658000Y-105800000D02*
X130302000Y-105156000D01*
X130302000Y-102719500D02*
X128928500Y-101346000D01*
X130302000Y-105156000D02*
X130302000Y-102719500D01*
X128928500Y-101346000D02*
X128928500Y-99925500D01*
X130810000Y-98044000D02*
X135382000Y-98044000D01*
X128928500Y-99925500D02*
X130810000Y-98044000D01*
X135382000Y-98044000D02*
X136144000Y-98044000D01*
X136144000Y-98044000D02*
X136906000Y-97282000D01*
X136906000Y-97282000D02*
X136906000Y-94234000D01*
X137310500Y-93829500D02*
X138176000Y-93829500D01*
X136906000Y-94234000D02*
X137310500Y-93829500D01*
X138176000Y-93829500D02*
X139596500Y-93829500D01*
X139596500Y-93829500D02*
X140696000Y-92730000D01*
%TO.N,Net-(A1-Pad9)*%
X112506000Y-112634000D02*
X113680000Y-112634000D01*
X113942500Y-112371500D02*
X115316000Y-112371500D01*
X113680000Y-112634000D02*
X113942500Y-112371500D01*
X115316000Y-112371500D02*
X115974500Y-112371500D01*
X115974500Y-112371500D02*
X117463980Y-110882020D01*
X118872000Y-105664000D02*
X120142000Y-105664000D01*
X117463980Y-110882020D02*
X117463981Y-110245609D01*
X117463981Y-110245609D02*
X118364000Y-109345590D01*
X118364000Y-106172000D02*
X118872000Y-105664000D01*
X118364000Y-109345590D02*
X118364000Y-106172000D01*
%TO.N,/SCL*%
X151313000Y-111943000D02*
X150368000Y-110998000D01*
X151313000Y-114485500D02*
X151313000Y-111943000D01*
X111994000Y-125730000D02*
X111994000Y-123591000D01*
X112545500Y-123039500D02*
X112545500Y-120777000D01*
X111994000Y-123591000D02*
X112545500Y-123039500D01*
%TO.N,Net-(A1-Pad8)*%
X112506000Y-108316000D02*
X113426000Y-108316000D01*
X113839000Y-107903000D02*
X115062000Y-107903000D01*
X113426000Y-108316000D02*
X113839000Y-107903000D01*
X118872000Y-103124000D02*
X119126000Y-103124000D01*
X118364000Y-105410000D02*
X118364000Y-103632000D01*
X118364000Y-103632000D02*
X118872000Y-103124000D01*
X117913990Y-105860010D02*
X118364000Y-105410000D01*
X117913990Y-107130010D02*
X117913990Y-105860010D01*
X117141000Y-107903000D02*
X117913990Y-107130010D01*
X119126000Y-103124000D02*
X120142000Y-103124000D01*
X115062000Y-107903000D02*
X117141000Y-107903000D01*
%TO.N,/SDA*%
X150663000Y-112563000D02*
X150663000Y-114485500D01*
X150368000Y-112268000D02*
X150663000Y-112563000D01*
X148971000Y-120904000D02*
X148590000Y-121285000D01*
X148590000Y-122912500D02*
X148336000Y-123166500D01*
X148590000Y-121285000D02*
X148590000Y-122912500D01*
%TO.N,Net-(A1-Pad7)*%
X112506000Y-101458000D02*
X113680000Y-101458000D01*
X113942500Y-101195500D02*
X115062000Y-101195500D01*
X113680000Y-101458000D02*
X113942500Y-101195500D01*
X115062000Y-101195500D02*
X117451500Y-101195500D01*
X118063000Y-100584000D02*
X120142000Y-100584000D01*
X117451500Y-101195500D02*
X118063000Y-100584000D01*
%TO.N,/A3*%
X139954000Y-99314000D02*
X142240000Y-99314000D01*
X139850500Y-99417500D02*
X139954000Y-99314000D01*
X138176000Y-99417500D02*
X139850500Y-99417500D01*
X137056500Y-99417500D02*
X138176000Y-99417500D01*
X136906000Y-100965000D02*
X136906000Y-99568000D01*
X135890000Y-101981000D02*
X136906000Y-100965000D01*
X134493000Y-101981000D02*
X135890000Y-101981000D01*
X133858000Y-102616000D02*
X134493000Y-101981000D01*
X136906000Y-99568000D02*
X137056500Y-99417500D01*
X133858000Y-104140000D02*
X133858000Y-102616000D01*
X135382000Y-105664000D02*
X133858000Y-104140000D01*
%TO.N,Net-(A1-Pad6)*%
X112506000Y-97394000D02*
X113426000Y-97394000D01*
X113585000Y-97235000D02*
X115062000Y-97235000D01*
X113426000Y-97394000D02*
X113585000Y-97235000D01*
X115062000Y-97235000D02*
X117047000Y-97235000D01*
X117856000Y-98044000D02*
X120142000Y-98044000D01*
X117047000Y-97235000D02*
X117856000Y-98044000D01*
%TO.N,/A2*%
X136802500Y-106783500D02*
X138176000Y-106783500D01*
X135382000Y-108204000D02*
X136802500Y-106783500D01*
X139382500Y-106783500D02*
X139974000Y-106192000D01*
X138176000Y-106783500D02*
X139382500Y-106783500D01*
X139974000Y-106192000D02*
X142240000Y-106192000D01*
%TO.N,Net-(A1-Pad5)*%
X115053500Y-93076000D02*
X115062000Y-93067500D01*
X112506000Y-93076000D02*
X115053500Y-93076000D01*
X115062000Y-93067500D02*
X116181500Y-93067500D01*
X118618000Y-95504000D02*
X120142000Y-95504000D01*
X116181500Y-93067500D02*
X118618000Y-95504000D01*
%TO.N,/A1*%
X141712000Y-113050000D02*
X142240000Y-113050000D01*
X137517500Y-112879500D02*
X138176000Y-112879500D01*
X135382000Y-110744000D02*
X137517500Y-112879500D01*
X138176000Y-112879500D02*
X141073500Y-112879500D01*
X141244000Y-113050000D02*
X141073500Y-112879500D01*
X142240000Y-113050000D02*
X141244000Y-113050000D01*
%TO.N,/A0*%
X136525000Y-114427000D02*
X135382000Y-113284000D01*
X136525000Y-115189000D02*
X136525000Y-114427000D01*
X137414000Y-116078000D02*
X136525000Y-115189000D01*
X145899500Y-116078000D02*
X137414000Y-116078000D01*
X145899500Y-116689500D02*
X145899500Y-116078000D01*
X147432000Y-118222000D02*
X145899500Y-116689500D01*
X147812000Y-118222000D02*
X147432000Y-118222000D01*
%TO.N,Net-(A1-Pad18)*%
X132842000Y-113284000D02*
X132842000Y-113030000D01*
X132715000Y-113157000D02*
X132588000Y-113157000D01*
X135382000Y-115824000D02*
X132715000Y-113157000D01*
%TO.N,/RX1*%
X120142000Y-87884000D02*
X118110000Y-87884000D01*
X118110000Y-87884000D02*
X117348000Y-87122000D01*
X117348000Y-87122000D02*
X117348000Y-84328000D01*
X117348000Y-84328000D02*
X119634000Y-82042000D01*
X119634000Y-82042000D02*
X132080000Y-82042000D01*
X132334000Y-82042000D02*
X135382000Y-78994000D01*
X132080000Y-82042000D02*
X132334000Y-82042000D01*
%TO.N,+3V3*%
X145796000Y-105096000D02*
X147006000Y-105096000D01*
X147006000Y-105096000D02*
X147066000Y-105156000D01*
X152613000Y-114485500D02*
X152613000Y-113243000D01*
X156360500Y-115316000D02*
X157734000Y-115316000D01*
X152613000Y-113243000D02*
X152146000Y-112776000D01*
X145690000Y-95261000D02*
X146547000Y-95261000D01*
X146547000Y-95261000D02*
X147061347Y-94746653D01*
X147473000Y-74777000D02*
X147574000Y-74676000D01*
X145690000Y-74777000D02*
X147473000Y-74777000D01*
X157734000Y-83716500D02*
X155344500Y-83716500D01*
X155344500Y-83716500D02*
X154940000Y-83312000D01*
D39*
X132522000Y-118364000D02*
X135382000Y-118364000D01*
X132522000Y-119446000D02*
X132522000Y-118364000D01*
X132372000Y-119596000D02*
X132522000Y-119446000D01*
X132372000Y-120396000D02*
X132372000Y-119596000D01*
X147066000Y-103416000D02*
X147028000Y-103378000D01*
X147066000Y-105156000D02*
X147066000Y-103416000D01*
X148044000Y-93764000D02*
X148044000Y-92964000D01*
X147061347Y-94746653D02*
X148044000Y-93764000D01*
X149098000Y-75400000D02*
X148120000Y-75400000D01*
X147574000Y-74854000D02*
X147574000Y-74676000D01*
X148120000Y-75400000D02*
X147574000Y-74854000D01*
D40*
X145772500Y-112395000D02*
X145161000Y-112395000D01*
X145161000Y-112395000D02*
X144272000Y-113284000D01*
X144272000Y-113284000D02*
X144272000Y-113792000D01*
X143764000Y-114300000D02*
X142240000Y-114300000D01*
X144272000Y-113792000D02*
X143764000Y-114300000D01*
X138176000Y-95654500D02*
X141327500Y-95654500D01*
X142240000Y-94742000D02*
X142240000Y-93980000D01*
X141327500Y-95654500D02*
X142240000Y-94742000D01*
X138176000Y-101242500D02*
X139803500Y-101242500D01*
X140482000Y-100564000D02*
X142240000Y-100564000D01*
X139803500Y-101242500D02*
X140482000Y-100564000D01*
X148336000Y-124991500D02*
X146708500Y-124991500D01*
X146431000Y-124714000D02*
X144780000Y-124714000D01*
X146708500Y-124991500D02*
X146431000Y-124714000D01*
X134620000Y-118364000D02*
X135382000Y-118364000D01*
X133223000Y-116967000D02*
X134620000Y-118364000D01*
X126261500Y-116967000D02*
X133223000Y-116967000D01*
X138176000Y-108608500D02*
X139422500Y-108608500D01*
X140589000Y-107442000D02*
X142240000Y-107442000D01*
X139422500Y-108608500D02*
X140589000Y-107442000D01*
X138176000Y-114704500D02*
X139549500Y-114704500D01*
X139954000Y-114300000D02*
X142240000Y-114300000D01*
X139549500Y-114704500D02*
X139954000Y-114300000D01*
X144780000Y-124714000D02*
X144780000Y-123825000D01*
X144780000Y-123825000D02*
X145796000Y-122809000D01*
X146962500Y-121285000D02*
X146962500Y-122277500D01*
X146431000Y-122809000D02*
X145796000Y-122809000D01*
X146962500Y-122277500D02*
X146431000Y-122809000D01*
X129159000Y-124206000D02*
X129667000Y-124206000D01*
X129921000Y-124460000D02*
X130913500Y-124460000D01*
X129667000Y-124206000D02*
X129921000Y-124460000D01*
X110744000Y-125730000D02*
X110744000Y-123063000D01*
X110720500Y-123039500D02*
X110720500Y-120777000D01*
X110744000Y-123063000D02*
X110720500Y-123039500D01*
X157734000Y-122174000D02*
X156972000Y-121412000D01*
X156972000Y-121412000D02*
X156360500Y-121412000D01*
X156360500Y-121412000D02*
X156360500Y-118872000D01*
%TO.N,/TX1*%
X120142000Y-85344000D02*
X130810000Y-85344000D01*
X130810000Y-85344000D02*
X134874000Y-81280000D01*
X134874000Y-81280000D02*
X151892000Y-81280000D01*
X151892000Y-81280000D02*
X153162000Y-80010000D01*
X153162000Y-80010000D02*
X153162000Y-79756000D01*
D37*
%TO.N,Net-(D1-Pad2)*%
X135890000Y-64770000D02*
X137922000Y-62738000D01*
X135042000Y-64770000D02*
X135890000Y-64770000D01*
D41*
%TO.N,Vdrive*%
X163322000Y-59182000D02*
X163322000Y-62738000D01*
X105410000Y-65278000D02*
X105410000Y-66040000D01*
D37*
X127422000Y-65786000D02*
X130642000Y-65786000D01*
X147066000Y-51816000D02*
X149098000Y-53848000D01*
X141732000Y-51816000D02*
X147066000Y-51816000D01*
X137922000Y-55626000D02*
X141732000Y-51816000D01*
X137922000Y-59436000D02*
X137922000Y-55626000D01*
X131826000Y-65532000D02*
X137922000Y-59436000D01*
X130896000Y-65532000D02*
X130642000Y-65786000D01*
X131826000Y-65532000D02*
X130896000Y-65532000D01*
X105410000Y-64770000D02*
X105410000Y-66040000D01*
X106680000Y-63500000D02*
X105410000Y-64770000D01*
X112014000Y-63500000D02*
X106680000Y-63500000D01*
X116776990Y-68262990D02*
X112014000Y-63500000D01*
X126301010Y-68262990D02*
X116776990Y-68262990D01*
X127422000Y-67142000D02*
X126301010Y-68262990D01*
X127422000Y-65786000D02*
X127422000Y-67142000D01*
D40*
X150725500Y-57658000D02*
X150725500Y-56999500D01*
X149098000Y-55372000D02*
X149098000Y-53848000D01*
X150725500Y-56999500D02*
X149098000Y-55372000D01*
X106148500Y-70358000D02*
X106148500Y-69445500D01*
X105410000Y-68707000D02*
X105410000Y-66040000D01*
X106148500Y-69445500D02*
X105410000Y-68707000D01*
D37*
%TO.N,Net-(D2-Pad2)*%
X144104000Y-53934000D02*
X144018000Y-53848000D01*
X144104000Y-60960000D02*
X144104000Y-53934000D01*
X144104000Y-60960000D02*
X144104000Y-63246000D01*
D40*
%TO.N,Net-(D3-Pad2)*%
X173416000Y-63840000D02*
X173482000Y-63774000D01*
X157734000Y-81891500D02*
X159408500Y-81891500D01*
X159408500Y-81891500D02*
X159512000Y-81788000D01*
X164760000Y-63840000D02*
X161544000Y-67056000D01*
X167386000Y-63840000D02*
X164760000Y-63840000D01*
X167513000Y-63967000D02*
X167386000Y-63840000D01*
X167513000Y-65117000D02*
X167513000Y-63967000D01*
X170729000Y-63840000D02*
X170729000Y-57109000D01*
X167386000Y-63840000D02*
X170729000Y-63840000D01*
X170729000Y-63840000D02*
X173416000Y-63840000D01*
X171938000Y-55900000D02*
X173228000Y-55900000D01*
X170729000Y-57109000D02*
X171938000Y-55900000D01*
%TO.N,Net-(D3-Pad1)*%
X163662000Y-68240000D02*
X167386000Y-68240000D01*
X160274000Y-71628000D02*
X163662000Y-68240000D01*
X167386000Y-67344000D02*
X167513000Y-67217000D01*
X167386000Y-68240000D02*
X167386000Y-67344000D01*
D37*
%TO.N,Net-(D4-Pad2)*%
X107020000Y-53340000D02*
X108458000Y-53340000D01*
X108458000Y-53340000D02*
X108712000Y-53594000D01*
X108712000Y-54626000D02*
X110744000Y-56658000D01*
X108712000Y-53594000D02*
X108712000Y-54626000D01*
%TO.N,Net-(D5-Pad2)*%
X111506000Y-60960000D02*
X110744000Y-60198000D01*
X119634000Y-60960000D02*
X111506000Y-60960000D01*
X123022000Y-64348000D02*
X119634000Y-60960000D01*
X123022000Y-65786000D02*
X123022000Y-64348000D01*
D41*
%TO.N,Net-(D6-Pad2)*%
X101092000Y-71206000D02*
X101092000Y-69088000D01*
X100330000Y-68326000D02*
X100330000Y-66040000D01*
X101092000Y-69088000D02*
X100330000Y-68326000D01*
D39*
%TO.N,/Mid_LED*%
X108458000Y-99060000D02*
X106172000Y-99060000D01*
X109474000Y-98044000D02*
X108458000Y-99060000D01*
X110506000Y-98044000D02*
X109474000Y-98044000D01*
%TO.N,/UV_Boost*%
X110506000Y-102108000D02*
X109474000Y-102108000D01*
X108966000Y-101600000D02*
X106172000Y-101600000D01*
X109474000Y-102108000D02*
X108966000Y-101600000D01*
%TO.N,/GoW*%
X110506000Y-109585000D02*
X110506000Y-108966000D01*
X109728000Y-110363000D02*
X110506000Y-109585000D01*
X106822830Y-110363000D02*
X109728000Y-110363000D01*
X105891821Y-109431990D02*
X106822830Y-110363000D01*
X103335990Y-109431990D02*
X105891821Y-109431990D01*
X101600000Y-107696000D02*
X103335990Y-109431990D01*
X101600000Y-104902000D02*
X101600000Y-107696000D01*
X102362000Y-104140000D02*
X101600000Y-104902000D01*
X103632000Y-104140000D02*
X102362000Y-104140000D01*
D41*
%TO.N,/HV-PWR*%
X101092000Y-75606000D02*
X106594000Y-75606000D01*
X106594000Y-75606000D02*
X107950000Y-76962000D01*
X107950000Y-76962000D02*
X133350000Y-76962000D01*
X134406999Y-78018999D02*
X137962999Y-78018999D01*
X133350000Y-76962000D02*
X134406999Y-78018999D01*
X137962999Y-78018999D02*
X138938000Y-78994000D01*
D38*
X100838000Y-86868000D02*
X101092000Y-86614000D01*
X101092000Y-84201000D02*
X101092000Y-86614000D01*
X100838000Y-83947000D02*
X101092000Y-84201000D01*
X100838000Y-75860000D02*
X100838000Y-83947000D01*
X101092000Y-75606000D02*
X100838000Y-75860000D01*
%TO.N,/CAL*%
X106426000Y-117094000D02*
X103632000Y-117094000D01*
X106680000Y-117348000D02*
X106426000Y-117094000D01*
X110760000Y-117348000D02*
X106680000Y-117348000D01*
%TO.N,Net-(J5-Pad4)*%
X171191002Y-74161000D02*
X172466000Y-74161000D01*
X168841970Y-76510032D02*
X171191002Y-74161000D01*
X168841970Y-87063030D02*
X168841970Y-76510032D01*
X168275000Y-87630000D02*
X168841970Y-87063030D01*
X166372000Y-87630000D02*
X168275000Y-87630000D01*
%TO.N,Net-(J5-Pad3)*%
X171370000Y-76661000D02*
X172466000Y-76661000D01*
X169541980Y-78489020D02*
X171370000Y-76661000D01*
X169541980Y-88141020D02*
X169541980Y-78489020D01*
X168910000Y-88773000D02*
X169541980Y-88141020D01*
X168910000Y-88900000D02*
X168910000Y-88773000D01*
X166372000Y-88900000D02*
X168910000Y-88900000D01*
%TO.N,Net-(J5-Pad2)*%
X171537000Y-79161000D02*
X172466000Y-79161000D01*
X170241990Y-89473010D02*
X170241990Y-80456010D01*
X169545000Y-90170000D02*
X170241990Y-89473010D01*
X170241990Y-80456010D02*
X171537000Y-79161000D01*
X166372000Y-90170000D02*
X169545000Y-90170000D01*
%TO.N,Net-(J5-Pad1)*%
X171196000Y-82931000D02*
X172466000Y-81661000D01*
X170942000Y-83185000D02*
X171196000Y-82931000D01*
X170942000Y-90297000D02*
X170942000Y-83185000D01*
X169799000Y-91440000D02*
X170942000Y-90297000D01*
X166372000Y-91440000D02*
X169799000Y-91440000D01*
%TO.N,Net-(J6-Pad4)*%
X172092000Y-90290000D02*
X172974000Y-90290000D01*
X170046000Y-92710000D02*
X172466000Y-90290000D01*
X166372000Y-92710000D02*
X170046000Y-92710000D01*
%TO.N,Net-(J6-Pad3)*%
X171276000Y-93980000D02*
X172466000Y-92790000D01*
X166372000Y-93980000D02*
X171276000Y-93980000D01*
%TO.N,Net-(J6-Pad2)*%
X172934000Y-95250000D02*
X172974000Y-95290000D01*
X172426000Y-95250000D02*
X172466000Y-95290000D01*
X166372000Y-95250000D02*
X172426000Y-95250000D01*
%TO.N,Net-(J6-Pad1)*%
X166372000Y-96520000D02*
X168402000Y-96520000D01*
X168402000Y-96520000D02*
X169672000Y-97790000D01*
X169672000Y-97790000D02*
X172466000Y-97790000D01*
%TO.N,Net-(J7-Pad4)*%
X172346000Y-106546000D02*
X172974000Y-106546000D01*
X172586000Y-106546000D02*
X172974000Y-106546000D01*
X165228000Y-103632000D02*
X167640000Y-103632000D01*
X170681000Y-106673000D02*
X172466000Y-106673000D01*
X167640000Y-103632000D02*
X170681000Y-106673000D01*
%TO.N,Net-(J7-Pad3)*%
X172546000Y-109046000D02*
X172974000Y-109046000D01*
X171657000Y-109173000D02*
X172466000Y-109173000D01*
X167386000Y-104902000D02*
X171657000Y-109173000D01*
X165228000Y-104902000D02*
X167386000Y-104902000D01*
%TO.N,Net-(J7-Pad2)*%
X165228000Y-106172000D02*
X167132000Y-106172000D01*
X172466000Y-111506000D02*
X172466000Y-111673000D01*
X167132000Y-106172000D02*
X172466000Y-111506000D01*
%TO.N,Net-(J7-Pad1)*%
X172974000Y-114046000D02*
X171958000Y-114046000D01*
X171704000Y-114173000D02*
X172466000Y-114173000D01*
X170434000Y-112903000D02*
X171704000Y-114173000D01*
X170434000Y-110744000D02*
X170434000Y-112903000D01*
X167132000Y-107442000D02*
X170434000Y-110744000D01*
X165228000Y-107442000D02*
X167132000Y-107442000D01*
%TO.N,Net-(J8-Pad4)*%
X169672000Y-119754000D02*
X170314000Y-120396000D01*
X169672000Y-111252000D02*
X169672000Y-119754000D01*
X167132000Y-108712000D02*
X169672000Y-111252000D01*
X165228000Y-108712000D02*
X167132000Y-108712000D01*
%TO.N,Net-(J8-Pad3)*%
X165228000Y-109982000D02*
X166878000Y-109982000D01*
X166878000Y-109982000D02*
X168656000Y-111760000D01*
X168656000Y-119554000D02*
X167814000Y-120396000D01*
X168656000Y-111760000D02*
X168656000Y-119554000D01*
%TO.N,Net-(J8-Pad2)*%
X165228000Y-111252000D02*
X166624000Y-111252000D01*
X167640000Y-118070000D02*
X167112000Y-118598000D01*
X167640000Y-112268000D02*
X167640000Y-118070000D01*
X166624000Y-111252000D02*
X167640000Y-112268000D01*
X167112000Y-118598000D02*
X165314000Y-120396000D01*
%TO.N,Net-(J8-Pad1)*%
X163576000Y-112522000D02*
X165228000Y-112522000D01*
X162814000Y-113284000D02*
X163576000Y-112522000D01*
X162814000Y-113284000D02*
X162814000Y-120396000D01*
D40*
%TO.N,/MOSI*%
X143530000Y-124714000D02*
X143530000Y-123972000D01*
X143530000Y-123972000D02*
X141986000Y-122428000D01*
X141986000Y-122428000D02*
X125984000Y-122428000D01*
X121920000Y-118364000D02*
X120142000Y-118364000D01*
X125984000Y-122428000D02*
X121920000Y-118364000D01*
X123444000Y-116967000D02*
X124436500Y-116967000D01*
X122047000Y-118364000D02*
X123444000Y-116967000D01*
X121920000Y-118364000D02*
X122047000Y-118364000D01*
%TO.N,/MISO*%
X142280000Y-124714000D02*
X142280000Y-123738000D01*
X141420010Y-122878010D02*
X125164010Y-122878010D01*
X142280000Y-123738000D02*
X141420010Y-122878010D01*
X123190000Y-120904000D02*
X120142000Y-120904000D01*
X125164010Y-122878010D02*
X123190000Y-120904000D01*
X144272000Y-122682000D02*
X144653000Y-122682000D01*
X145137500Y-122197500D02*
X145137500Y-121285000D01*
X144653000Y-122682000D02*
X145137500Y-122197500D01*
%TO.N,/SCK*%
X132738500Y-124460000D02*
X134493000Y-124460000D01*
X134874000Y-124079000D02*
X134493000Y-124460000D01*
%TO.N,Net-(JP1-Pad3)*%
X145690000Y-72177000D02*
X147025000Y-72177000D01*
X148336000Y-70866000D02*
X148590000Y-70866000D01*
X147025000Y-72177000D02*
X148336000Y-70866000D01*
%TO.N,Net-(JP2-Pad3)*%
X141762000Y-75468000D02*
X143256000Y-73974000D01*
X143256000Y-73974000D02*
X143256000Y-73914000D01*
X144780000Y-69088000D02*
X145542000Y-69850000D01*
X145542000Y-70729000D02*
X145690000Y-70877000D01*
X145542000Y-69850000D02*
X145542000Y-70729000D01*
%TO.N,Net-(JP3-Pad3)*%
X138790000Y-70877000D02*
X138790000Y-66146000D01*
X138790000Y-66146000D02*
X138176000Y-65532000D01*
%TO.N,Net-(JP4-Pad3)*%
X145690000Y-73477000D02*
X146995000Y-73477000D01*
X147823347Y-72648653D02*
X147823347Y-72639347D01*
X146995000Y-73477000D02*
X147823347Y-72648653D01*
%TO.N,Net-(Q1-Pad8)*%
X145690000Y-95911000D02*
X149199000Y-95911000D01*
X149199000Y-95911000D02*
X152654000Y-92456000D01*
X152654000Y-92456000D02*
X152654000Y-90170000D01*
X155194000Y-87630000D02*
X156972000Y-87630000D01*
X152654000Y-90170000D02*
X155194000Y-87630000D01*
%TO.N,Net-(Q1-Pad7)*%
X154940000Y-88900000D02*
X156972000Y-88900000D01*
X153197950Y-90642050D02*
X154940000Y-88900000D01*
X153197950Y-94452050D02*
X153197950Y-90642050D01*
X152389000Y-95261000D02*
X153197950Y-94452050D01*
X151490000Y-95261000D02*
X152389000Y-95261000D01*
%TO.N,Net-(Q1-Pad6)*%
X155194000Y-90170000D02*
X156972000Y-90170000D01*
X153647960Y-94764040D02*
X153647960Y-91716040D01*
X153647960Y-91716040D02*
X155194000Y-90170000D01*
X152501000Y-95911000D02*
X153647960Y-94764040D01*
X151490000Y-95911000D02*
X152501000Y-95911000D01*
%TO.N,Net-(Q1-Pad5)*%
X151933000Y-96561000D02*
X151974000Y-96520000D01*
X151490000Y-96561000D02*
X151933000Y-96561000D01*
X151974000Y-96520000D02*
X152908000Y-96520000D01*
X152908000Y-96520000D02*
X154097970Y-95330030D01*
X154097970Y-95330030D02*
X154097970Y-92536030D01*
X155194000Y-91440000D02*
X156972000Y-91440000D01*
X154097970Y-92536030D02*
X155194000Y-91440000D01*
%TO.N,Net-(Q1-Pad4)*%
X151490000Y-97211000D02*
X153487000Y-97211000D01*
X153487000Y-97211000D02*
X154547980Y-96150020D01*
X154547980Y-96150020D02*
X154547980Y-93610020D01*
X155448000Y-92710000D02*
X156972000Y-92710000D01*
X154547980Y-93610020D02*
X155448000Y-92710000D01*
%TO.N,Net-(Q1-Pad3)*%
X151490000Y-97861000D02*
X153853000Y-97861000D01*
X153853000Y-97861000D02*
X154997990Y-96716010D01*
X156972000Y-93980000D02*
X155702000Y-93980000D01*
X155702000Y-93980000D02*
X154997990Y-94684010D01*
X154997990Y-96716010D02*
X154997990Y-94684010D01*
%TO.N,Net-(Q1-Pad2)*%
X155722000Y-95250000D02*
X156972000Y-95250000D01*
X155448000Y-95524000D02*
X155722000Y-95250000D01*
X155448000Y-97536000D02*
X155448000Y-95524000D01*
X154473000Y-98511000D02*
X155448000Y-97536000D01*
X151490000Y-98511000D02*
X154473000Y-98511000D01*
%TO.N,Net-(Q1-Pad1)*%
X151739000Y-99161000D02*
X151840000Y-99060000D01*
X151840000Y-99060000D02*
X155194000Y-99060000D01*
X156972000Y-97282000D02*
X156972000Y-96520000D01*
X155194000Y-99060000D02*
X156972000Y-97282000D01*
%TO.N,Net-(Q2-Pad8)*%
X155828000Y-103632000D02*
X150622000Y-103632000D01*
X146546000Y-105746000D02*
X145796000Y-105746000D01*
X146681001Y-105881001D02*
X146546000Y-105746000D01*
X148372999Y-105881001D02*
X146681001Y-105881001D01*
X150622000Y-103632000D02*
X148372999Y-105881001D01*
%TO.N,Net-(Q2-Pad7)*%
X151596000Y-105096000D02*
X152848000Y-105096000D01*
X153042000Y-104902000D02*
X155828000Y-104902000D01*
X152848000Y-105096000D02*
X153042000Y-104902000D01*
%TO.N,Net-(Q2-Pad6)*%
X151596000Y-105746000D02*
X153842000Y-105746000D01*
X154268000Y-106172000D02*
X155828000Y-106172000D01*
X153842000Y-105746000D02*
X154268000Y-106172000D01*
%TO.N,Net-(Q2-Pad5)*%
X151596000Y-106396000D02*
X153386000Y-106396000D01*
X154432000Y-107442000D02*
X155828000Y-107442000D01*
X153386000Y-106396000D02*
X154432000Y-107442000D01*
%TO.N,Net-(Q2-Pad4)*%
X151596000Y-107046000D02*
X153020000Y-107046000D01*
X154686000Y-108712000D02*
X155828000Y-108712000D01*
X153020000Y-107046000D02*
X154686000Y-108712000D01*
%TO.N,Net-(Q2-Pad3)*%
X151596000Y-107696000D02*
X152654000Y-107696000D01*
X152654000Y-107696000D02*
X154178000Y-109220000D01*
X154178000Y-109220000D02*
X154178000Y-109728000D01*
X154178000Y-109728000D02*
X154432000Y-109982000D01*
X154432000Y-109982000D02*
X155828000Y-109982000D01*
%TO.N,Net-(Q2-Pad2)*%
X154178000Y-111252000D02*
X155828000Y-111252000D01*
X153670000Y-110744000D02*
X154178000Y-111252000D01*
X153670000Y-109670000D02*
X153670000Y-110744000D01*
X152346000Y-108346000D02*
X153670000Y-109670000D01*
X151596000Y-108346000D02*
X152346000Y-108346000D01*
%TO.N,Net-(Q2-Pad1)*%
X154178000Y-112522000D02*
X155828000Y-112522000D01*
X153162000Y-111506000D02*
X154178000Y-112522000D01*
X153162000Y-109982000D02*
X153162000Y-111506000D01*
X152176000Y-108996000D02*
X153162000Y-109982000D01*
X151596000Y-108996000D02*
X152176000Y-108996000D01*
D39*
%TO.N,/M1*%
X102108000Y-101600000D02*
X103632000Y-101600000D01*
X100330000Y-107696000D02*
X100330000Y-103378000D01*
X102616000Y-109982000D02*
X100330000Y-107696000D01*
X105664000Y-109982000D02*
X102616000Y-109982000D01*
X108966000Y-113284000D02*
X105664000Y-109982000D01*
X100330000Y-103378000D02*
X102108000Y-101600000D01*
X110506000Y-113284000D02*
X108966000Y-113284000D01*
%TO.N,/M2*%
X102108000Y-99060000D02*
X103632000Y-99060000D01*
X101346000Y-95758000D02*
X101346000Y-98298000D01*
X101346000Y-98298000D02*
X102108000Y-99060000D01*
X103378000Y-93726000D02*
X101346000Y-95758000D01*
X110506000Y-93726000D02*
X103378000Y-93726000D01*
D40*
%TO.N,Net-(R4-Pad2)*%
X151313000Y-120948000D02*
X151313000Y-120210500D01*
X151777000Y-121412000D02*
X151313000Y-120948000D01*
X154535500Y-121412000D02*
X151777000Y-121412000D01*
%TO.N,Net-(R6-Pad2)*%
X151963000Y-119055000D02*
X154535500Y-116482500D01*
X154535500Y-116482500D02*
X154535500Y-115316000D01*
X151963000Y-120210500D02*
X151963000Y-119055000D01*
%TO.N,Net-(R8-Pad2)*%
X152613000Y-120210500D02*
X152966500Y-120210500D01*
X152966500Y-120210500D02*
X153289000Y-119888000D01*
X153289000Y-119888000D02*
X153289000Y-119380000D01*
X153797000Y-118872000D02*
X154535500Y-118872000D01*
X153289000Y-119380000D02*
X153797000Y-118872000D01*
%TO.N,Net-(U5-Pad9)*%
X145045000Y-99811000D02*
X145690000Y-99811000D01*
X144526000Y-100330000D02*
X145045000Y-99811000D01*
X144526000Y-105918000D02*
X144526000Y-100330000D01*
X145004000Y-106396000D02*
X144526000Y-105918000D01*
X145796000Y-106396000D02*
X145004000Y-106396000D01*
%TO.N,Net-(C1-Pad2)*%
X136144000Y-74234000D02*
X137094000Y-74234000D01*
X137851000Y-73477000D02*
X138790000Y-73477000D01*
X137094000Y-74234000D02*
X137851000Y-73477000D01*
%TO.N,Net-(C1-Pad1)*%
X136144000Y-76134000D02*
X136718000Y-76134000D01*
X138054998Y-74777000D02*
X138790000Y-74777000D01*
X136718000Y-76113998D02*
X138054998Y-74777000D01*
X136718000Y-76134000D02*
X136718000Y-76113998D01*
%TO.N,Net-(C2-Pad2)*%
X138054998Y-72177000D02*
X138790000Y-72177000D01*
X137864999Y-71987001D02*
X138054998Y-72177000D01*
X137864999Y-71316999D02*
X137864999Y-71987001D01*
X136972000Y-70424000D02*
X137864999Y-71316999D01*
X136144000Y-70424000D02*
X136972000Y-70424000D01*
%TO.N,Net-(C2-Pad1)*%
X136144000Y-72324000D02*
X137348000Y-72324000D01*
X137851000Y-72827000D02*
X138790000Y-72827000D01*
X137348000Y-72324000D02*
X137851000Y-72827000D01*
%TO.N,Net-(C3-Pad1)*%
X138790000Y-74127000D02*
X139659000Y-74127000D01*
X139659000Y-74127000D02*
X140970000Y-75438000D01*
X140970000Y-78420000D02*
X141036000Y-78486000D01*
X140970000Y-75438000D02*
X140970000Y-78420000D01*
%TO.N,Net-(C4-Pad2)*%
X138790000Y-71527000D02*
X140055000Y-71527000D01*
X141290000Y-70292000D02*
X141290000Y-68072000D01*
X140055000Y-71527000D02*
X141290000Y-70292000D01*
%TO.N,Net-(PS1-Pad1)*%
X155979500Y-56745500D02*
X156083000Y-56642000D01*
X152550500Y-57658000D02*
X152550500Y-56411500D01*
X151638000Y-55499000D02*
X151638000Y-53848000D01*
X152550500Y-56411500D02*
X151638000Y-55499000D01*
X156083000Y-56642000D02*
X156083000Y-57404000D01*
X155829000Y-57658000D02*
X152550500Y-57658000D01*
X156083000Y-57404000D02*
X155829000Y-57658000D01*
%TO.N,Net-(PS2-Pad1)*%
X116840000Y-69977000D02*
X117983000Y-71120000D01*
D39*
X107973500Y-66063500D02*
X107950000Y-66040000D01*
X107973500Y-70358000D02*
X107973500Y-66063500D01*
D40*
X113538000Y-69977000D02*
X109855000Y-66294000D01*
X113538000Y-69977000D02*
X116840000Y-69977000D01*
X108204000Y-66294000D02*
X107950000Y-66040000D01*
X109855000Y-66294000D02*
X108204000Y-66294000D01*
%TO.N,Net-(J19-Pad3)*%
X113792000Y-69088000D02*
X112522000Y-67818000D01*
X135636000Y-69088000D02*
X113792000Y-69088000D01*
X137414000Y-67310000D02*
X135636000Y-69088000D01*
%TO.N,Net-(J1-Pad2)*%
X145792000Y-118892000D02*
X145812000Y-118872000D01*
D39*
X142260000Y-118872000D02*
X142240000Y-118892000D01*
X145812000Y-118872000D02*
X142260000Y-118872000D01*
D38*
%TO.N,/Motors*%
X166372000Y-85088000D02*
X166624000Y-84836000D01*
X166372000Y-86360000D02*
X166372000Y-85088000D01*
X165228000Y-100710000D02*
X165354000Y-100584000D01*
X165228000Y-102362000D02*
X165228000Y-100710000D01*
X165608000Y-118110000D02*
X164846000Y-118110000D01*
X164592000Y-117856000D02*
X164592000Y-116520000D01*
X164846000Y-118110000D02*
X164592000Y-117856000D01*
X166944000Y-99314000D02*
X165862000Y-99314000D01*
X165354000Y-99822000D02*
X165354000Y-100584000D01*
X165862000Y-99314000D02*
X165354000Y-99822000D01*
X166624000Y-82870000D02*
X166558000Y-82804000D01*
X166624000Y-84836000D02*
X166624000Y-82870000D01*
X167894000Y-75692000D02*
X168148000Y-75946000D01*
X166050000Y-75692000D02*
X167894000Y-75692000D01*
X165354000Y-99822000D02*
X164846000Y-99314000D01*
X164846000Y-99314000D02*
X163614000Y-99314000D01*
D39*
X165900000Y-78232000D02*
X165900000Y-77254000D01*
X166050000Y-77104000D02*
X166050000Y-75692000D01*
X165900000Y-77254000D02*
X166050000Y-77104000D01*
%TO.N,/M3*%
X127754000Y-94910000D02*
X124374000Y-94910000D01*
X124374000Y-94910000D02*
X123698000Y-94234000D01*
%TO.N,/M4*%
X127914000Y-103800000D02*
X126152000Y-103800000D01*
X126152000Y-103800000D02*
X122936000Y-100584000D01*
X122936000Y-100584000D02*
X122936000Y-96774000D01*
D40*
%TO.N,Net-(R19-Pad2)*%
X145796000Y-108996000D02*
X147290000Y-108996000D01*
X147290000Y-108996000D02*
X148336000Y-107950000D01*
X148336000Y-100838000D02*
X148336000Y-100076000D01*
X147421000Y-99161000D02*
X145690000Y-99161000D01*
X148336000Y-100076000D02*
X147421000Y-99161000D01*
X147597500Y-112395000D02*
X147597500Y-109370500D01*
X147290000Y-109063000D02*
X147290000Y-108996000D01*
X147597500Y-109370500D02*
X147290000Y-109063000D01*
D39*
%TO.N,Net-(J1-Pad1)*%
X142240000Y-120142000D02*
X140970000Y-120142000D01*
X140970000Y-120142000D02*
X137922000Y-117094000D01*
X137922000Y-117094000D02*
X134912998Y-117094000D01*
X134912998Y-117094000D02*
X134747000Y-117094000D01*
X134747000Y-117094000D02*
X132334000Y-114681000D01*
X132334000Y-114681000D02*
X128270000Y-114681000D01*
X116904002Y-105283000D02*
X116967000Y-105345998D01*
X115952498Y-105345998D02*
X115889500Y-105283000D01*
X116967000Y-105345998D02*
X115952498Y-105345998D01*
D38*
%TO.N,Net-(F7-Pad1)*%
X102108000Y-119634000D02*
X103632000Y-119634000D01*
X100711000Y-118237000D02*
X102108000Y-119634000D01*
X100711000Y-114300000D02*
X100711000Y-118237000D01*
X98933000Y-112522000D02*
X100711000Y-114300000D01*
X98933000Y-112522000D02*
X98933000Y-94869000D01*
%TD*%
M02*
